<?xml version="1.0" encoding="UTF-8"?>
<svg id="Lag_1" data-name="Lag 1" xmlns="http://www.w3.org/2000/svg" viewBox="0 0 595.28 1123.17">
  <defs>
    <style>
      .cls-1 {
        fill: #ea4b8f;
        opacity: .11;
      }
    </style>
  </defs>
  <path class="cls-1" d="M246.61,982.43c-.37-3.66-.76-7.21-1.93-10.72-.69-2.07-1.5-4.15-2.37-6.15-2.66-6.07-6.55-11.66-10.86-16.66-12.63-14.67-29.53-24.36-47.1-31.92-6.09-2.62-12.56-4.63-18.89-6.57-5.85-1.8-11.76-3.41-17.65-5.06-13.49-3.78-26.94-7.56-39.77-13.25-12.01-5.33-23.53-12.07-33.6-20.57-5.35-4.51-10.22-9.52-14.6-14.98-1.82-2.08-3.45-4.3-4.89-6.66-2.4-3.36-4.48-6.91-6.25-10.66l.83,1.83c-1.04-2.58-2.08-5.15-3.12-7.73l.72,1.86c-1.98-6.2-3.67-12.21-4.44-18.69-.74-6.24-.87-12.93-.02-19.17s2.18-12.48,4.69-18.27l2.66-5.64c1.96-3.68,4.29-7.11,6.98-10.3-.83.88-1.66,1.75-2.49,2.63,2.27-2.4,4.55-4.79,6.82-7.19-2.26,1.84-4.53,3.67-6.79,5.51,3.28-2.47,6.56-4.94,9.84-7.41-.96.71-1.92,1.43-2.89,2.14l6.11-3.89c-2.54,1.42-5.09,2.84-7.63,4.26,3.64-1.88,7.29-3.77,10.93-5.65l-7.95,3.6c3.81-1.34,7.61-2.67,11.42-4.01l-10.22,1.96c4.77-.8,9.53-1.59,14.3-2.39l-10.32.92,14.4-.57c-3.48-.06-6.95-.13-10.43-.19,4.74.38,9.48.76,14.22,1.14l-10.33-1.38,14.05,2.9c-3.42-.86-6.83-1.73-10.25-2.59,4.61,1.48,9.21,2.97,13.82,4.45-3.3-1.26-6.6-2.51-9.91-3.77,4.47,2.01,8.94,4.01,13.41,6.02l-9.59-4.93,13.02,7.42-9.07-5.96c7.26,5.85,14.52,11.71,21.78,17.56l-2.86-2.8,5.74,6.28-2.64-3.05c1.79,2.22,3.59,4.43,5.38,6.65l-2.44-3.3,4.9,6.83,5.33,6.42c4.24,5.41,8.05,11.13,11.51,17.07,2.76,4.75,5.23,9.61,7.44,14.65,3.08,7.03,5.3,14.11,7.53,21.47l-.65-2.17,2.41,10.18c.44.89.95,1.06,1.53.52.95-.37,1.46-1.16,1.52-2.37,2.12-8.24,3.45-16.59,3.96-25.06.85-6.83,1.14-13.68.88-20.56.14-3.27.29-6.54.43-9.81,1.02-4.59,2.39-9.08,4.12-13.45,1.26-3.36,2.44-6.75,3.55-10.16,1.69-5.08,3.45-10.14,5.29-15.17,2.94-6.89,6.45-13.44,10.17-19.92l-.98,1.53c1.6-2.43,3.2-4.87,4.79-7.3l-1.06,1.5c1.71-2.27,3.42-4.53,5.13-6.8l-1.15,1.46c1.83-2.09,3.66-4.18,5.49-6.27l-1.23,1.4c3.74-3.61,7.46-7,11.85-9.84,1.62-1.18,3.35-2.17,5.18-2.98,2.6-1.44,5.34-2.57,8.21-3.4l-3.61.8,8.45-1.78-3.66.5c2.89-.31,5.77-.62,8.66-.92l-3.72.18c2.87-.02,5.75-.04,8.62-.05l-3.73-.14,8.67.78-3.75-.46,8.53,1.56-3.71-.79c2.8.8,5.6,1.59,8.4,2.39-2.92-1.03-5.84-2.05-8.76-3.08,4.39,1.7,8.79,3.39,13.18,5.09-2.83-1.29-5.66-2.58-8.5-3.87,4.23,2.13,8.47,4.26,12.7,6.39l-8.23-4.68c4.01,2.52,8.02,5.04,12.03,7.57l-7.79-5.46c3.76,3.27,7.52,6.53,11.28,9.8-2.48-2.88-4.96-5.76-7.44-8.63,3.37,4.17,6.75,8.35,10.12,12.52-2.2-3.17-4.4-6.34-6.6-9.51,2.9,4.53,5.8,9.06,8.7,13.59l-5.54-10.34c2.37,4.93,4.75,9.86,7.12,14.79-1.43-3.64-2.86-7.28-4.29-10.93,1.77,5.19,3.54,10.39,5.31,15.58-1.01-3.84-2.03-7.68-3.04-11.53,1.2,5.4,2.4,10.81,3.61,16.21-.56-3.94-1.12-7.89-1.68-11.83l1.8,16.61-.34-12.15c.05,7.09.1,14.17.15,21.26.13-3.46.26-6.91.38-10.37-.47,5.08-.93,10.16-1.4,15.24.5-3.47,1.01-6.95,1.51-10.42-.93,5.03-1.86,10.06-2.79,15.09l.91-4.31-2.58,10.91c.45-1.41.89-2.81,1.34-4.22-1.28,4.7-2.9,9.27-4.87,13.7-1.26,3.14-2.7,6.21-4.3,9.2-3.58,6.79-7.63,13.27-11.71,19.76l1.24-1.96c-2.97,4.53-6.02,9.02-9.13,13.46-5.25,8.91-10.7,17.69-16.35,26.35-11.27,17.54-22.95,34.83-33.64,52.73-9.82,16.44-19.06,33.36-26.23,51.14-4.37,10.85-7.94,21.99-10.75,33.34-4.49,18.15-6.82,36.77-6.18,55.48.24,7.02,1.07,13.54,2.04,20.47.51,3.86,1.27,7.68,2.28,11.45,1.66,6.85,3.8,13.54,6.42,20.07,1.29.28,2.37-.17,3.21-1.34,1.81-1.95,3.49-4,5.06-6.15,2.05-2.6,4-5.28,5.85-8.02,1.58-1.82,2.65-3.88,3.21-6.18-1.49-5.96-2.89-11.86-3.84-17.94-1.17-7.52-1.5-15.2-1.43-22.8.1-12.4,1.6-24.69,4.15-36.81,2.93-13.94,7.2-27.53,12.37-40.8,7.1-18.25,16.27-35.64,25.88-52.69,11.81-20.96,24.57-41.36,36.39-62.31,7.78-13.8,15.47-27.81,21.34-42.56,4.22-10.6,7.37-21.61,8.6-32.98,1.05-9.78.77-19.6-2.24-29.04-1.08-3.37-2.3-6.76-4.04-9.85-2.98-3.8-5.97-7.6-8.95-11.39-.84-1.58-2-2.82-3.46-3.72-3.22-2.23-6.52-4.43-10.11-6.01-12.62-5.56-27.97-5.98-40.92-1.2-11.68,4.31-21.78,12.15-29.72,21.68-5.9,7.08-10.63,15.13-14.58,23.44-2.63,5.52-4.94,11.19-7.19,16.87-1.13,2.68-2.12,5.42-2.98,8.2-1.42,4.63-3.23,9.12-5.42,13.45l.87-1.4c-1.79,2.42-3.57,4.85-5.36,7.27l1.14-1.14-3.29,2.99c-.7.62-.79,1.31-.27,2.09,1.78,1.82,3.56,3.64,5.35,5.47l-1.93-2.1c2.83,6.22,5.65,12.44,8.48,18.66-1.3-3.65-2.6-7.31-3.91-10.96,1.01,8.44,2.01,16.89,3.02,25.33-.17-4.54-.35-9.08-.52-13.62-.66,9.66-1.32,19.31-1.99,28.97,1.73-6.31,3.46-12.62,5.19-18.93-2.27-5.41-4.54-10.8-7.29-15.99-2.73-5.15-5.8-10.19-9.11-14.98-6.61-9.55-14.41-18.39-22.99-26.21-5.22-4.76-10.74-9-16.9-12.45-3.37-1.89-6.85-3.76-10.55-4.9-3.91-1.2-7.99-2.29-12.02-3.03-1.94-.36-3.65-.61-5.59-.29-3.48.59-7.02,1.63-10.4,2.62-2.69.78-5.82,1.52-8.28,2.91-1.07.83-2.14,1.66-3.21,2.5l-3.01,2.87c-.94,1.02-1.85,2.09-2.72,3.16-3.96,4.85-7.29,10.66-9.58,16.49-4,10.19-5.9,20.82-5.76,31.77.25,19.57,6.75,38.85,18.1,54.77,14.2,19.91,34.35,34.62,56.22,45.17,10.86,5.24,22.16,9.36,33.63,13.05,12.91,4.15,25.76,8.2,38.45,13.01l-1.14-.44c3.13,1.32,6.25,2.64,9.38,3.96l-1.11-.5c3.5,1.33,6.72,3.12,9.65,5.37,2.37,1.74,4.81,3.4,7.3,4.97l-.98-.71c1.76,1.36,3.53,2.71,5.29,4.07l-.94-.77c1.69,1.45,3.38,2.9,5.07,4.35l-.88-.82,4.74,4.71-.83-.88c1.46,1.65,2.93,3.3,4.39,4.95l-.77-.93,3.97,5.27-.7-.98c1.15,1.81,2.3,3.61,3.45,5.42l-.63-1.03c1.92,3.75,3.61,7.37,4.63,11.49.45,1.53.76,3.09.94,4.67.46,2.34.62,4.71.47,7.1.1,4.05,5.67-1.2,6.11-1.59,2.59-2.36,5.06-4.83,7.42-7.41,1.5-1.26,2.53-2.8,3.08-4.62Z"/>
  <path class="cls-1" d="M249.38,973.98c-.16-2.21-.4-4.42-.73-6.61-.8-3.87-2.04-7.6-3.73-11.18-3.7-8.02-9.28-15.08-15.53-21.26-14.55-14.41-33.29-23.9-52.49-30.49-23.63-8.12-48.53-12.29-71.17-23.2-10.48-5.05-20.47-11.26-29.33-18.82-4.27-3.62-8.23-7.55-11.89-11.78-3.59-4.16-6.8-8.6-9.62-13.32l1.13,2.08c-1.67-3.1-3.33-6.2-5-9.3l.99,2.14-3.2-8.03.85,2.2c-.87-2.76-1.73-5.52-2.6-8.28l.69,2.25c-.66-2.82-1.32-5.64-1.98-8.46l.53,2.28-1.34-8.58.35,2.3c-.23-2.88-.45-5.76-.68-8.64l.18,2.31c0-2.88,0-5.76-.01-8.64v2.3c.22-2.86.44-5.72.66-8.58l-.18,2.28c.49-4.16,1.33-8.25,2.53-12.26.85-3,1.97-5.89,3.37-8.67,1.21-2.85,2.7-5.56,4.47-8.12,2.32-3.47,5-6.65,8.02-9.54l-3.3,2.4,6.33-4.29-3.42,2.04c2.2-1.27,4.4-2.54,6.6-3.81l-3.54,1.68c2.29-1.04,4.58-2.09,6.87-3.13l-3.59,1.32,7.09-2.4-3.64.96c2.4-.48,4.81-.96,7.21-1.44-1.22.2-2.44.39-3.66.59,2.63-.23,5.26-.47,7.9-.7-2.87.02-5.75.05-8.62.07l12.82.55c-2.78-.31-5.56-.62-8.33-.92,4.36,1.07,8.72,2.14,13.08,3.22-2.82-1.24-5.63-2.47-8.45-3.71,8.54,5.4,17.07,10.81,25.61,16.21l-2.21-1.97c1.78,1.81,3.56,3.62,5.33,5.44l-2-2.11c1.69,1.92,3.37,3.84,5.06,5.76l-1.81-2.25c2.12,2.52,4.12,5.13,6,7.82,1.33,1.81,2.58,3.68,3.76,5.6,2.65,3.24,5.16,6.58,7.53,10.02,2.45,3.32,4.71,6.77,6.81,10.33,4.13,7.08,7.89,14.42,10.76,22.12,2.87,7.69,4.95,15.5,6.74,23.51.24,1.09.76,2.29,2.07,1.92,1.6-.45,1.99-2.95,2.23-4.21.83-4.48,1.66-8.96,2.49-13.45,1.41-7.62,2.23-15.29,2.45-23.01.2-4.08.41-8.17.64-12.25.06-5.43.8-10.79,2.23-16.06l-.33,1.09c1.45-5.08,3.04-10.12,4.77-15.11,1.63-5.01,3.4-9.97,5.33-14.88,2.53-5.71,5.41-11.26,8.57-16.64,2.89-4.92,6.04-9.8,9.78-14.12l4.36-4.79c2.92-2.97,6.1-5.65,9.52-8.03l-1.63,1.09c2.26-1.42,4.52-2.84,6.78-4.26l-1.68.97,7.09-3.54-1.72.84c3.36-1.56,6.87-2.59,10.53-3.08,2.51-.46,5.03-.59,7.55-.4,2.54,0,5.07.24,7.57.72,3.33.64,6.58,1.59,9.73,2.85l-2.88-1.37,7.41,3.52-2.7-1.56c2.34,1.4,4.67,2.8,7.01,4.19l-2.51-1.77,6.38,4.85-2.3-1.93,5.81,5.49-2.08-2.11c1.67,2.02,3.33,4.03,5,6.05-1.38-1.89-2.75-3.77-4.13-5.66,2.34,4.06,4.67,8.12,7.01,12.19-.93-2.53-1.87-5.06-2.8-7.59,1.36,4.14,2.72,8.27,4.09,12.41l-1.96-7.69c.9,4.23,1.79,8.47,2.69,12.7l-1.12-7.8c.43,4.24.85,8.48,1.28,12.73l-.32-7.82c.21,12.57-1.58,24.78-5.36,36.61l.8-2.78c-1.07,3.02-2.15,6.03-3.22,9.05l1.03-2.75c-1.27,2.95-2.54,5.89-3.82,8.84l1.26-2.7c-1.46,2.88-2.92,5.77-4.38,8.65.5-.88.99-1.76,1.49-2.64-5.05,8.8-10.35,17.32-16.03,25.72-7.05,10.42-13.35,21.34-20.1,31.96-20.88,32.81-43.45,64.8-58.8,100.73-9.23,21.6-15.56,44.45-17.97,67.85-1.23,11.92-1.45,23.88-.29,35.82.66,6.9,1.77,13.74,3.33,20.49,1.6,6.89,3.67,13.64,6.24,20.23,1.17,3.37,4.49-1.28,5.15-2.17,1.7-2.4,3.27-4.89,4.71-7.46,1.03-1.34,1.54-2.82,1.52-4.46-1.54-4.74-2.73-9.55-3.58-14.45-.75-3.2-1.27-6.44-1.57-9.71-1.03-8.09-1.46-16.24-1.24-24.4.43-16.25,3.12-32.65,7.5-48.3,4.38-15.65,10.02-31,17.01-45.69,11.33-23.83,24.77-46.49,38.37-69.07,9.26-15.38,18.56-30.74,27.22-46.47,6.2-11.27,12.48-22.48,17.26-34.45,4.16-10.41,7.35-21.58,8.07-32.82.42-6.56.15-12.75-.98-19.22-.76-4.36-2.3-8.49-4.26-12.44-3.8-7.67-10.51-13.7-17.81-17.98-4.28-2.51-8.96-4.08-13.74-5.27-4.85-1.2-9.99-1.87-15-1.71-4.6.15-9.52.79-13.98,1.98-1.98.71-3.95,1.41-5.93,2.12-3.1,1.18-6.04,2.66-8.82,4.45-5.06,3-9.87,6.54-14.03,10.72-8.45,8.49-15.12,18.51-20.25,29.32-2.06,4.35-3.98,8.77-5.87,13.19-2.64,6.22-4.69,12.61-7.1,18.9-1.32,3.45-3,6.94-3.83,10.55.21,1.9.42,3.81.64,5.71,3.46,6.75,5.65,13.91,6.57,21.48l-.39-2.04c.13,6.34.26,12.68.39,19.03.06-1.85.11-3.71.17-5.56-.85,7.91-1.7,15.81-2.55,23.72,1.81-3.46,3.62-6.93,5.43-10.39-1.52-5.51-3.36-10.91-5.51-16.2-2.17-5.33-4.63-10.51-7.4-15.56-5.6-10.24-12.45-19.59-20-28.45-8.78-10.31-18.02-20.05-30.03-26.57-6.41-3.48-13.52-5.62-20.85-5.62-5.65,0-10.96,1.33-16.07,3.67-11.45,5.24-19.05,16.9-23.68,28.13-7.19,17.45-7.45,36.97-2.41,55.05,5.37,19.26,16.61,36.05,31.08,49.68,16.62,15.64,36.71,26.8,57.74,35.38,10.91,4.45,22.1,8.17,33.15,12.24s21.91,8.76,32.59,13.97l-1.15-.57c3.23,1.4,6.1,3.3,8.61,5.67,2.04,1.86,4.2,3.58,6.48,5.15l-.97-.83c5.25,4.68,10.39,9.36,14.67,14.98,3.85,5.06,6.57,10.41,8.73,16.35l-.32-1.23,1.3,5.57-.24-1.24c.32,1.9.64,3.8.97,5.7l-.18-1.25c.05,1.54.1,3.07.15,4.61-.26,1.14.19,1.67,1.35,1.61,2.14-.6,4.01-1.7,5.63-3.3,3.26-2.53,6.42-5.19,9.48-7.96,1.85-1.31,3.26-2.97,4.22-4.97Z"/>
  <path class="cls-1" d="M251.37,981.08c-.23-2.2-.31-4.43-.86-6.57-.81-3.16-1.44-5.28-2.61-8.22-3.19-7.97-8.21-15-14.09-21.22-7.01-7.42-15.06-13.75-23.82-18.97-6.36-3.79-13.3-7.37-20.16-10.13-20.79-8.36-42.88-12.6-63.95-20.08-11.35-4.03-22.25-9.2-32.49-15.55-6.08-3.77-11.77-8.21-17.06-13-2.15-1.81-4.16-3.76-6.01-5.88-2.94-2.94-5.63-6.11-8.07-9.5l1.24,1.82c-1.94-2.89-3.89-5.78-5.83-8.67l1.14,1.89-5.1-9.12,1.03,1.96c-2.46-5.96-4.6-11.76-5.89-18.1s-1.91-12.77-1.63-19.05c.28-6.29,1.04-12.63,2.93-18.66l2.04-5.89c1.54-3.85,3.45-7.51,5.74-10.97-.9,1.22-1.8,2.44-2.7,3.66,2.13-2.88,4.26-5.76,6.4-8.64l-3.02,3.42c2.43-2.67,4.85-5.33,7.28-8-4.49,3.76-8.99,7.52-13.48,11.28,6.57-4.98,13.13-9.97,19.7-14.95-5.12,2.92-10.24,5.84-15.36,8.76,8.5-3.9,16.99-7.8,25.49-11.71l-17.36,4.18c8.51-1.24,17.03-2.48,25.54-3.72-5.91.04-11.82.09-17.73.13,7.17.38,14.33.76,21.5,1.14-5.8-.68-11.6-1.37-17.39-2.05,7.03,1.29,14.06,2.57,21.1,3.86-5.69-1.41-11.38-2.83-17.07-4.24,6.86,2.14,13.72,4.27,20.58,6.41-5.4-2.09-10.8-4.18-16.19-6.27,6.55,2.93,13.1,5.86,19.66,8.78-5.12-2.75-10.24-5.51-15.36-8.26l22.01,14.03-3.55-2.78c2.25,1.99,4.49,3.98,6.74,5.96l-3.23-3.1c2.12,2.15,4.24,4.3,6.36,6.45l-2.93-3.41c3.04,3.38,5.95,6.86,8.73,10.45,2.82,4.17,5.93,8.11,9.33,11.83l-1.38-1.82c2.07,2.85,4.15,5.69,6.22,8.54l-1.25-1.9c1.9,2.96,3.8,5.91,5.7,8.87l-1.12-1.98c4.44,7.88,8.79,15.67,11.99,24.16,2.91,7.73,5.01,15.58,6.83,23.64.36.91.85,1.12,1.48.65.97-.27,1.54-.99,1.71-2.18.4-1.41.79-2.82,1.19-4.22.95-4.06,1.75-8.14,2.39-12.26.8-5.52,1.52-11.04,2.15-16.58.54-8.5.57-17,.08-25.51l-.07,1.18c.35-3.15.69-6.3,1.04-9.46.93-2.54,1.87-5.09,2.8-7.63,1.32-3.16,2.64-6.33,3.95-9.49,1.59-4.54,3.44-8.96,5.56-13.27,2.15-4.54,4.43-8.98,6.95-13.33,2.93-5.05,6.2-9.64,9.76-14.27l-1.51,1.72c1.96-2.18,3.91-4.37,5.87-6.55l-1.62,1.64c2.08-1.99,4.17-3.97,6.25-5.96l-1.73,1.55c2.21-1.77,4.42-3.55,6.63-5.32l-1.84,1.45c3.23-2.38,6.68-4.4,10.35-6.04,3.3-1.57,6.76-2.63,10.37-3.16l-4.63.5,9.6-.99-4.67.07,9.58-.02c-1.54-.12-3.09-.24-4.63-.36,3.19.3,6.38.61,9.57.91l-4.59-.79,9.4,1.82c-1.49-.4-2.98-.81-4.47-1.21l9.19,2.72-4.35-1.63,8.81,3.57c-1.38-.67-2.76-1.34-4.14-2.02,2.8,1.48,5.59,2.97,8.39,4.45l-3.93-2.41,7.79,5.25-3.63-2.76,7.15,6.09-7.8-7.83c3.6,3.84,7.2,7.68,10.8,11.52-2.28-2.84-4.56-5.67-6.83-8.51,3.12,4.22,6.23,8.44,9.35,12.66-1.95-3.07-3.89-6.13-5.84-9.2,2.57,4.55,5.13,9.09,7.7,13.64-2.38-5.22-4.75-10.44-7.13-15.66,3.04,8.39,6.07,16.79,9.11,25.18-.73-3.45-1.47-6.9-2.2-10.36.8,5.07,1.59,10.14,2.39,15.21-.32-3.45-.64-6.91-.96-10.36.25,5.11.5,10.22.76,15.34.08-3.46.16-6.93.24-10.39-.28,5.1-.56,10.21-.85,15.31l.39-4.22-1.32,9.17c.28-1.38.56-2.77.83-4.15-1.18,5.23-2.44,10.43-3.79,15.61-1.33,4.34-2.94,8.57-4.84,12.69-4.1,9.05-9.37,17.43-14.67,25.81l1.15-1.78c-2.95,4.48-5.96,8.92-9.02,13.32-5.26,8.91-10.71,17.7-16.35,26.37-11.26,17.55-22.93,34.85-33.62,52.76-14.96,25.06-28.11,51.22-35.77,79.49-3.52,13-6.11,26.42-7.03,39.87-.49,7.18-.82,14.46-.37,21.64.44,7.01.99,13.47,2.1,20.42.68,3.39,1.36,6.77,2.06,10.16,1.63,6.84,3.74,13.52,6.33,20.06,1.19.38,2.23.06,3.11-.98,1.75-1.69,3.39-3.48,4.91-5.37,1.99-2.28,3.89-4.64,5.69-7.07,1.54-1.6,2.58-3.46,3.13-5.56l-2.85-10.15.32,1.21c-.71-3.43-1.42-6.85-2.14-10.28l.25,1.23c-1.04-6.08-1.69-12.21-1.94-18.37-.25-6.21-.16-12.4.3-18.6.9-12.58,3.16-25.04,6.38-37.22,3.27-12.35,7.5-24.54,12.52-36.3,7.48-17.49,16.69-34.25,26.22-50.69,10.69-18.45,22.06-36.49,32.81-54.9,7.95-13.63,15.79-27.46,22.27-41.87,7.71-17.15,13.46-36.31,11.32-55.31-1.66-14.76-8.7-29.22-21.09-37.87s-29.85-11.23-45-7.58c-16.56,3.99-30.57,15.37-40.5,28.89-5.55,7.55-9.84,15.87-13.55,24.45-1.85,4.45-3.69,8.9-5.51,13.36-2.03,4.94-4.32,9.75-6.86,14.45l1.14-1.66c-2.05,2.23-4.1,4.46-6.14,6.69,3.21-1.77,6.41-3.53,9.62-5.3l-11.19,4.78c-1.04.02-1.71.45-2.02,1.27-.48.53-.38,1.05.29,1.58,4.85,2.45,9.71,4.89,14.56,7.34-3.67-2.32-7.34-4.65-11.01-6.97,4.69,6.37,9.37,12.73,14.06,19.1-2.56-4.57-5.11-9.15-7.67-13.72,2.04,8.07,4.08,16.14,6.12,24.2l-1.46-12.69c-.03,9.34-.06,18.69-.09,28.03.24-3.48.48-6.96.72-10.44-1.19,8.61-2.37,17.23-3.56,25.84,2.26-6,4.51-12.01,6.77-18.01-2.21-5.66-4.41-11.3-7.14-16.74-3.41-6.81-7.4-13.3-11.8-19.51-7.12-10.03-15.39-19.12-24.76-27.1-3.94-3.35-7.73-6.3-12.27-8.83-3.22-1.8-6.46-3.37-9.92-4.67l-5.24-1.81c-7.67.21-15.34.42-23.02.64-2.38.14-4.59.18-6.83,1.01-2.81,1.74-5.62,3.49-8.43,5.23-1.59,1.34-3.03,2.82-4.33,4.44-1.87,2.19-3.52,4.51-4.98,6.99-4.04,6.85-7.15,14.28-9.03,22-5,20.44-1.7,42.28,7.36,61.12,10.3,21.42,27.9,38.36,47.86,50.91,10.27,6.46,21.27,11.82,32.51,16.37,12.44,5.04,25.28,9.03,37.9,13.6,11.01,3.98,22.17,8.29,32.22,14.34,2.71,1.3,5.07,3.06,7.08,5.3,1.38,1.11,2.77,2.21,4.15,3.32,2.68,2.3,5.29,4.81,7.67,7.43,4.61,5.09,8.52,10.84,11.47,17.05,3.42,7.2,4.43,15.26,4.44,23.13,0,4.66,6.97-2.91,6.96-2.9,3.07-3.14,6.02-6.38,8.85-9.73,1.75-1.64,3.01-3.57,3.79-5.79Z"/>
  <path class="cls-1" d="M260.04,984.93c-.23-2.12-.37-4.28-.78-6.37-.74-3.8-2.21-7.75-3.76-11.29-4.19-9.6-10.9-17.88-18.34-25.14-12.24-11.94-27.28-19.94-42.89-26.52-6.3-2.66-13-4.72-19.55-6.63-12.34-3.6-24.9-6.44-37.2-10.17-13.05-3.96-25.65-9.13-37.31-16.24-4.91-2.99-9.55-6.26-14-9.9-2.23-1.69-4.32-3.54-6.27-5.56-3.06-2.78-5.89-5.78-8.47-9.03l.66.84c-1.84-2.46-3.68-4.91-5.53-7.37l.63.87c-3.82-6.14-7.66-12.25-9.69-19.27l-1.48-5.76c8.17-22.41,16.33-44.82,24.5-67.22,3.19-.69,6.38-1.39,9.58-2.08l-5.95.66h6.05c-.85-.07-1.7-.12-2.54-.18l9.63.94-6.19-.89,5.87,1.47-2.51-.88c6.55,3.33,13.11,6.66,19.66,9.99-2.1-1.5-4.2-3-6.31-4.51,5.81,5.38,11.62,10.75,17.43,16.13l-1.84-2.09,4.55,5.75-1.62-2.26c1.92,2.51,3.7,5.11,5.34,7.8,1.8,3.02,3.9,5.83,6.3,8.43,4.04,5.56,7.75,11.31,11.05,17.34,3.29,6.02,6.27,12.24,8.59,18.71,2.8,7.79,4.79,15.68,6.47,23.78-.05.96.35,1.63,1.19,2.03.68.22,1.23.07,1.65-.43.88-.57,1.43-1.41,1.65-2.53.89-2.07,1.63-4.2,2.22-6.37,1.47-7.5,2.74-14.97,4.05-22.5,1.53-8.17,3.13-16.32,4.78-24.47,1.11-6.2,2.34-12.38,3.7-18.53,2.17-10.17,4.51-20.39,8.58-30,1.35-3.35,2.87-6.62,4.57-9.82,2.08-4,4.41-7.84,7.01-11.52l-1.17,1.53,5.08-6.6-1.34,1.53c1.84-2.04,3.68-4.08,5.52-6.13l-1.51,1.51c1.99-1.87,3.98-3.74,5.97-5.6l-1.68,1.47c2.13-1.67,4.27-3.34,6.4-5.02l-1.86,1.39,6.83-4.37-2.04,1.28c8.14-1.86,16.29-3.72,24.43-5.58l-7.7-.41c15.71,12.96,31.41,25.91,47.12,38.87-.23-2.03-.46-4.07-.68-6.1l-.18,16.38.2-2.33-1.31,7.44.43-2.19c-.6,2.42-1.21,4.83-1.81,7.25l.64-2.04c-1.54,4.5-2.98,9.06-4.62,13.52-2.01,5.44-4.73,10.64-7.65,15.64-4.72,8.09-10.19,15.69-15.76,23.21-2.08,2.82-4.18,5.63-6.28,8.43-2.77,4.37-5.55,8.74-8.32,13.12-5.6,8.68-11.36,17.26-17.08,25.86-13.04,19.61-26,39.26-37.14,60.04-6.26,11.68-12.03,23.58-16.62,36.03-5.25,14.22-9.31,28.9-11.73,43.88-2.18,13.55-2.93,27.28-2.3,40.99.4,8.67,1.72,17.31,3.58,25.77.64,3.47,1.51,6.87,2.62,10.22,1.39,5.17,3.14,10.22,5.25,15.15.82,2.18,2.54,1.65,4.09.56,1.33-1.03,2.55-2.17,3.67-3.42.85-.68,1.24-1.54,1.16-2.58-2.7-6.11-4.94-12.39-6.71-18.84-1.75-6.38-3.06-12.84-3.92-19.4-1.74-13.08-1.73-26.35-.38-39.46s4.08-26.11,7.86-38.76c1.89-6.28,4.03-12.48,6.4-18.6,3.14-7.94,6.68-15.7,10.6-23.29l-.45.86c4.82-9.41,9.97-18.63,15.47-27.66,5.48-9,11.13-17.89,16.96-26.67,8.67-13.21,17.55-26.27,26.1-39.55,3.9-6.77,8.2-13.26,12.93-19.46,2.98-4.08,5.87-8.2,8.7-12.39,4.29-6.49,8.4-13.1,11.73-20.14,6.85-14.46,11.68-31.49,9-47.58-.66-5.45-2.46-10.52-5.39-15.22-.66-1.79-1.66-3.37-3-4.74-4.1-5.2-9.18-9.34-15.15-12.24-11.56-5.62-25.39-6.5-37.72-3.09-11.87,3.28-21.97,11.38-29.56,20.89-10.06,12.59-16.43,28.15-20.07,43.73-2.48,10.58-4.24,21.31-6.11,32-1.56,8.67-3.02,17.35-4.39,26.05-1.77,8.94-3.8,17.82-6.07,26.65,2.13-2.88,4.26-5.75,6.39-8.63-2.25-8.67-4.86-16.99-8.46-25.21-3.55-8.11-7.97-15.86-13.01-23.14-5.23-7.54-11.24-14.36-17.52-21.03-3.46-3.67-7.14-7.26-11.23-10.25-4.06-2.97-8.33-5.48-12.81-7.77,2.91,1.93,5.81,3.86,8.72,5.79-3.81-3.93-8.09-7.21-12.83-9.82-2.01-1.1-4.13-1.88-6.36-2.34-4.08-1.05-8.21-1-12.34-.23-1.88.26-3.69.77-5.44,1.53-2.36.9-4.64,1.96-6.84,3.19-2.26,1.51-4.21,3.52-6.06,5.5-9.28,9.98-14.22,22.62-16.35,35.9-.86,5.41-.92,10.89-.59,16.34.43,7.15,1.56,14.41,3.95,21.19,3.52,9.99,9.29,18.69,15.88,26.88,5.18,6.45,11.88,12.36,18.48,17.32,7.05,5.29,14.65,9.7,22.53,13.61,8.2,4.07,16.85,7.07,25.57,9.78,12.57,3.9,25.43,6.93,38.1,10.52l-.84-.25c3.44,1.11,6.88,2.23,10.32,3.34l-.83-.3c3.44,1.34,6.88,2.67,10.32,4.01l-.82-.35,10.52,4.83-.81-.39c2.17,1.19,4.34,2.38,6.51,3.56l-.78-.47,6.94,4.31-.76-.52c2.25,1.57,4.51,3.13,6.76,4.7l-.75-.57c2.14,1.76,4.29,3.52,6.43,5.29l-.72-.64c2.05,1.89,4.09,3.77,6.14,5.66l-.69-.7c1.78,1.99,3.55,3.99,5.33,5.98l-.64-.78,4.9,6.33-.58-.85,4.13,6.59-.51-.93c1.19,2.29,2.39,4.58,3.58,6.88l-.44-.99c.87,2.25,1.73,4.5,2.6,6.76l-.35-1.05,1.96,6.94-.27-1.1c.4,2.06.8,4.11,1.19,6.17l-.2-1.12c.11,1.69.22,3.38.33,5.07s1.34,2.83,3.03,1.91c1.09-1.02,2.01-2.18,2.76-3.48.85-1.24,1.51-2.57,1.96-3.99Z"/>
  <path class="cls-1" d="M258.37,980c.04-2.8-.35-5.53-1.19-8.18-.64-2.93-1.6-5.75-2.9-8.46-2.32-4.93-5.22-9.47-8.55-13.79-7.71-10-17.61-18.62-28.42-25.15-5.32-3.22-10.8-6.08-16.45-8.68-7.73-3.56-15.72-6.37-23.82-8.96-9.4-3.02-19-5.38-28.48-8.1-3.04-.89-6.08-1.77-9.12-2.66-5.92-1.77-11.75-3.81-17.49-6.12l1.25.54c-3.19-1.4-6.37-2.8-9.56-4.2l1.25.55c-5.25-2.67-10.49-5.32-15.48-8.47-5.99-3.78-11.63-8.07-16.88-12.82-4.09-3.7-7.84-7.64-11.3-11.95-1.79-2.04-3.39-4.22-4.8-6.54-2.35-3.3-4.39-6.79-6.11-10.46l.99,2.5c-1.08-2.74-2.15-5.49-3.23-8.23l.85,2.61-2.64-8.64.69,2.73c-.66-2.95-1.33-5.89-1.99-8.84l.51,2.83-1.34-9.04.32,2.92c-.22-3.06-.45-6.12-.67-9.18l.11,3.01.02-9.24c-.04,1.02-.07,2.05-.11,3.07l.73-9.25-.35,3.12,1.47-9.2-.6,3.15c.75-3.02,1.49-6.05,2.24-9.07-.29,1.05-.58,2.11-.86,3.16,1.01-2.96,2.02-5.91,3.04-8.87-.38,1.05-.76,2.09-1.14,3.14l3.85-8.58c-1.27,2.43-2.55,4.86-3.82,7.29l7.08-12.42-4.55,7.04c2.78-3.94,5.56-7.87,8.34-11.81-1.76,2.23-3.52,4.46-5.28,6.69,3.21-3.68,6.41-7.37,9.62-11.05-3.27,3.2-6.54,6.39-9.81,9.59l10.26-8.88c-2.72,2.06-5.44,4.12-8.16,6.18,4.73-3.17,9.46-6.34,14.18-9.5-3.14,1.52-6.28,3.04-9.43,4.56,4.22-1.9,8.43-3.8,12.65-5.69-3.32,1.21-6.65,2.42-9.97,3.63,4.39-1.42,8.78-2.85,13.17-4.27l-10.44,2.53c4.83-.98,9.65-1.96,14.48-2.94l-10.56,1.2c4.84-.27,9.67-.55,14.51-.82-3.54-.06-7.08-.13-10.62-.19,4.81.39,9.63.79,14.44,1.18l-10.3-1.65,13.98,3.14c-3.31-1.03-6.62-2.06-9.93-3.09,4.54,1.68,9.09,3.35,13.63,5.03l-9.17-4.37,15.92,8.25-7.41-4.35c3.57,2.45,7.14,4.89,10.71,7.34-2.21-1.71-4.43-3.42-6.64-5.14,3.29,2.77,6.59,5.53,9.88,8.3l-2.54-2.31c1.89,1.9,3.77,3.81,5.66,5.71l-2.24-2.52c3.3,3.77,6.54,7.51,9.51,11.55.93,1.19,1.79,2.43,2.57,3.72,2.18,3.5,4.67,6.78,7.48,9.83l-1.02-1.33c1.92,2.71,3.83,5.43,5.75,8.14l-.93-1.37c1.76,2.81,3.51,5.61,5.27,8.42l-.83-1.4,4.77,8.66-.74-1.43c1.42,2.96,2.83,5.92,4.25,8.89l-.65-1.44c1.24,3.03,2.48,6.06,3.72,9.09l-.56-1.45c1.06,3.11,2.11,6.21,3.17,9.32l-.47-1.46c.87,3.13,1.75,6.26,2.62,9.39l-.39-1.46,1.73,8.06c-.09,1.02.3,1.75,1.18,2.18.97.16,1.71-.21,2.23-1.09,1.01-1.92,1.81-3.93,2.41-6.02.72-2.05,1.22-4.16,1.51-6.31,1.12-6.4,2.81-14.16,3.39-20.54.41-4.56.63-9.18.79-13.76-.6-5.01-.19-9.9,1.23-14.68.97-5.09,2.3-10.09,3.97-15,2.37-8.11,4.54-16.31,7.86-24.1,4.55-10.68,10.12-20.93,17.83-29.67,3.41-3.86,7.15-7.44,11.38-10.41,1.68-1.06,3.35-2.11,5.03-3.17,3.43-1.92,7.03-3.42,10.8-4.52l-3.73.89c2.85-.59,5.7-1.18,8.55-1.77l-3.78.51,8.69-.83-3.81.11c2.9.04,5.8.08,8.7.11l-3.77-.28,8.64.99-3.72-.68,8.49,1.87-3.58-1.05c2.74.9,5.48,1.79,8.22,2.69l-3.43-1.42c2.62,1.18,5.24,2.36,7.86,3.53l-3.2-1.74c2.46,1.43,4.92,2.86,7.38,4.29l-2.97-2.06,6.78,5.08-2.66-2.31c2.03,1.92,4.06,3.84,6.1,5.76l-2.35-2.55c1.75,2.15,3.51,4.31,5.26,6.46l-1.98-2.71,4.41,7.01c-1.17-2.37-2.34-4.73-3.51-7.1,1.75,3.92,3.51,7.83,5.26,11.75-.85-2.43-1.71-4.86-2.56-7.29,1.21,4.1,2.42,8.21,3.64,12.31-.52-2.39-1.04-4.79-1.56-7.18.71,4.11,1.42,8.21,2.13,12.32l-.59-7.05c.16,4.05.32,8.11.48,12.16l-.07-2.79-.41,7.99.24-2.68c-.41,2.59-.82,5.19-1.23,7.78l.48-2.53-1.77,7.65.71-2.4c-1.48,4.63-2.86,9.32-4.49,13.9-1.92,5.43-4.53,10.64-7.34,15.66-4.53,8.1-9.82,15.74-15.22,23.28-2.02,2.83-4.06,5.66-6.11,8.47l-8.21,13.15c-5.53,8.7-11.24,17.3-16.9,25.92-10.25,15.6-20.49,31.17-29.89,47.3s-17.62,31.89-23.98,48.93c-5.3,14.19-9.47,28.82-11.99,43.77-2.28,13.51-3.15,27.21-2.64,40.9.32,8.65,1.56,17.28,3.34,25.74.61,3.46,1.45,6.87,2.53,10.21,1.34,5.17,3.04,10.22,5.11,15.15.94,2.59,3.22.93,4.57-.26,1.54-1.44,2.96-3,4.26-4.65.96-.87,1.42-1.92,1.41-3.15-1.13-3.12-2.26-6.24-3.39-9.36-1.56-4.69-2.78-9.47-3.66-14.33-1.32-6.44-2.19-12.88-2.65-19.43-1.15-16.42.26-32.78,3.53-48.89,2.93-14.46,7.26-28.66,12.81-42.33,9.16-22.57,21.74-43.57,34.43-64.28l-.64,1.01c11.28-17.73,22.88-35.27,33.97-53.12,3.84-6.73,7.96-13.27,12.37-19.64,2.76-4.12,5.44-8.3,8.03-12.54,8.95-14.79,16.34-31.08,18.3-48.45.95-8.38.61-17.2-2.03-25.28s-7.47-15.51-14.18-20.75c-3.29-2.57-6.59-4.68-10.42-6.38-3.79-1.69-7.46-2.77-11.5-3.58-8.38-1.68-17.22-1.35-25.45,1-14.02,3.99-25.89,13.32-34.64,24.83-8.17,10.75-13.45,23.26-17.63,36.01-2.56,7.82-4.21,15.86-6.57,23.75-1.03,3.08-2.03,6.16-3,9.26-.45,5.29.66,10.29,3.31,15l-.3-.88c-1.87,14.55-3.75,29.11-5.62,43.66,2.18-3.35,4.37-6.7,6.55-10.05-.81-2.92-1.62-5.84-2.43-8.77-1.33-4.38-2.92-8.66-4.76-12.84-2.36-5.67-5.07-11.11-8.13-16.43-3.84-6.67-8.14-13.05-12.95-19.05-3.93-4.9-8.24-9.47-12.57-14.01-3.75-3.92-7.83-7.66-12.37-10.68-1.58-1.05-3.25-1.98-4.9-2.92l-3.43-1.97c-3.26-1.61-6.77-2.42-10.53-2.41-3.26-.73-6.55-1.34-9.85-1.82-1.57-.33-3.14-.2-4.71.4-3.49.66-7.04,1.48-10.44,2.53l-3.57,1.23c-2.45,1.59-4.49,3.65-6.1,6.19-1.91,2.11-3.81,4.24-5.69,6.38-1.21,1.18-2.13,2.56-2.78,4.15-9.9,17.41-11.6,39.05-6.52,58.29,2.53,9.58,6.38,18.53,11.88,26.79,6.96,10.45,15.77,19.51,25.74,27.14,9.47,7.25,19.96,13.32,30.85,18.16,11.5,5.11,23.37,9.09,35.34,12.94,7.59,2.44,15.18,4.86,22.66,7.62s15.26,5.79,22.39,9.52l8.91,4.94,4.1,3.45c4.09,3.34,8.17,6.55,11.84,10.38,6.28,6.55,11.77,13.95,15.46,22.28,1.48,3.34,2.64,6.84,3.5,10.39,1.19,4.94,1.44,9.96,1.41,15,.11,1.02.68,1.44,1.69,1.25,1.68-.75,3-1.93,3.99-3.54,2.12-2.6,4.12-5.29,5.99-8.07,1.26-1.41,2-3.02,2.23-4.84Z"/>
  <path class="cls-1" d="M246.03,969.53c-.25-1.74-.5-3.48-.75-5.22-.54-1.8-1.08-3.59-1.62-5.39-1.35-4.03-3.46-8.15-5.74-11.77-2.4-3.82-5.26-7.36-8.23-10.74-9.23-10.48-21.11-18.65-33.49-24.97-9.4-4.8-19.16-8.66-29.21-11.87-13.99-4.46-28.32-7.72-42.36-12.01-11.65-3.57-22.92-8.06-33.63-13.89-6.33-3.45-12.31-7.57-17.93-12.07-2.27-1.68-4.4-3.52-6.39-5.51-3.13-2.76-6.02-5.75-8.69-8.97l.95,1.17c-2-2.56-4-5.12-5.99-7.68l.88,1.21-5.31-8.1.8,1.24c-2.62-4.13-4.64-8.53-6.06-13.2-1.33-4.07-2.32-8.23-2.98-12.46-.92-6.4-1.26-12.86-.72-19.32.53-6.34,1.88-12.8,4.08-18.78,1.47-4.02,3.33-7.85,5.59-11.49,2.28-3.66,4.94-7.02,7.98-10.08l-1.14,1.03c2.01-1.79,4.02-3.59,6.02-5.38l-2.92,1.79c4.93-3.32,10.44-4.43,16.53-3.34,5.53-2.17,10.51-1.72,14.94,1.35,3.28,2,6.13,4.4,8.81,7.15,7.17,7.36,12.92,15.92,18.15,24.74,1.65,2.78,3.29,5.38,5.17,8.03,3.93,5.51,7.58,11.15,10.84,17.08,3.83,6.97,7.2,14.58,9.68,22.13,2.53,7.67,4.27,15.42,5.72,23.37.39,2.15,3.73,2.2,4.29.14,3.06-11.34,6.08-22.65,8.33-34.19,2.19-11.24,3.17-22.66,5.51-33.87,1.47-7.07,3.27-14.04,5.31-20.97,2.19-7.44,4.36-14.85,7.77-21.85,4.05-8.32,8.8-16.39,14.96-23.34,3.55-4,7.52-7.55,11.92-10.58,1.65-1.28,3.42-2.36,5.31-3.23,2.65-1.55,5.46-2.77,8.42-3.65l-.98.3,6.69-1.74-.97.25c9.48-1.05,18.69.76,27.63,5.42,4.3,2.1,7.72,5.24,10.27,9.42,3.99,2.99,6.66,6.8,8.01,11.44,1.45,3.11,1.93,6.37,1.45,9.77.19,3.3.02,6.59-.51,9.85-.55,3.23-1.29,6.42-2.23,9.56-3.53,11.06-7.64,22.02-13.47,32.06-4.64,8-9.96,15.64-15.25,23.23-4.85,6.96-7.93,12.07-12.82,19.83-17.93,28.47-37.36,56-53.25,85.71-11.68,21.84-21.38,44.78-26.7,69.06-2.29,10.44-4.14,21.05-4.81,31.73-.65,10.42-.87,20.89.29,31.29.74,6.63,1.61,13.42,3.18,19.93,1.8,7.47,3.81,13.61,6.29,20.85.46,1.34,1.86,2.35,3.26,1.47.8-.86,1.41-1.84,1.85-2.94.54-1.05.86-2.16.98-3.33-1.81-5.07-3.25-10.23-4.31-15.5-1.29-5.12-2.21-10.31-2.79-15.57-.95-8.61-1.31-17.21-1.04-25.87.58-18.66,3.83-37.3,9.27-55.15,5.42-17.78,12.47-34.94,21.01-51.45,11.97-23.12,25.81-45.13,39.57-67.21,4.07-6.46,8.07-12.97,12.01-19.51,3.96-6.48,7.85-13,11.68-19.57,2.63-4.17,5.34-8.3,7.98-12.47,4.88-7.73,9.79-15.52,13.62-23.84,3.03-6.57,5.49-13.46,7.78-20.32,1.97-5.89,2.96-12.04,3.35-18.22.17-2.8.44-5.79-.11-8.54-.88-4.4-2.55-8.69-4.72-12.6-2.31-4.17-5.38-7.78-8.89-11-5.16-4.75-11.84-8-18.49-10.11-6.27-1.99-13.15-2.66-19.67-2.16-3.01.23-5.73.95-8.63,1.82-4.46,1.33-9.22,3.57-13.05,6.1-9.6,6.31-17.66,14.96-23.47,24.87-3,5.11-5.58,10.42-7.69,15.96-1.71,4.19-3.02,8.5-3.93,12.95-.52,2.98-1.03,5.95-1.55,8.93-1.03,6.17-2.07,12.34-3.12,18.51-1.07,6.94-2.46,13.82-4.18,20.63-1.05,4.73-2.1,9.46-3.15,14.2-2.3,10.38-5,20.66-8.11,30.83l4.29.14c-1.06-5.39-2.11-10.75-3.64-16.03-1.91-6.61-4.35-13.04-7.18-19.31-2.27-5.04-4.81-9.91-7.61-14.69-3.1-5.3-6.65-10.3-10.1-15.37-7.38-10.83-13.61-22.44-23.01-31.76-7.27-7.2-17.16-12.41-27.63-10.96-1.83.25-3.65.59-5.45,1.02-3.18.76-6.05,1.98-8.93,3.5-1.86.98-3.76,1.96-5.4,3.29-1.77,1.76-3.54,3.51-5.31,5.27-2.53,2.74-4.72,5.72-6.57,8.94-11.17,17.91-13.47,40.39-8.63,60.74,1.78,7.48,4.52,15.1,8.32,21.8,5.24,9.24,12.01,17.52,19.67,24.84,18.7,17.87,42.21,29.22,66.7,36.9,11.37,3.56,22.93,6.51,34.31,10.02,7.32,2.26,14.55,4.79,21.58,7.84,5,2.17,9.73,4.65,14.6,7.15l-.96-.56c5.44,3.23,10.83,6.4,15.78,10.38s8.83,7.9,12.83,12.41l-.65-.88c1.37,1.84,2.74,3.69,4.11,5.53l-.59-.92,3.34,5.68-.53-.95c1.29,2.28,2.26,4.69,2.89,7.22.8,2.27,1.24,4.62,1.3,7.05.08.79.46,1.37,1.15,1.76.95.34,1.85.19,2.7-.45,1.44-.75,2.79-1.62,4.05-2.63.93-.52,1.43-1.28,1.51-2.28Z"/>
  <path class="cls-1" d="M242.87,979.41c-.07-1.85-.13-3.69-.2-5.54-.17-2.99-.89-5.82-2.17-8.49-1.28-3.21-2.76-6.4-4.63-9.32-3.03-4.72-6.48-9.09-10.35-13.14-12.74-13.33-28.7-22.49-45.65-29.4-23.53-9.6-48.98-13.37-72.58-22.81-6.93-2.77-13.61-6.2-20.02-10.01-6.17-3.66-12.22-7.71-17.64-12.44-4.22-3.68-8.22-7.6-11.93-11.8-2.76-3.1-5.23-6.41-7.41-9.94-2.37-3.38-4.43-6.95-6.16-10.71l.69,1.56-2.91-7.46.6,1.57c-1.89-6.25-3.49-12.31-4.12-18.84-.61-6.3-.58-13.09.43-19.35,1.01-6.27,2.54-12.54,5.24-18.31.96-1.87,1.91-3.75,2.87-5.62,2.11-3.66,4.59-7.06,7.45-10.18l-1.73,1.68,6.3-6.13-4.62,3.31c5.85-4.39,12.45-7.18,19.81-8.39-2.1.21-4.2.42-6.3.63,7.39-.9,14.1.4,20.15,3.9,6.94,4.12,13.08,9.31,18.41,15.57,3.6,4.04,6.93,8.3,9.99,12.76,2.19,2.93,4.41,5.84,6.66,8.73,6.42,8.74,12.07,18,16.56,27.88,4.51,9.93,7.48,20.15,9.87,30.75.12,1.15.7,1.86,1.75,2.14,1.06-.24,1.67-.93,1.83-2.08,2.17-10.05,3.56-20.19,4.18-30.45.26-5.95,1.26-11.75,3-17.41,3.47-13.21,6.69-26.48,10.34-39.65l-.35,1.11c1.24-3.73,2.48-7.47,3.72-11.2l-.39,1.13c5.28-11.85,11.13-23.33,19.94-32.98,3.47-3.8,7.32-7.46,11.65-10.28,1.71-1.03,3.43-2.06,5.14-3.1,3.5-1.86,7.17-3.3,11.01-4.31l-2.18.49c2.36-.4,4.73-.81,7.09-1.21l-2.19.32,7.24-.48-2.2.14c9.11,2.84,18.22,5.68,27.33,8.52l-5.53-3.6c3.05,2.16,6.11,4.31,9.16,6.47-1.76-1.38-3.52-2.76-5.28-4.14,4.9,6.8,9.8,13.6,14.7,20.41-.7-2.07-1.4-4.14-2.1-6.21,1.09,9.48,2.18,18.96,3.27,28.44l.2-8.77c-.39,4.47-.78,8.93-1.17,13.4.36-3.01.72-6.02,1.08-9.03-3.18,11.8-6.35,23.6-9.53,35.4l1.35-3.3c-1.48,3.08-2.95,6.16-4.43,9.23l1.68-3.23c-2.63,5.09-5.49,10.05-8.58,14.88-2.46,3.87-4.97,7.7-7.54,11.49-4.66,6.67-8.99,13.56-12.99,20.66-2.78,4.34-5.56,8.68-8.33,13.02-20.74,32.21-42.9,63.83-57.96,99.25-9.21,21.65-15.51,44.54-17.85,67.97-1.19,11.94-1.38,23.92-.17,35.87.69,6.91,1.82,13.74,3.41,20.5,1.62,6.89,3.72,13.63,6.3,20.22,1.33,3.8,5.12-2.62,5.56-3.29,1.93-3.05,3.71-6.18,5.37-9.38,1.15-1.65,1.76-3.46,1.84-5.42-1.48-6.28-2.95-12.52-3.8-18.92-.83-6.27-1.25-12.67-1.31-19-.14-14.31,1.65-28.59,4.69-42.55,6.7-30.79,19.66-59.69,34.84-87.18,10.23-18.53,21.27-36.6,31.94-54.88,9.19-15.74,18.39-31.58,25.99-48.17,8.04-17.54,14.52-36.36,13.82-55.89-.61,5.12-1.23,10.24-1.84,15.36,2.62-10.23,4.18-20.77,1.51-31.19-.99-3.89-3.1-8.12-5.43-11.43-1.91-2.72-4.13-5.29-6.59-7.52-9.77-8.88-23.21-13.39-36.34-13.09-26.77.61-46.25,22.68-56.95,45.25-2.24,4.72-4.45,9.53-6.12,14.48-2.81,8.31-4.66,16.96-6.71,25.48-1.16,5.14-2.53,10.23-4.12,15.25-1.81,4.22-2.79,8.6-2.92,13.13-.3,1.67-.4,3.34-.31,5.02.8,8.76.78,17.53-.05,26.31,1.4-2.63,2.79-5.25,4.19-7.88-3.66-10.4-7.86-20.46-13.49-29.98-6.3-10.64-14.07-20.22-22.31-29.4-2.04-2.27-4.13-4.43-6.26-6.61-.51-.52-1.02-1.04-1.53-1.56-.85-1-1.12-1.25-.81-.77.71,1.14-.06.3-2.33-2.54-1.29-1.51-2.65-2.96-4.08-4.34-2.25-2.25-4.58-4.37-7.12-6.28-4.44-3.33-9.28-5.73-14.76-6.75-3.26-.6-6.78-.57-10.08-.24-3.13.31-6.02,1.16-8.92,2.34-1.3.53-2.6,1.12-3.85,1.76-3.24,1.65-6.04,3.9-8.74,6.32-3.2,2.87-5.74,6.41-8.06,10.01-2.59,4.02-4.69,8.2-6.4,12.66-3.47,9.03-5.12,18.54-5.22,28.21-.15,14.12,2.92,28.17,8.86,40.99,4.87,10.5,12.07,20.03,20.16,28.27,8.54,8.7,18.46,16.16,28.93,22.37,11.8,7,24.45,12.36,37.46,16.62s26.12,7.64,39.14,11.54l-1.12-.35c3.16,1.05,6.33,2.1,9.49,3.15l-1.1-.41c3.21,1.2,6.43,2.39,9.64,3.59l-1.08-.45c3.18,1.42,6.35,2.84,9.53,4.26l-1.05-.49c4.88,2.76,9.93,5.31,14.56,8.48s9.14,6.99,13.4,10.96l-.77-.84,4.64,5.06-.72-.88c1.39,1.77,2.77,3.55,4.16,5.32l-.66-.92,3.64,5.6-.6-.96c1.7,2.97,3.04,6.09,4.02,9.36.49,3.41.54,6.83.13,10.26.03.89.48,1.43,1.35,1.61,1.4-.04,2.61-.58,3.63-1.62,1.98-1.45,3.86-3.03,5.64-4.73,1.2-.82,1.94-1.92,2.23-3.29Z"/>
  <path class="cls-1" d="M252.86,985.73c-.84-5.08-.93-6.14-2.75-11.06-1.92-5.19-4.15-10.08-7.26-14.69-7.34-10.9-17.19-20.23-28.23-27.37-11.73-7.58-24.52-13.18-37.69-17.73-9.51-3.28-19.38-5.67-29.11-8.19-9.22-2.39-18.36-4.92-27.44-7.78l.92.31c-8.53-3.17-16.96-6.44-24.89-10.98-6.27-3.6-12.25-7.57-17.88-12.12-5.39-4.36-10.59-9.15-14.94-14.57-1.65-2.18-3.3-4.36-4.95-6.54-3.1-4.48-5.75-9.21-7.96-14.2l.43,1.21c-.83-2.38-1.66-4.77-2.49-7.15l.36,1.23-1.84-7.34.29,1.24c-1.07-6.27-1.89-12.32-1.74-18.7.14-6.04.92-12.45,2.62-18.26,3.45-11.83,9.69-25.25,21.29-30.44,3.5-1.57,7.18-2.26,10.91-3.12l-4.25.66,5.42-.14-1.86-.03c2.23.24,4.43.65,6.6,1.23,2.69,1.09,5.35,2.25,7.98,3.48l-2-.95,4.89,2.9-2-1.22,5.09,3.24-1.94-1.49c8.2,5.96,15.46,12.98,21.77,21.07.79,1.1,1.58,2.2,2.37,3.3,2.18,3.05,4.47,6.02,6.87,8.9,2.46,3.25,4.75,6.61,6.86,10.09,4.36,6.9,8.09,14.07,11.22,21.6,1.63,3.72,3.05,7.53,4.24,11.42,1.64,5.17,2.96,10.41,3.97,15.73.24,1.09.55,2.62,2,2.16,1.69-.53,2.13-3.5,2.39-4.76,1.27-4.67,2.23-9.4,2.87-14.18,1.07-7.76,2.46-15.47,4.17-23.13,2.09-6.57,3.83-13.23,5.19-19.98,1.31-6.05,2.68-12.08,4.13-18.09,2.43-9.4,4.98-18.8,9.21-27.58,3.04-6.31,6.55-12.2,10.46-18.01l-.91,1.15,4.88-6.19-1.01,1.14c1.74-1.89,3.49-3.79,5.23-5.68l-1.12,1.12c1.87-1.71,3.73-3.43,5.6-5.14l-1.23,1.09c2.18-1.91,4.52-3.58,7.03-5.01,5.18-3.43,10.96-5.55,17.35-6.35-1.82.28-3.63.56-5.45.83,13.23,3.38,26.46,6.77,39.69,10.15-2.08-1.36-4.16-2.73-6.24-4.09,4.05,3.64,8.1,7.27,12.15,10.91-1.83-1.89-3.66-3.78-5.49-5.67,3.13,4.59,6.26,9.18,9.39,13.78l-4.11-7.26c1.76,3.94,3.52,7.88,5.28,11.82-1.04-2.59-2.07-5.18-3.11-7.77,1.23,4.15,2.46,8.3,3.69,12.45l-2.08-8.22c.75,4.32,1.5,8.64,2.25,12.97-.31-2.81-.63-5.62-.94-8.42.23,4.4.46,8.79.69,13.19.06-2.86.12-5.72.17-8.58-.7,7.08-1.39,14.17-2.09,21.25l1.51-7.16-3.03,11.78.81-2.94c-1.56,5.35-3.02,10.66-5.22,15.79-1.77,4.15-3.85,8.21-6.06,12.14-5.21,9.27-11.34,18.03-17.49,26.7-5.29,7.46-9.83,15.46-14.79,23.14-5.62,8.7-11.33,17.33-17.02,25.98s-11.39,17.47-16.88,26.34c-6.92,11.19-13.7,22.56-19.57,34.33-6.82,13.69-12.88,27.65-17.41,42.27-4,12.91-6.98,26.22-8.6,39.64-1.86,15.34-1.9,30.88.21,46.2.96,6.95,2.35,13.75,4.24,20.5,1.64,5.88,2.78,8.93,5.03,15.18.08.96.6,1.43,1.56,1.41,1.57-.42,2.86-1.3,3.86-2.64,2.08-2.06,4.04-4.23,5.88-6.5,1.24-1.13,1.99-2.5,2.24-4.11-1.99-6.01-3.9-11.98-5.34-18.16-1.78-7.63-2.68-15.49-3.15-23.3-.85-14.25.16-28.54,2.67-42.59,2.55-14.24,6.66-28.16,11.74-41.68,2.62-6.98,5.67-13.68,8.91-20.4,5.74-11.91,12.06-23.52,18.85-34.87,10.94-18.28,22.62-36.11,33.93-54.17,4.35-6.77,8.51-13.65,12.46-20.66,1.94-3.48,3.95-6.91,6.04-10.3,2.53-4.17,4.98-8.38,7.28-12.68,4.15-7.76,7.91-15.78,10.52-24.2,1.91-6.15,3.2-12.44,3.8-18.85.32-2.19.44-4.38.38-6.59.14-4.63-.29-9.23-1.29-13.8l.29,3.01c.18-2.51-.15-4.95-.98-7.3l-4.3-11.83c-1.95-3.59-5.19-7.01-8.31-9.65-3.83-3.24-8.14-5.9-12.8-7.78-9.89-4-20.53-5.02-30.94-2.8-6.87,1.46-13.17,5.08-18.77,9.2-7.01,5.15-12.83,12-17.56,19.25-3.71,5.69-6.94,11.95-9.54,18.21-3.62,8.73-6.12,17.79-8.23,26.99-2.28,9.94-4.07,19.97-6.88,29.78-1.53,5.22-2.97,10.47-4.31,15.74-.77,2.85-1.1,5.78-.99,8.78l.26-1.84c-.77,5.54-1.55,11.09-2.32,16.63l4.74-8.81c-1.99-5.56-3.96-10.94-6.47-16.3-2.83-6.05-6.12-11.82-9.75-17.41-8.97-13.8-20.14-25.98-32.81-36.46l4.5,4.54c-8.06-9.48-17.77-20.91-30.96-22.29-7.27-.76-15.19,1.33-21.41,5.18l-1.62,1.26c-1.5,1.46-3,2.91-4.51,4.37-1.38,1.54-2.74,3.15-3.99,4.8-3.52,4.66-6.29,9.88-8.39,15.31-5.85,15.07-6.45,31.94-2.88,47.64,3.6,15.86,12.84,30,24.27,41.4,16.16,16.13,36.79,26.71,58.41,33.44,13.62,4.24,27.6,7.17,41.28,11.19,11.41,3.35,22.69,7.5,33.23,13.04,9.05,4.75,17.53,10.61,24.83,17.78,3.29,3.23,6.35,6.59,9.07,10.33,1.4,1.77,2.65,3.64,3.76,5.6,1.8,2.63,3.22,5.45,4.29,8.47l-.32-.93c1.4,3.74,2.61,7.54,3.62,11.41l-.2-.97.72,4.75c.21,1.36,1.19,2.72,2.8,2.23.96-.61,1.78-1.38,2.45-2.32.76-.86,1.32-1.83,1.7-2.91Z"/>
  <path class="cls-1" d="M256.84,971.85c-.07-3.77-.73-7.44-1.98-11-.72-1.92-1.46-3.82-2.24-5.72-1.05-2.3-2.3-4.51-3.58-6.69-4.98-8.42-12.21-15.68-19.7-21.85-14.6-12.03-31.76-20.11-49.64-26-10.95-3.61-22.1-6.48-33.19-9.64-6.02-1.66-11.99-3.51-17.9-5.53-5.78-2.01-11.44-4.33-16.96-6.96l1.43.7c-3.12-1.6-6.24-3.19-9.36-4.79l1.43.74c-5-2.94-9.99-5.85-14.68-9.27-5.66-4.12-10.9-8.74-15.71-13.81-3.77-3.98-7.16-8.18-10.2-12.74-1.61-2.18-3.01-4.49-4.19-6.93-1.79-2.93-3.18-6.04-4.17-9.34l.96,3.18c-.91-3.06-1.83-6.11-2.74-9.17l.73,3.29c-.68-3.14-1.36-6.28-2.04-9.42l.47,3.37c-.44-3.2-.87-6.4-1.31-9.6.07,1.15.14,2.29.21,3.44-.43-7.46-.98-14.78.19-22.2.38-2.04.76-4.08,1.14-6.11.92-4.02,2.21-7.92,3.86-11.7l-1.58,3.19,4.32-8.68-1.88,3.02c1.72-2.73,3.44-5.46,5.16-8.19l-2.16,2.8c2-2.54,4-5.08,6-7.61l-2.42,2.54c2.27-2.32,4.54-4.63,6.81-6.95-2.22,1.7-4.45,3.4-6.67,5.1,3.27-2.28,6.54-4.56,9.81-6.85l-2.82,1.9c2.02-1.17,4.05-2.33,6.07-3.5l-2.98,1.58,6.37-2.86-3.06,1.23c2.19-.71,4.38-1.42,6.57-2.13l-7.66,1.74,11.2-2.05-7.68.86,12-.79c-2.45-.03-4.9-.05-7.34-.08,3.85.29,7.69.59,11.54.88l-6.97-1.05c11.75,2.97,21.41,8.78,28.99,17.42l-1.46-1.51c1.5,1.76,2.99,3.53,4.49,5.29l-1.27-1.55,4.23,5.48-1.1-1.58c3.03,4.41,5.74,8.82,8.58,13.34,2.54,3.41,4.96,6.9,7.28,10.46,2.37,3.42,4.54,6.96,6.52,10.62,3.92,7.26,7.45,14.78,10.07,22.61,2.61,7.82,4.42,15.73,5.92,23.84.19,1.01,1.72,1.57,2.59,1.36,1.45-.35,1.91-2.51,2.18-3.67,1.13-4.94,2.4-9.88,3.38-14.86.97-5.02,1.95-10.04,2.92-15.06.65-10.59,1.91-21.09,3.78-31.51,1.27-7.53,2.79-14.96,4.78-22.33.83-3.48,1.85-6.9,3.08-10.26,1.19-4.13,2.78-8.11,4.77-11.93l-.69,1.35c1.35-2.64,2.7-5.28,4.05-7.91l-.79,1.37c1.46-2.5,2.92-5.01,4.38-7.51l-.9,1.37c1.58-2.35,3.16-4.7,4.74-7.05l-1.01,1.34c1.7-2.18,3.41-4.36,5.11-6.54l-1.11,1.29c1.83-2,3.66-4,5.48-6l-1.2,1.23c1.95-1.81,3.9-3.61,5.85-5.42l-1.29,1.15c2.07-1.59,4.14-3.19,6.21-4.78l-1.37,1.05c4.96-3.08,10.32-6.39,16.11-7.68,4.13-.92,8.34-1.32,12.56-1.03,4.29.3,8.51.96,12.6,2.38l4.8,1.82c3.11,1.45,6.05,3.19,8.82,5.21l-1.77-1.45,5.6,4.83-1.56-1.51c1.68,1.77,3.35,3.55,5.03,5.32l-1.34-1.57c3.98,4.48,5.83,9.88,5.54,16.22,2.75,5.71,3.28,11.46,1.6,17.25-.75,5.82-2.3,11.44-4.63,16.86-.83,2.19-1.65,4.37-2.48,6.56-4.31,10.45-10.35,19.97-16.8,29.2-3.5,5.01-7.14,9.91-10.77,14.82-2.26,2.92-4.3,5.99-6.12,9.22-4.07,6.49-8.21,12.94-12.42,19.34-14.18,21.66-29.01,43.05-41.52,65.74-9.94,18.05-19.01,36.67-25.05,56.43-3.55,11.61-6.33,23.39-8.11,35.4-1.56,10.45-2.3,20.95-2.14,31.52.14,8.75.83,17.49,2.34,26.12.73,3.47,1.45,6.94,2.18,10.41,1.72,7.02,3.94,13.88,6.66,20.58.4.64.97,1.05,1.71,1.23.85.11,1.53-.21,2.03-.95,1.25-1.21,3.1-3.44,2.46-5.29-1.97-4.88-3.57-9.88-4.8-14.99-1.45-4.98-2.55-10.04-3.29-15.19l-1.25-10.2c-.6-6.8-.79-13.6-.57-20.42l-.05.99c.22-3.72.43-7.44.65-11.16l-.09.99c.41-3.7.81-7.4,1.22-11.1l-.12.99c1.34-8.36,2.82-16.62,4.91-24.83,1.66-6.5,3.57-12.89,5.75-19.23,6.14-17.84,14.32-34.84,23.49-51.31,11.4-20.47,24.35-40.03,37.01-59.72,5.57-8.66,11.05-17.36,16.47-26.11,3.8-6.13,7.87-12.02,11.92-17.97,5.66-8.33,11.19-16.75,15.58-25.83,3.95-8.17,6.95-16.79,9.27-25.56,1.84-6.95,2.69-14.34,1.9-21.5-.44-4.05-1.05-8.35-2.76-12.07-1.73-3.77-3.81-7.15-6.26-10.5-3.14-4.28-7.11-7.48-11.47-10.4-3.52-2.35-7.27-4.02-11.26-5.46-4.9-1.77-10.23-2.86-15.46-3.12l-6.39.15-6.36.67c-4.38.83-8.81,2.55-12.87,4.34-8.66,3.82-16.5,10.33-22.69,17.44-6.85,7.88-11.99,17.07-15.99,26.67-4.53,10.9-7.87,22.32-8.84,34.14l-.26,8.86c.31,3.05.62,6.11.93,9.16.17,11.21-.96,22.24-3.4,33.09-1.41,7.41-3.02,14.78-4.83,22.1l4.77-2.32c-1.79-8.48-3.73-16.82-6.85-24.94-2.62-6.82-5.64-13.43-9.16-19.83s-7.64-12.6-11.94-18.63c-2.34-3.09-4.61-6.23-6.82-9.42-1.47-2.16-3.03-4.27-4.66-6.31-2.97-3.71-6.15-7.16-9.58-10.45-1.35-1.44-2.83-2.71-4.46-3.82-2.33-1.86-4.76-3.57-7.29-5.15-2.85-1.2-5.71-2.39-8.56-3.59-1.68-.84-3.46-1.29-5.34-1.35-2.88-.52-5.79-.74-8.73-.65l-5.58,1.03c-9.99,2.3-18.42,9.84-23.66,18.45-3.41,5.59-6.16,11.5-7.97,17.81-1.67,5.84-2.46,11.85-2.78,17.9-1.26,24.22,8.52,48.64,24.91,66.32,17.42,18.79,39.85,31.4,63.61,40.39,15.95,6.04,32.47,10.64,48.16,17.36,5.78,2.48,11.55,5.08,17.11,8.01,3.85,1.54,7.2,3.76,10.05,6.64,1.99,1.92,4.09,3.71,6.3,5.37,7.04,6.27,13.2,13.32,18.07,21.42,2.51,4.17,4.86,9.07,6.03,13.82.32,1.57.64,3.13.96,4.7.7,3.06.96,6.15.78,9.28.06,4.04,5.66-1.14,6.09-1.52,2.58-2.32,5.05-4.76,7.41-7.3,1.5-1.24,2.53-2.76,3.08-4.57Z"/>
  <path class="cls-1" d="M245.7,984.43c.25-3.96-.09-7.87-1.01-11.74-1.39-3.97-3.17-7.75-5.34-11.36-3.66-5.85-8.01-11.21-12.93-16.05-11.2-11.01-24.86-19.09-39.24-25.21-19.88-8.45-41-12.52-61.59-18.71-8.82-2.65-17.42-5.82-25.77-9.71-5.34-2.55-10.51-5.42-15.49-8.62-4.84-3.11-9.45-6.54-13.81-10.29l.95.86c-2.38-2.21-4.75-4.42-7.13-6.63l.91.88c-3.01-2.92-5.76-6.06-8.24-9.43-2.65-3.2-4.99-6.6-7.04-10.22-3.55-6.1-6.2-12.57-7.67-19.49-1.34-6.28-2.19-12.72-2.02-19.16.11-2.13.22-4.26.34-6.39.39-4.22,1.13-8.38,2.22-12.48l-.53,1.7,2.43-7.68-.63,1.65c1.02-2.46,2.05-4.92,3.07-7.37l-.73,1.59c1.24-2.34,2.48-4.68,3.72-7.01l-.84,1.53c1.53-2.7,3.33-5.2,5.39-7.5,1.9-2.45,4.05-4.67,6.46-6.65l-3.94,2.87c6.33-2.38,12.66-4.76,19-7.15l-1.92-.15,5.8.76-1.93-.33c1.76.43,3.51.86,5.27,1.28l-1.94-.55c2.85,1.04,5.61,2.28,8.29,3.72l-1.92-1.01c1.64,1.03,3.28,2.05,4.92,3.08l-1.9-1.24,4.92,3.35-1.84-1.48c5.39,4.04,10.14,8.75,14.25,14.15,5.98,5.93,11.47,12.29,16.45,19.08,3.99,5.47,7.71,11.09,11.03,17,3.3,5.87,6.32,11.97,8.69,18.28,2.87,7.62,4.95,15.36,6.74,23.31.04,1.22.6,2.01,1.67,2.38,1.11-.26,1.74-.99,1.9-2.2,2.36-10.02,3.8-20.18,4.32-30.45.98-7.58,2.89-14.92,5.7-22.03,4.3-14.96,6.5-30.6,12.25-45.14,3.48-8.8,8.06-17.46,13.64-25.12,2.5-3.47,5.27-6.72,8.3-9.74,2.87-2.85,5.98-5.4,9.35-7.65l-1.55.98c2.2-1.32,4.4-2.63,6.6-3.95l-1.64.89c2.31-1.08,4.61-2.16,6.92-3.25l-1.74.79c6.51-.83,13.01-1.66,19.52-2.48l-5.83-.42c4.99.8,9.97,1.59,14.96,2.39-2.02-.48-4.03-.96-6.05-1.45,10.33,8.63,20.66,17.27,31,25.9l-2.64-6.8c1.64,8.17,3.27,16.33,4.91,24.5-.24-3.09-.49-6.17-.73-9.26l.22,13.95c.13-3.14.25-6.29.38-9.43l-1.24,14.08c.49-3.19.98-6.38,1.47-9.57-1.15,8.1-2.8,16.09-4.93,23.98l.94-3.41c-1.1,3.22-2.21,6.43-3.31,9.65l1.3-3.33c-1.35,3.14-2.71,6.27-4.06,9.41l1.65-3.2c-2.49,5.14-5.2,10.15-8.12,15.05-2.36,3.92-4.81,7.78-7.35,11.59-2.9,4.38-5.87,8.72-8.92,13-5.28,8.86-10.76,17.59-16.42,26.21-19.93,30.78-41.08,61.07-56.09,94.68-9.54,21.37-16.36,44.2-19.25,67.46-1.69,13.6-2.03,27.4-.63,41.04.7,6.93,1.85,13.78,3.46,20.55,1.64,6.91,3.77,13.66,6.38,20.27.09,1.07.66,1.48,1.71,1.23,1.75-.89,3.14-2.2,4.17-3.93,2.24-2.84,4.34-5.77,6.32-8.8,1.31-1.53,2.11-3.26,2.4-5.21-1.61-6.05-3.14-12.05-4.22-18.22-1.33-7.6-1.81-15.39-1.9-23.1-.14-12.51,1.12-24.94,3.46-37.23,2.68-14.05,6.75-27.78,11.78-41.16,6.89-18.32,16.04-35.76,25.7-52.74,10.54-18.54,21.89-36.6,32.81-54.92,9.45-15.85,18.85-31.87,26.4-48.73,3.08-6.87,5.76-13.94,7.75-21.21,1.45-5.28,2.5-10.6,3.14-16.04.62-5.28.64-10.39.25-15.68-.05,1.14-.11,2.27-.16,3.41.59-3.53.7-7.05.32-10.58-.08-2.63-.49-5.21-1.24-7.75-1.34-4.74-3.77-9.64-6.95-13.42-3.6-4.28-7.77-7.56-12.5-10.49-9.48-5.89-21.93-7.97-32.92-6.54-17.96,2.34-32.09,15.45-41.82,29.98-3.88,5.8-7.09,12.34-9.84,18.74-3.77,8.77-6.22,18.02-8.43,27.28-.87,3.79-1.74,7.57-2.61,11.36-1.6,7.67-3.99,15.09-7.17,22.25-.75,2.56-1.5,5.11-2.25,7.67.03,3.29.19,6.58.49,9.87l-.12-2.25-.92,17.69c1.27-3.39,2.55-6.79,3.82-10.18-2.74-7.34-5.71-14.54-9.55-21.39-3.41-6.07-7.16-11.89-11.34-17.47-7.72-10.31-16.6-19.6-26.23-28.14l5.39,5.44c-3.39-4.23-6.97-8.32-10.86-12.1-4.88-4.74-10.45-8.93-17.05-10.82-8.71-2.5-17.61-.16-25.34,4.15-7.82,4.36-13.21,12.32-17.44,20-3.88,7.05-6.16,15.07-7.37,22.98-1.56,10.17-1.41,20.87.77,30.95,2.13,9.79,5.61,19.04,10.94,27.55,4.92,7.86,11.04,15.02,17.73,21.41,9.78,9.34,21.17,16.9,33.23,22.95,10.9,5.47,22.35,9.44,34.09,12.68,13.37,3.69,26.96,6.64,40.16,10.96,9.89,3.24,19.46,7.22,28.5,12.38,8.35,4.76,15.98,10.69,22.51,17.75,2.85,3.09,5.35,6.37,7.62,9.91,2.65,4.15,4.41,8.33,6.13,12.96l-.06-1.11.29,6.82.04-1.14c-.16,2.32-.32,4.64-.48,6.96.22.78.72,1.27,1.51,1.47,1.08.06,1.99-.35,2.72-1.22,1.82-1.44,4.91-4.02,4.88-6.57Z"/>
  <path class="cls-1" d="M253.83,968.4c-.07-3.78-.71-7.46-1.92-11.04-.69-1.93-1.45-3.84-2.26-5.73-1.03-2.31-2.31-4.5-3.57-6.69-3.19-5.53-7.67-10.46-12.14-14.99-2.62-2.65-5.42-5.05-8.3-7.4-14.59-11.88-31.89-19.76-49.68-25.54-11-3.58-22.19-6.42-33.31-9.56-6.03-1.65-12.01-3.49-17.92-5.51-5.78-2-11.43-4.32-16.95-6.96l1.37.68c-3.1-1.59-6.19-3.18-9.29-4.77l1.36.71c-7.43-4.39-14.76-8.85-21.3-14.52-5.22-4.54-10.04-9.4-14.35-14.83-4.2-5.29-7.96-10.98-10.84-17.11-1.25-2.86-2.27-5.8-3.05-8.81-.95-2.99-1.66-6.05-2.13-9.16-1.59-10.44-1.36-20.89.98-31.2,1.32-5.83,3.74-12.14,6.84-17.26,1.13-1.73,2.26-3.47,3.39-5.2,2.49-3.41,5.34-6.5,8.53-9.27l-2.1,1.49,5.43-3.23-2.15,1.21c1.86-.94,3.72-1.88,5.58-2.82l-2.19.94,5.81-2.14-2.17.7c1.97-.51,3.94-1.01,5.9-1.52l-2.14.45,5.78-.65-5.05.14c4.17.38,8.34.77,12.5,1.15l-4.7-1.51c4.44,1.94,8.87,3.89,13.31,5.83l-3.45-2.19c3.42,2.57,7,5.04,10.06,8.05,3.74,3.68,6.87,7.97,9.91,12.22,2.41,3.36,4.69,6.69,6.79,10.25.77,1.29,1.53,2.59,2.28,3.9,1.83,3.31,3.96,6.43,6.4,9.35l-.53-.77c1.66,2.52,3.32,5.05,4.98,7.57l-.48-.79c1.49,2.62,2.99,5.23,4.48,7.85l-.44-.81,4.06,8.06-.39-.82,3.59,8.25-.35-.84c1.04,2.81,2.08,5.62,3.12,8.43l-.31-.85c1.33,3.82,2.44,7.69,3.31,11.64,1.03,3.9,1.82,7.84,2.37,11.84.23,1.28,1.04,1.76,2.35,1.8,1.49.05,1.83-.68,2.2-2.06,1.55-5.51,3.02-11.03,4.42-16.58,2.19-7.89,3.81-15.9,4.86-24.01,1.55-9.96,2.97-19.94,4.24-29.94,1.3-7.61,2.92-15.15,4.85-22.63l-.22.94c1.12-3.61,2.25-7.22,3.37-10.83l-.34,1c1.35-3.42,2.87-6.77,4.57-10.02,1.71-3.58,3.62-7.04,5.73-10.4l-.62,1.07c1.49-2.23,2.98-4.46,4.46-6.7l-.71,1.05c2.67-3.42,5.31-6.84,8.41-9.9,3.68-3.63,7.76-6.78,12.22-9.4,3.52-2.07,7.13-3.68,11.02-4.89,1.75-.73,3.58-1.13,5.48-1.2,2.6-.4,5.21-.53,7.84-.41l-1.73-.22,6.91.87-1.61-.31,6.78,1.44-1.49-.42,6.46,2.16-1.37-.48c2.07.89,4.14,1.79,6.21,2.68l-1.25-.54c4.65,2.18,8.39,5.49,11.21,9.92,3.67,2.42,6.19,5.58,7.55,9.49,1.7,3.48,2.6,7.21,2.71,11.18-.06,1.75-.12,3.49-.17,5.24-.66,9.95-4.25,19.36-7.78,28.64-1.99,5.21-4.34,10.23-7.11,15.07-4.09,7.15-8.83,13.91-13.68,20.56-3.33,4.57-6.89,9.02-10.08,13.68-2.89,4.61-5.78,9.21-8.68,13.82-4.15,6.43-8.35,12.83-12.59,19.19-7.08,10.67-14.23,21.31-21.03,32.16-5.55,8.84-10.96,17.77-16.1,26.86-3.97,6.93-7.62,14.01-10.96,21.26-2.7,5.34-5.14,10.8-7.32,16.38-5.59,14.3-10.04,28.99-12.95,44.08-3.3,17.05-4.51,34.4-3.09,51.72.72,8.8,2.04,17.55,4.19,26.13,1.78,7.09,4.23,13.76,6.76,20.61.39,1.05,1.56,2.41,2.86,2.15.9-.18,2.96-2.47,2.6-3.47-1.32-3.62-2.64-7.24-3.96-10.86l.29.81c-1.68-5.01-3.01-10.1-3.97-15.29-.83-3.38-1.43-6.8-1.8-10.26-1.2-8.53-1.78-17.11-1.67-25.73.22-17.06,2.85-34.25,7.44-50.68,5.08-18.17,11.96-35.73,20.6-52.5,11.91-23.1,25.89-44.99,40.03-66.77,5.54-8.54,11.11-17.06,16.55-25.66,2.85-5.26,6.06-10.28,9.61-15.07,1.36-1.88,2.72-3.77,4.07-5.65,5.18-7.21,10.3-14.48,14.92-22.07,3.03-4.98,5.78-10.11,8.03-15.49,1.81-4.33,3.34-8.79,4.98-13.18,3.19-8.54,5.03-17.66,4.55-26.8-.2-3.74-.48-5.42-2.02-9.36-1.31-3.37-2.87-6.75-4.93-9.74-3.64-5.29-8.61-9.6-13.97-13.03-5.24-3.36-10.86-5.29-16.81-6.95-3.52-.98-7.15-1.25-10.78-1.44-5.07-.27-10.86.32-15.68,1.87-15.72,5.07-29.06,17.04-37.36,31.2-2.33,3.98-4.38,8.1-6.21,12.33-2.4,5.55-4.01,11.14-5.12,17.05-1.01,4.63-1.6,9.32-1.77,14.06-.15,3.38-.31,6.76-.46,10.13-.98,8.46-1.96,16.92-2.94,25.38-3.03,15.4-6.64,30.66-10.85,45.78,1.52-.09,3.04-.17,4.56-.26-1.05-5.71-2.02-11.51-3.75-17.08-1.19-3.85-2.39-7.64-3.81-11.42-2.51-6.68-5.5-13.14-8.92-19.41-1.95-3.57-4.07-7.01-6.35-10.37-2.08-3.07-5.21-7.08-7.03-9.95-2.18-3.45-4.19-7-6.49-10.39-1.44-2.12-2.91-4.21-4.41-6.28-2.83-3.9-6.06-8.09-9.55-11.39-2.6-2.46-5.41-4.77-8.32-6.85-1.81-1.3-3.87-2.24-5.92-3.13-2.29-1-5.06-2.2-7.54-2.57-4.58-.69-9.3-.57-13.88.07-2.35.46-4.57,1.24-6.67,2.35-2.27.97-4.44,2.15-6.5,3.52l-3.79,3.1c-2.35,1.78-4.32,3.9-5.91,6.37-7.44,9.83-11.73,21.39-13.19,33.6-1.53,12.75-.15,26.11,4.17,38.24,1.91,5.37,4.23,10.53,7.03,15.5,3.36,5.97,7.49,11.41,11.96,16.6,5.49,6.37,12.24,12.38,19.03,17.32,4.92,3.58,10.01,7,15.32,9.97,10.78,6.03,22,11.09,33.63,15.25,14.46,5.17,29.29,9.38,43.53,15.17,7.22,2.94,14.37,6.03,21.18,9.84,2.93,1.32,5.54,3.1,7.84,5.34,1.54,1.1,3.08,2.2,4.62,3.3,4.5,3.36,8.82,7.27,12.66,11.36,4.02,4.28,7.41,8.87,10.77,13.7l-.65-.95c2.07,3.69,4.04,7.28,5.3,11.35.55,1.49.94,3.03,1.19,4.6.59,2.28.82,4.6.7,6.96.16,3.33,4.15.67,5.3-.07,2.24-1.54,4.39-3.21,6.44-5,1.34-.85,2.23-2,2.67-3.46Z"/>
  <path class="cls-1" d="M244.72,971.92l-1.03-5.05-1.9-5.18c-1.95-5.07-4.39-9.74-7.54-14.14-3.48-4.87-7.41-9.23-11.74-13.34-7.66-7.28-16.59-13.21-25.91-18.12-10.37-5.47-21.22-9.75-32.41-13.25-13.99-4.37-28.32-7.55-42.34-11.81-11.66-3.54-22.93-8.03-33.63-13.87-6.34-3.46-12.33-7.6-17.96-12.11-2.27-1.69-4.41-3.54-6.4-5.54-3.14-2.77-6.04-5.78-8.7-9.03l.84,1.04c-1.96-2.53-3.93-5.06-5.89-7.6l.78,1.06c-3.22-4.5-6-9.26-8.33-14.28-.72-1.99-1.44-3.99-2.16-5.98-2.38-7.2-3.43-14.81-3.59-22.37-.14-6.57.49-12.97,2.01-19.36.65-3.17,1.58-6.26,2.81-9.27,1.56-4.01,3.52-7.82,5.87-11.43l-.73,1.06,4.61-6.35-.74.94c3.19-4.21,7.12-7.58,11.8-10.11,1.73-.77,3.53-1.35,5.38-1.74,4.02-1.15,8.17-1.28,12.44-.38,2.18.52,4.22,1.35,6.13,2.5,8.56,4.58,14.87,12.71,20.45,20.47,1.84,2.6,3.59,5.26,5.24,7.98,1.69,2.6,3.32,5.24,4.89,7.92,3.29,4.8,6.8,9.41,9.93,14.32,4.15,6.54,7.6,13.55,10.67,20.66,4.16,9.63,6.73,19.64,8.82,29.89.22,1.06.52,1.8,1.67,2.01.63.12,2.07.05,2.3-.8,1.49-5.54,3.07-11.1,4.46-16.67,1.34-5.35,2.99-11.57,3.99-16.99.71-5.05,1.43-10.11,2.14-15.16l4.49-23.04c2.12-9.22,4.58-18.37,7.7-27.3,3.39-9.71,8.1-18.9,14.07-27.28,2.55-3.58,5.29-6.91,8.38-10.03,1.4-1.55,2.93-2.96,4.59-4.23,2.27-2.03,4.72-3.82,7.35-5.36l-.81.46c2.02-1.08,4.03-2.15,6.05-3.23l-.83.42,5.46-2.16c6.41-.26,12.81-.51,19.22-.77l4.86,1.2c4.6,1.24,8.65,3.54,12.16,6.9,3.78,1.55,6.8,3.92,9.05,7.1,1.1,1.19,2.01,2.5,2.73,3.95,2.09,3.56,3.3,7.25,4.51,11.2l-.13-.92.5,5.58-.06-.96c0,3.29-.19,6.56-.53,9.83l.12-1.06-.96,5.2.23-1.12c-.4,1.76-.8,3.52-1.2,5.28l.34-1.17c-1.03,2.98-1.92,6-2.68,9.06-2.15,7.64-5.07,14.94-8.77,21.89-5.19,10.09-11.56,19.43-17.93,28.78l1.25-1.77c-4.82,6.5-9.21,13.28-13.17,20.34-4.09,6.49-8.24,12.95-12.44,19.38-8.46,13.02-16.99,26.01-25.12,39.24-13.36,21.73-25.87,44.31-34.45,68.41-6.85,19.25-11.3,39.25-12.96,59.63-.85,10.36-.59,20.78.34,31.12.69,7.01,1.84,13.94,3.44,20.8,1.64,7.01,3.77,13.87,6.39,20.57.48.66,1.12.94,1.93.85,1.06-.35,1.77-1.08,2.15-2.18.88-1.62,1.62-3.3,2.22-5.05.56-1.03.61-2.05.15-3.06-2.1-6.71-3.71-13.54-4.85-20.48-1.1-6.78-1.77-13.59-2.01-20.45-.49-13.48.65-26.99,2.99-40.26,2.31-13.13,5.83-26.03,10.22-38.61,2.19-6.21,4.56-12.36,7.1-18.44,3.41-7.81,7.06-15.52,10.94-23.11l-.67,1.27c4.81-9.36,9.89-18.57,15.22-27.64,5.29-8.99,10.67-17.91,16.16-26.78,5.43-8.78,10.82-17.58,16.17-26.41,5.3-8.74,10.45-17.56,15.45-26.47,7.68-13.14,15.88-26.29,21.43-40.52,1.32-3.61,2.59-7.24,3.82-10.88.66-1.55,1.21-3.14,1.66-4.76,1.8-6.22,3.14-12.53,3.11-19.05-.05-11.22-5.53-22.43-14.21-29.53-8.27-6.75-17.98-11.01-28.69-12.07-2.14-.22-4.29-.31-6.44-.26-3.83-.08-7.53.57-11.1,1.97-4.32,1.46-8.08,3.43-11.99,5.73-7.35,4.32-13.61,10.83-18.68,17.6-5.69,7.58-10.29,16.15-13.63,25.01-5.48,14.52-7.1,29.92-9.86,45.07-1.88,9.46-3.92,18.87-6.13,28.26-2.17,9.09-4.83,18.04-7.98,26.84l3.97,1.21c-1.18-5.15-2.36-10.28-3.97-15.32-2.02-6.3-4.52-12.42-7.37-18.39-2.25-4.71-4.73-9.26-7.42-13.72-3.11-5.16-6.63-10.05-10.04-15.02-3.59-5.25-6.74-10.77-10.35-16.01-3.73-5.42-7.81-10.77-12.49-15.42-5.14-5.11-11.31-9.22-18.48-10.65-3.29-.66-6.43-.54-9.74-.09-4.97.68-10.42,2.3-14.78,4.92-1.83,1.61-3.66,3.22-5.49,4.83l-.74.82c-2.56,2.84-4.86,5.57-7,8.73-11.69,17.25-14.97,39.19-11.21,59.51.89,4.81,2.21,9.64,3.89,14.24,1.85,5.08,4.27,10.09,7.24,14.62,4.42,6.74,9.3,12.99,14.96,18.74,18.18,18.47,41.67,30.35,66.35,37.6,11.54,3.39,23.3,5.96,34.9,9.09,7.58,2.04,15.05,4.4,22.35,7.26,5.29,2.07,10.41,4.34,15.57,6.74l-.96-.52c2.12,1.15,4.25,2.29,6.37,3.44,15.14,7.19,25.66,17.67,31.56,31.45.77,1.59,1.47,3.21,2.12,4.86,1.03,2.17,1.7,4.45,2.03,6.85.41,1.7,1.74,2.29,3.26,1.64,1.27-.54,3.96-2.08,3.61-3.81Z"/>
</svg>