<?xml version="1.0" encoding="UTF-8"?>
<svg id="Lag_1" data-name="Lag 1" xmlns="http://www.w3.org/2000/svg" viewBox="0 0 595.28 1062.2">
  <defs>
    <style>
      .cls-1 {
        fill: #73b73b;
      }

      .cls-1, .cls-2 {
        opacity: .11;
      }

      .cls-2 {
        fill: #f29ac0;
      }
    </style>
  </defs>
  <g>
    <path class="cls-2" d="M57.46,208.86c-10.06,11.27-20.08,22.53-29.27,34.54-9.43,12.32-18.24,25.19-26.02,38.63-11.76,20.32-20.97,41.92-26.88,64.65-2.08,8.01-3.58,16.34-4.57,24.55-1.62,13.47-1.85,27.2-.08,40.67,1.47,11.16,4.32,22.35,9.06,32.58,5.53,11.96,13.72,22.43,23.51,31.2,13.06,11.7,28.6,20.18,45.06,26.07,22.09,7.9,45.44,10.47,68.81,10.42,31.31-.07,62.33-5.1,93.62-5.73,12.49-.25,24.96.22,37.32,2.15,5.93.92,11.74,2.18,17.5,3.86,2.85.72,5.63,1.64,8.34,2.78,4.12,1.42,8.1,3.18,11.94,5.26l-1.87-1.05c3.12,1.81,6.23,3.63,9.35,5.44l-1.82-1.15c3.92,2.84,7.74,5.68,11.34,8.92,4.46,4.01,8.4,8.63,11.98,13.42,6.46,8.64,11.82,18.36,15.31,28.6,3.12,9.15,5.23,18.66,5.84,28.32.39,6.27.04,12.51-.58,18.75-.8,7.93-2.58,15.42-4.45,23.19l.55-2.26c-1.03,3.48-2.07,6.97-3.1,10.45l.71-2.22c-4.05,11.84-8.52,23.49-12.98,35.19-4.9,12.85-9.46,25.83-12.63,39.22-3.93,16.64-5.4,33.8-5.52,50.87-.14,20.34,1.63,40.7,4.64,60.81,2.02,13.5,4.6,26.99,8.31,40.13,1.86,6.61,4.06,13.13,6.51,19.54s5.56,13.29,9.05,19.38c3.53,6.17,7.28,11.97,11.48,17.71,2.01,2.74,4.38,5.33,6.56,7.93,1.23,1.49,2.56,2.89,4,4.2,3.51,3.8,7.28,7.34,11.29,10.63,10.74,8.8,22.37,16.51,34.82,22.68,13.66,6.77,27.9,12.1,42.63,16.02s30.4,6.48,45.89,7.93c38.76,3.63,77.59.1,116.23-3.27,15.58-1.36,31.16-2.7,46.82-2.36,6.69.15,13.31.62,19.93,1.54,3.26.33,6.47.9,9.64,1.7,4.77.89,9.44,2.16,14.01,3.83l-1.95-.85c2.46,1.1,4.92,2.2,7.38,3.31l-1.93-.93c2.41,1.26,4.82,2.51,7.24,3.77l-1.89-1.02,7.01,4.2-1.85-1.12c7.43,5.14,14.16,10.68,19.77,17.84,2.4,3.06,4.5,6.25,6.32,9.68,2.28,4.3,3.74,8.58,5.12,13.25l-.8-4.35,1.82,9.95-.44-4.42c.28,3.38.56,6.77.84,10.15l.59,2.19,1,.79,1.1-.64c.77-1.33,1.17-2.76,1.22-4.3.58-3.88.85-7.79,1.05-11.7.16-1.8.2-3.6.14-5.4.17-1.53-.03-3-.61-4.42-1.25-2.98-2.46-5.88-3.98-8.73s-3.11-5.51-4.95-8.09c-4.3-6.03-9.51-11.35-15.23-16.04-10.87-8.92-23.56-15.19-36.91-19.49-19.73-6.36-40.99-7.16-61.56-6.67-27.29.65-54.49,3.25-81.79,3.7-13.06.22-26.11,0-39.14-.92-13.04-.92-25.96-2.63-38.82-5.03-21.96-4.11-43.31-12.35-62.39-23.99-15.47-9.43-29.39-21.31-40.4-35.74-13.33-17.48-21.6-37.88-26.73-59.13-2.25-9.34-3.96-18.79-5.22-28.32-1.74-13.15-2.9-26.5-3.52-39.75-.61-12.81-.62-25.71.22-38.51.95-14.41,2.83-28.96,6.1-43.03,9.38-40.33,27.02-81.01,18.55-123.17-6.71-33.38-28.54-63.27-58.27-79.84-15.73-8.77-33.34-13.32-51.08-15.78-10.88-1.51-21.95-1.9-32.93-1.96-11.69-.06-23.36.18-35.03.73-15.4.72-30.84,1.71-46.26,1.44-13.59-.23-27.09-1.3-40.56-3.15l-6.08-.84c-2.39-.64-4.79-1.28-7.18-1.91-4.76-1.4-9.49-3.07-14.07-4.98-9.04-3.78-17.75-8.59-25.58-14.49-12.96-9.76-23.59-22.73-29.5-37.92-3.39-8.72-5.25-18.09-5.87-27.41-.72-10.82.86-21.65,1.91-32.4l-.14,1.28,1.89-11.93-.2,1.28c1.34-7.05,3.07-14.01,5.2-20.87,2.13-6.89,4.6-13.65,7.4-20.3,5.68-13.51,12.63-26.47,20.38-38.9,7.92-12.71,16.72-24.86,26.03-36.58,4.66-5.89,9.47-11.65,14.45-17.27,4.84-5,9.7-9.99,14.56-14.96,3.17-3.25-6.49-3.17-6.81-3.19-4.37-.15-8.74-.14-13.11.02-2.38-.18-4.65.19-6.81,1.1Z"/>
    <path class="cls-2" d="M59.45,200.66c-10.25,11.18-20.22,22.5-29.44,34.55-8.26,10.8-15.96,21.99-22.99,33.63-15.15,25.08-27.01,52.31-32.47,81.21-4.28,22.65-5.15,46.68.66,69.14,2.17,8.41,5.37,16.42,9.48,24.05,5.57,10.35,13.62,19.49,22.51,27.1,15.84,13.58,35.32,22.75,55.37,28.13,24.69,6.64,50.71,7.19,76.1,5.76,26.63-1.5,53.08-5.33,79.78-5.63,12.36-.14,24.84.64,37,2.94,5.85,1.08,11.6,2.56,17.24,4.44,5.53,1.84,10.87,4.14,16.02,6.87l-1.41-.8,8.87,5.23-1.37-.85c3.03,2.01,5.88,4.24,8.54,6.71,1.88,1.52,3.63,3.19,5.24,4.98,4.22,4.34,7.97,9.02,11.4,14.01,6.77,9.87,11.74,21.35,14.73,32.9,3.03,11.7,3.92,23.76,2.83,35.78-1.28,14.19-5.24,27.8-9.98,41.19-5.13,14.47-11.1,28.63-15.97,43.19-2.44,7.29-4.65,14.63-6.42,22.12-2.38,10.04-3.98,20.44-4.74,30.73-1.66,22.5-.73,45.18,2.04,67.56,2.23,18.03,5.04,36.22,10.1,53.71,1.91,6.62,4.06,13.17,6.51,19.61,1.84,4.88,3.97,9.63,6.4,14.23,2.25,4.76,4.81,9.35,7.7,13.76,9.59,14.57,21.57,27.59,35.65,37.94,26.86,19.74,58.43,31.88,91.15,37.56,22.3,3.87,44.85,5.14,67.46,4.73,22.79-.41,45.49-2.35,68.18-4.4,17.8-1.6,35.61-3.43,53.5-3.04,8.3.18,16.61.77,24.8,2.23l9.52,2.06c5.13,1.13,10.01,2.9,14.64,5.32l-1.46-.73c2.25,1.2,4.51,2.41,6.76,3.61l-1.43-.78c5.16,3.17,10.21,6.41,14.7,10.52,3.67,3.35,7.03,6.94,10.02,10.9s5.57,7.98,7.45,12.42l2.06,5.34c1.19,3.63,1.98,7.35,2.37,11.15l-.22-2.87c.16,2.88.32,5.75.47,8.63.06,1.07.58,1.75,1.54,2.05,1.01-.05,1.68-.59,2.01-1.6.66-2.23,1.11-4.51,1.34-6.83.35-2.31.49-4.62.4-6.95-.88-4.11-1.74-8.09-3.23-12.03s-3.34-7.76-5.5-11.2c-3.99-6.34-8.75-12.03-14.26-17.12-8.51-7.85-18.27-13.9-28.87-18.55-2.94-1.29-5.91-2.49-8.94-3.55-6.21-2.16-13.34-3.41-19.9-4.39-13.49-2.01-27.3-2.26-40.9-1.66-29.98,1.32-59.8,4.97-89.81,5.85-17.6.52-35.13.18-52.64-1.72-13.11-1.42-26.1-3.43-38.85-6.88-24.94-6.74-49.16-18-69.09-34.61-8.65-7.21-16.38-15.44-22.96-24.58-6.81-9.46-12.2-19.62-16.68-30.37-5.08-12.21-8.45-25.24-11.05-38.18-2.82-14.07-4.4-28.34-5.73-42.62-.81-8.78-1.31-17.68-1.5-26.51-.19-8.77-.14-17.67.45-26.42.99-14.61,2.75-29.25,6.13-43.51,5.47-23.06,13.97-45.26,19.69-68.24,5.01-20.14,7.37-41.44,2.63-61.89-4.62-19.95-14.12-39.24-28.28-54.18-9.74-10.28-21.05-18.77-33.98-24.66-22.89-10.42-48.47-13.03-73.35-12.83-27.61.22-55.01,4.03-82.6,4.74-5.84.15-11.67.16-17.52,0-3.94-.22-7.88-.43-11.83-.65-4.24-.37-8.48-.74-12.72-1.1-10.42-1.47-20.66-4.24-30.52-7.88-11.26-4.15-21.94-10.1-31.35-17.53s-17.49-16.22-23.01-26.59c-4.95-9.32-8.11-19.21-9.92-29.6-.88-5.03-1.34-10.43-1.42-15.56-.11-6.88.76-13.71,1.41-20.54,3.05-32.19,14.82-62.74,30.99-90.56,7.66-13.19,16.35-25.74,25.52-37.92,4.58-6.08,9.39-12.05,14.28-17.89,7.04-8.42,14.61-16.25,22.31-24.07.67-.82.56-1.51-.34-2.08-1.82-.61-3.69-.68-5.61-.18-3.51.42-6.99.99-10.45,1.72-1.97.15-3.72.81-5.25,1.97Z"/>
    <path class="cls-2" d="M63.01,207.37c-5.01,5.47-10.08,10.91-14.91,16.53-5,5.82-9.78,11.84-14.47,17.91-10.67,13.81-20.37,28.42-28.84,43.68-7.57,13.63-14.03,27.8-19.03,42.58-4.39,12.98-7.8,26.43-9.42,40.06-1.63,13.69-2.03,27.39-.45,41.11,2.29,19.91,9.61,39.91,22.98,55.09,15.67,17.78,36.55,30.02,58.97,37.29,29.03,9.42,59.99,9.91,90.17,7.84,30.26-2.07,60.71-6.57,91.09-4.22,13.46,1.04,26.83,3.5,39.5,8.25,5.45,2.05,10.64,4.48,15.67,7.43,2.37,1.2,4.58,2.65,6.63,4.35,2.95,2.08,5.72,4.39,8.31,6.93l-1.64-1.68,6.67,6.85-1.53-1.77,6.16,7.3-1.4-1.86c1.88,2.57,3.76,5.14,5.64,7.71l-1.28-1.93,5.11,8.07-1.14-2,4.56,8.4-1-2.06c1.33,2.89,2.66,5.79,3.99,8.68l-.86-2.11c1.14,2.97,2.27,5.95,3.41,8.92l-.72-2.15,2.8,9.12-.58-2.19c.73,3.09,1.45,6.19,2.18,9.28l-.43-2.21c.51,3.13,1.03,6.26,1.54,9.39l-.28-2.22c.3,3.15.59,6.31.89,9.46l-.14-2.22c.07,3.16.14,6.33.21,9.49v-2.22c-.15,3.16-.31,6.32-.47,9.48l.16-2.2c-.38,3.58-.77,7.17-1.15,10.75l.31-2.17c-.64,3.52-1.29,7.03-1.93,10.55l.46-2.13c-.86,3.47-1.72,6.94-2.58,10.41l.6-2.09c-1.88,6.21-3.78,12.39-5.94,18.51-2.44,6.94-5.15,13.79-7.78,20.67-4.34,11.34-8.55,22.73-11.87,34.41-10.5,36.94-9.2,76.13-4.21,113.85,2.08,15.72,4.73,31.54,9.13,46.8,2.96,10.27,6.4,20.53,11.04,30.19,5.31,11.05,11.61,21.47,19.43,30.94,9.86,11.92,21.72,22.41,34.76,30.75,24.91,15.95,52.99,26.11,82.08,31.16,19.91,3.45,40.13,5.04,60.34,4.88,13.31-.1,26.61-.67,39.9-1.55,18.78-1.24,37.51-3.18,56.28-4.59,15.3-1.15,30.77-1.81,46.06-.17,6.46.69,12.98,1.77,19.27,3.39,5.04,1.3,9.98,2.94,14.65,5.24,4.5,2.21,8.78,4.83,12.85,7.75s7.7,6.19,11.34,9.69l-1.59-1.73c1.84,2.04,3.68,4.09,5.52,6.13l-1.48-1.81c1.67,2.16,3.34,4.32,5.01,6.48l-1.36-1.89,4.44,6.8-1.23-1.96c1.27,2.37,2.55,4.73,3.82,7.1l-1.08-2.03c1.66,3.45,2.95,7.02,3.88,10.73.93,3.74,1.44,7.53,1.55,11.38l.4,2.21.93.86,1.15-.53c.88-1.24,1.4-2.61,1.58-4.11.91-3.75,1.52-7.57,2.05-11.4.31-1.75.51-3.52.6-5.29.3-1.49.22-2.95-.23-4.4-1.41-4.35-3.23-8.53-5.46-12.53-2.2-3.95-4.73-7.67-7.59-11.18-5.71-7.05-12.59-13.12-20.1-18.19-14.05-9.48-30.53-15.68-47.15-18.66-23.73-4.26-47.85-2.99-71.78-1.71-16.2.87-32.39,2-48.6,2.5-8.53.29-17.07.38-25.6.28-8.91-.11-17.8-.5-26.69-1.19l1.29.08c-4.63-.45-9.26-.91-13.89-1.36l1.28.14-13.89-1.92,1.27.2c-4.71-.82-9.42-1.65-14.13-2.47l1.26.24c-3.34-.81-6.68-1.62-10.02-2.43l1.25.3c-3.31-.96-6.62-1.91-9.94-2.87l1.23.36c-3.27-1.1-6.54-2.2-9.81-3.3l1.21.43c-3.22-1.25-6.43-2.5-9.65-3.74l1.18.49-9.44-4.19,1.15.55-9.2-4.63,1.12.61c-2.97-1.69-5.95-3.39-8.92-5.08l1.08.68c-2.87-1.84-5.73-3.69-8.6-5.53l1.03.74-8.24-5.99.99.8c-2.62-2.15-5.23-4.3-7.85-6.45l.93.86-7.41-6.91.88.91-6.93-7.37.82.96c-2.13-2.61-4.27-5.22-6.4-7.83l.76,1.01-5.85-8.29.7,1.05c-1.85-3.03-3.7-6.07-5.55-9.1l.64,1.09c-3.06-5.48-5.76-11.13-8.08-16.96-2.34-5.88-4.37-11.87-6.09-17.96-3.51-12.32-5.95-24.98-7.61-37.68-3.74-28.71-5.3-57.71-2.52-86.58,1.43-14.89,4.43-29.45,8.43-43.84,3.39-12.17,7.31-24.19,10.74-36.35s6.48-24.52,8.02-37.11c1.33-10.91,1.45-21.77.06-32.67-5.28-41.47-33.23-78.01-71.68-94.27-22.02-9.32-45.87-12.29-69.62-12.77-13.12-.27-26.25.02-39.35.66-15.46.76-30.88,1.49-46.37,1.72h1.29c-4.13-.08-8.27-.15-12.4-.22l1.28.06c-6.02-.19-12.02-.59-18.01-1.19-5.88-.47-11.73-1.12-17.57-1.96l1.26.22-8.15-1.89,1.25.29c-2.7-.77-5.39-1.54-8.09-2.31l1.22.36-7.97-2.73,1.2.44c-2.6-1.05-5.21-2.11-7.81-3.16l1.17.51-7.61-3.58,1.13.59c-2.45-1.34-4.9-2.67-7.35-4.01l1.08.66-7.04-4.43,1.03.73c-2.23-1.62-4.46-3.24-6.69-4.85l.97.81-6.29-5.27.91.88c-1.94-1.9-3.89-3.79-5.83-5.69l.83.95-5.34-6.1.75,1.01-4.8-6.51.67,1.06-4.23-6.92.59,1.11c-1.22-2.45-2.44-4.91-3.65-7.36l.5,1.15-3.03-7.76.42,1.18-2.38-8.01.35,1.2c-1.51-7.08-2.76-13.99-2.97-21.25-.1-3.42,0-6.82.31-10.22.34-4.77.7-9.53,1.1-14.3,2.43-20.04,7.96-39.28,16.06-57.76,8.22-18.74,18.69-36.52,30.61-53.15,6.6-9.22,13.47-18.26,20.76-26.94,2.44-2.86,4.89-5.72,7.33-8.57,4.82-5.11,9.72-10.15,14.7-15.11,3.07-3.1-5.93-3.01-6.16-3.02-3.9-.04-7.8.07-11.69.34-2.15-.12-4.16.31-6.04,1.27Z"/>
    <path class="cls-2" d="M61.02,213.92c-7.23,8.53-14.77,16.86-21.65,25.67-8.37,10.71-16.43,21.59-23.76,33.04-16.95,26.49-30.24,55.44-36.44,86.39-5.51,27.52-6.03,57.21,4.03,83.81,5.91,15.63,15.71,29.11,28.23,40.05,9.14,7.99,19.37,14.35,30.3,19.6,21.17,10.17,44.39,14.91,67.73,16.31,33.06,1.99,65.83-3.23,98.74-5.24,14.2-.86,28.46-1.06,42.62.41,6.02.63,11.95,1.56,17.86,2.9,2.9.55,5.75,1.3,8.55,2.25,4.21,1.15,8.31,2.62,12.29,4.41l-1.51-.72,9.25,4.5-1.46-.79c2.94,1.75,5.87,3.5,8.81,5.26l-1.4-.88c5.77,4.37,11.27,8.8,16.04,14.3,3.14,3.63,6.05,7.45,8.73,11.44,7.43,11.04,12.46,23.82,15.15,36.81,1.24,5.98,2.02,12.04,2.16,18.15.15,6.36-.48,12.66-1.38,18.95-2.26,15.84-8.02,30.82-14.05,45.56-5.69,13.93-11.41,27.79-16.14,42.09-4.83,14.59-7.47,29.86-8.62,45.16-1.7,22.57-.06,45.26,2.73,67.67,2.47,19.79,6.26,39.58,12.31,58.59,5.32,16.71,12.64,32.61,22.87,46.89,8.33,11.62,18.32,21.6,29.58,30.36,9.54,7.43,19.93,14,30.81,19.3,15.77,7.69,32.44,13.77,49.56,17.66,20.45,4.65,41.28,6.92,62.22,7.66,23.02.81,46.14-.81,69.06-2.67,21.21-1.72,42.4-4.42,63.69-4.85,8.38-.17,16.88-.11,25.21.91,3.24.47,6.47.93,9.71,1.4,6.34,1.13,12.54,2.78,18.6,4.97l-1.56-.63c7.23,3.32,14.24,6.96,20.48,11.98,4.61,3.71,8.92,7.77,12.63,12.4,3.59,4.48,6.74,9.53,8.99,14.82,1.52,3.54,2.65,7.2,3.39,10.99.74,3.85,1.05,7.73.92,11.64.05,2.25,2.09,2.58,3.41,1.08.94-1.73,1.68-3.54,2.22-5.43.65-1.86,1.09-3.76,1.32-5.72-.26-3.54-.92-7-1.98-10.37-.79-3.37-1.93-6.63-3.44-9.77-1.73-3.79-4.33-8.29-6.85-11.7-3.03-4.1-6.33-7.76-9.94-11.34-4.8-4.75-10.44-8.67-16.18-12.19-5.61-3.44-11.91-6.3-18.08-8.59-16.31-6.05-34.04-7.62-51.31-7.77-19.75-.17-39.47,1.65-59.16,3-23.88,1.63-47.79,2.89-71.73,2.05-21.48-.75-43.07-3.04-63.95-8.29-9.11-2.29-18.26-5.07-27-8.5-2.92-1.19-5.84-2.39-8.76-3.58-6.14-2.67-12.13-5.63-17.98-8.88l1,.53-9.11-5.41.96.58-8.8-5.88.92.64c-2.81-2.13-5.62-4.26-8.43-6.39l.88.69c-2.67-2.31-5.34-4.61-8.02-6.92l.83.74-7.52-7.44.79.78c-3.35-3.47-6.4-7.18-9.15-11.12-3.04-3.91-5.78-8.03-8.2-12.36-3.23-5.72-6.1-11.63-8.69-17.66-3.86-8.99-6.88-18.67-9.28-28.15-2.03-8-3.77-16.05-5.22-24.17-3.78-21.14-6.18-42.6-6.34-64.08-.08-10.93.39-21.87,1.84-32.71.72-4.35,1.44-8.7,2.16-13.05,1.29-6.06,2.87-12.04,4.75-17.95l-.33.99c3.96-11.81,8.44-23.36,13.11-34.91s9.49-23.28,12.95-35.37c3.41-11.9,5.48-24.15,5.49-36.55,0-8.32-1.09-16.54-2.9-24.64-2.49-11.17-7.1-22.13-12.99-31.92-5.57-9.25-12.4-17.33-20.22-24.74-12.87-12.19-29.39-20.07-46.37-24.63-22.82-6.13-46.49-6.26-69.93-5.62-13.07.36-26.11,1.54-39.15,2.37-15.31.98-30.63,1.72-45.97,1.21-13.08-.43-26.09-1.43-38.89-4.24-10.45-2.29-20.37-5.71-30.3-9.64l1.04.43-8.06-3.72,1,.5c-2.62-1.39-5.24-2.77-7.85-4.16l.96.56c-2.53-1.55-5.06-3.1-7.59-4.65l.92.63-7.27-5.15.86.69c-2.29-1.89-4.59-3.78-6.88-5.68l.81.75c-2.14-2.07-4.27-4.14-6.41-6.22l.75.81c-1.95-2.25-3.91-4.51-5.86-6.76l.68.86c-1.75-2.44-3.5-4.88-5.25-7.32l.62.9c-2.22-3.33-4.11-6.83-5.66-10.51-1.76-3.56-3.22-7.25-4.35-11.06-1.55-5.09-2.77-10.27-3.73-15.5-1.61-8.75-2.1-18-1.73-26.85.4-9.7,1.47-19.29,3.3-28.83,3.62-18.92,10.04-37.07,18.41-54.4,4.19-8.67,8.8-17.13,13.84-25.34,6.03-9.84,12.72-19.21,19.55-28.51l-.56.73c2.53-3.25,5.06-6.51,7.59-9.76l-.56.72c7.23-8.78,14.64-17.36,22.1-25.93.31-.67.38-1.37.2-2.09-.24-.75-.77-1.16-1.58-1.25-1.06-.26-2.14-.37-3.24-.32-.81-.07-1.41.24-1.79.92Z"/>
    <path class="cls-2" d="M65.28,207.77c-2.63,2.67-5.26,5.34-7.88,8.01-3.83,4.22-7.53,8.54-11.11,12.97-6.14,7.45-12.14,15.04-17.72,22.91-10.18,14.35-19.46,29.26-27.28,45.04-15.54,31.36-25.22,66.31-23.64,101.53.64,14.21,3.31,28.29,8.74,41.47,4.04,9.79,9.62,19.24,16.87,27.02,4.99,5.36,10.23,10.28,16.07,14.69,6.02,4.55,12.35,8.46,18.99,12.03,11.77,6.31,24.68,10.69,37.66,13.67,23.35,5.37,47.44,5.73,71.27,4.49,29.82-1.56,59.44-6.24,89.36-5.44,7.7.21,15.38.95,22.98,2.15s14.67,2.69,21.66,5.15c5.47,1.93,10.79,4.19,15.94,6.86,7.06,3.66,12.67,8.36,18.51,13.64l-1.25-1.28,6.22,6.52-1.16-1.33,5.72,6.94-1.05-1.37c1.74,2.44,3.48,4.87,5.21,7.31l-.95-1.41c1.57,2.55,3.13,5.09,4.7,7.64l-.85-1.43c1.39,2.64,2.78,5.28,4.17,7.92l-.75-1.45c1.21,2.71,2.42,5.42,3.63,8.14l-.65-1.46c2.55,6.96,4.79,13.79,6.11,21.12,1.28,7.1,1.93,14.7,1.53,21.91-.37,6.78-1.22,13.51-2.63,20.16-1.79,8.47-4.4,16.67-7.37,24.79-5.75,15.72-12.65,31.01-18.07,46.84-2.99,8.72-5.83,17.55-7.62,26.61-2.15,10.88-3.4,21.87-3.96,32.94-1.26,24.91.96,49.79,4.67,74.42,1.52,10.1,3.45,20.3,5.96,30.21,2.54,10,5.39,19.98,9.33,29.53,3.34,8.08,7.13,15.87,11.65,23.36,4.56,7.55,9.75,14.57,15.56,21.19,9.09,10.35,20.29,19.47,31.9,26.92,34.84,22.35,75.75,32.67,116.77,35.23,22.6,1.41,45.29.71,67.86-.91,20.56-1.47,41.07-3.72,61.63-5.14,10.27-.71,20.56-.96,30.84-.54,4.97.17,9.91.65,14.82,1.45,4.85.56,9.63,1.48,14.35,2.75l9.2,2.84c3.66,1.55,7.19,3.34,10.61,5.36,5.18,3.13,9.86,6.73,14.46,10.66l-1.3-1.25,5.54,5.44-1.21-1.3,5.08,5.78-1.12-1.35c1.53,2.03,3.05,4.06,4.58,6.09l-1.02-1.39c3.11,4.96,6.07,9.92,7.8,15.56l1.5,5.58c.8,3.86,1.17,7.75,1.11,11.69.1,2.43,2.05,2.77,3.43,1.01.97-1.98,1.74-4.04,2.31-6.18.68-2.1,1.15-4.25,1.4-6.45-.79-4.59-1.49-9.26-3.12-13.65-.8-2.15-1.65-4.31-2.6-6.39-2.63-5.73-6.11-11.03-10.1-15.9-5.89-7.2-12.9-13.3-20.69-18.38-3.9-2.54-7.93-4.79-12.13-6.81-4.97-2.39-10.2-4.79-15.49-6.37-6.59-1.97-13.52-3.28-20.33-4.22s-13.68-1.44-20.52-1.66c-13.7-.44-27.39.43-41.04,1.36-18.38,1.26-36.73,2.86-55.13,3.75-8.58.42-17.16.68-25.75.72-11.13.06-22.14-.45-33.26-1.11l1.18.07c-4.67-.46-9.34-.92-14.01-1.38l1.17.12c-5.97-.59-11.89-1.45-17.78-2.59-4.97-.83-9.89-1.86-14.78-3.08l1.14.26c-3.39-.9-6.78-1.79-10.17-2.69l1.12.31c-3.36-1.04-6.72-2.08-10.07-3.12l1.1.36c-3.32-1.19-6.63-2.37-9.95-3.56l1.08.41c-3.26-1.34-6.52-2.67-9.78-4.01l1.06.46-9.58-4.48,1.03.51c-3.11-1.65-6.23-3.3-9.34-4.96l1,.56-9.05-5.45.96.61c-2.91-1.99-5.81-3.99-8.72-5.98l.92.66-8.34-6.48.89.71c-2.63-2.34-5.27-4.68-7.9-7.01l.84.75c-4.56-4.33-8.76-8.98-12.61-13.96-1.91-2.69-3.82-5.38-5.73-8.07-5.41-8.06-9.82-17.21-13.4-26.21-7.26-18.3-11.52-37.81-14.34-57.25-1.9-13.1-3.54-26.27-4.19-39.49-.65-13.14-.9-26.37.33-39.48.96-10.25,2.33-20.48,4.74-30.5,2.54-10.55,5.98-20.77,9.57-31.01l-.43,1.17c5.93-15.97,12.4-31.8,17.03-48.21,4.47-15.85,6.84-32.4,5.23-48.87-.83-8.51-2.77-16.73-5.34-24.87-.91-2.89-2.08-5.7-3.18-8.53-1.58-3.87-3.42-7.6-5.52-11.2-1.94-3.7-4.13-7.25-6.58-10.64-8.22-11.38-18.1-21.01-29.72-28.9-3.58-2.49-7.35-4.61-11.33-6.37-4.26-2.21-8.68-4.08-13.25-5.6-9.01-3.03-18.26-5.35-27.67-6.68-37.98-5.4-76.3-.08-114.31,2.06l1.19-.06-12.49.37h1.19c-6.09.12-12.17.02-18.25-.31-6.09-.2-12.16-.58-18.23-1.14l1.17.12-8.47-1.2,1.16.18-8.49-1.6,1.14.24-8.47-2.01,1.12.3-8.41-2.43,1.1.36-8.32-2.86,1.07.42c-2.73-1.1-5.45-2.21-8.18-3.31l1.04.48-7.99-3.78,1,.54c-2.58-1.43-5.17-2.86-7.75-4.29l.96.6-7.46-4.77.92.66c-2.37-1.76-4.73-3.53-7.1-5.29l.87.71-6.66-5.82.82.77-6.14-6.36.76.82-5.56-6.89.7.87c-3.09-4.23-5.74-8.73-7.93-13.49l-2.96-7.25c-2.77-7.35-4.3-15.17-5.37-22.94-1.2-8.73-.96-17.69-.53-26.47.65-13.41,3.24-26.68,6.86-39.58,12.98-46.22,41.2-86.35,72.69-121.87l-.86.8c3.09-2.75,6.19-5.51,9.28-8.26.42-.71.4-1.41-.04-2.1-.8-.82-1.8-1.16-3-1.03-1.91-.12-3.82-.08-5.73.12-1.2-.08-2.18.31-2.95,1.15Z"/>
    <path class="cls-2" d="M50.09,199.45c-10.07,11.31-20.09,22.59-29.23,34.68-10.61,14.03-20.42,28.6-28.92,44.01-8.55,15.5-15.82,31.77-21,48.72-5.31,17.36-8.37,35.32-8.92,53.45-.28,9.13.11,18.03,1.44,27.06,1.04,7.04,2.47,14.15,4.84,20.88,2.08,5.93,4.46,11.51,7.42,17.03,3.72,6.93,8.58,13.17,13.92,18.91,24.37,26.18,59.53,38.71,94.4,42.39,19.13,2.02,38.29,1.61,57.45.13,18.37-1.42,36.67-3.61,55.06-4.88,15.6-1.08,31.67-1.4,47.19.92,5.9.88,11.74,2.03,17.51,3.55,4.22,1.09,8.33,2.51,12.31,4.26,4.02,1.5,7.88,3.35,11.59,5.53l-.78-.47c2.65,1.69,5.3,3.37,7.95,5.06l-.76-.5c2.91,2.08,5.6,4.4,8.07,6.96,1.76,1.59,3.38,3.3,4.87,5.13,3.9,4.44,7.4,9.2,10.44,14.27,6.01,10.06,10.57,21.44,12.82,32.97l1.21,7c-1,14.44-2,28.88-3.01,43.32-1.48,6.58-3.9,13.09-6.2,19.42-5.07,13.96-10.92,27.61-15.93,41.59-2.55,7.11-4.98,14.32-6.83,21.65s-3.25,14.66-4.38,22.09c-.98,6.64-1.6,13.32-1.86,20.03-.49,6.78-.65,13.58-.49,20.38.18,9.16.69,18.31,1.44,27.45.89,10.85,2.32,21.71,4.03,32.47,1.36,8.58,2.97,17.13,4.98,25.59s4.48,16.91,7.43,25.15c2.98,8.32,6.38,16.6,10.68,24.33,3.56,6.4,7.48,12.57,11.84,18.46,5.38,7.27,11.82,13.83,18.51,19.88s14,11.72,21.76,16.58c13.63,8.53,28.11,15.35,43.29,20.62,15.11,5.24,30.63,8.77,46.43,11.19,46.1,7.06,92.82,2.37,138.94-2.02,15.62-1.49,31.25-2.92,46.95-2.5,8.24.22,16.49.87,24.6,2.43,3.12.73,6.24,1.46,9.37,2.19,5.05,1.22,9.83,3.08,14.36,5.57l-.79-.44,5.84,3.49-.78-.46c6.53,4.47,12.58,9.22,17.76,15.26,2.51,2.92,4.76,6.03,6.74,9.33,5.87,9.72,8.37,20.09,7.49,31.09-.05,1.66.43,2.85,2.25,2.86s2.23-1.18,2.28-2.84c.11-4.03.15-7.83-.34-11.84-.46-3.73-1.61-7.79-2.86-11.35-3.39-9.66-9.55-18.63-16.91-25.69-5.95-5.7-12.64-10.68-19.92-14.58-6.28-3.36-12.99-5.31-19.9-6.91-9.73-2.25-19.52-3.26-29.5-3.52-20.13-.53-40.13,1.91-60.13,3.8-27.33,2.59-54.78,4.99-82.26,4.41-13.92-.3-27.87-1.38-41.64-3.48-10.26-1.57-20.48-3.43-30.49-6.25-8.44-2.38-16.73-5.14-24.86-8.42-4.92-1.89-9.74-4.03-14.45-6.41-6.56-3.25-12.91-6.87-19.05-10.84l.74.45c-3.13-2.16-6.25-4.32-9.38-6.48l.72.5c-2.95-2.36-5.91-4.71-8.86-7.07l.68.55-7.9-7.38-7.41-8.05c-5.99-6.85-11.09-14.53-15.52-22.46-6.84-12.28-11.91-25.35-15.74-38.86-4.23-14.92-7.04-30.19-9.02-45.57-2.62-20.31-4.1-40.77-3.61-61.25.44-18.57,2.38-37.34,7.11-55.34,3.03-11.54,6.81-22.86,10.78-34.11,4.06-11.5,8.44-22.91,11.98-34.59,3.45-11.38,6.12-23.29,6.5-35.23.65-20.51-4.3-40.86-14.45-58.71-5.35-9.42-12.14-18.52-20.42-25.58-4.37-3.72-8.93-6.81-13.88-9.71-6.3-3.68-13.22-6.34-20.16-8.5-5.73-1.79-11.52-3.12-17.44-4.12-13.87-2.32-27.95-2.76-41.99-2.18-15.23.62-30.4,2.35-45.55,3.84-10.28,1.01-20.55,1.95-30.86,2.52-4.17.3-8.34.46-12.52.47-6.57.23-13.14.14-19.7-.25l.84.02c-7.38-.48-14.73-1.2-22.05-2.16l.83.11c-3.15-.53-6.29-1.07-9.44-1.6l.83.15-9.42-2.1.82.2-9.36-2.63.81.25-9.25-3.16.8.3-9.07-3.71.78.36-8.86-4.29.75.42-8.58-4.86.72.47-8.08-5.44.68.54-7.89-6.44.65.6c-2.5-2.45-5.01-4.9-7.51-7.35l.63.65c-2.27-2.66-4.54-5.31-6.82-7.97l.6.71c-3.62-5.12-7.19-10.17-9.97-15.82-3.23-6.58-5.55-13.55-7.25-20.66-1.34-5.59-2.25-11.2-2.82-16.92-.38-2.81-.56-5.63-.55-8.47-.24-4.41-.15-8.81.27-13.21l-.06,1.13c.34-4.43.69-8.87,1.03-13.3l-.15,1.15c.62-4.36,1.24-8.71,1.86-13.07l-.23,1.16c.88-4.28,1.76-8.55,2.63-12.83l-.31,1.17c1.4-6.15,3.12-12.21,5.17-18.16,1.72-5.6,3.72-11.11,6-16.51,3.76-8.97,7.96-17.72,12.61-26.27,10.21-18.79,22.44-36.15,35.48-53.07l-.85,1.05c2.7-3.34,5.4-6.68,8.11-10.02l-.87,1.04c2.76-3.27,5.52-6.53,8.28-9.8l-.89,1.04c5.09-5.69,10.28-11.29,15.56-16.8.33-.8.17-1.48-.48-2.05-1.14-.61-2.36-.7-3.64-.27-2.21.35-4.39.86-6.53,1.53-1.34.18-2.39.8-3.14,1.86Z"/>
    <path class="cls-2" d="M51.98,206.93c-8.86,9.81-17.61,19.64-25.78,30.04-8.38,10.67-16.4,21.68-23.54,33.24-12.32,19.94-22.85,41.04-29.71,63.51-7.02,22.99-10.38,47.39-8.19,71.38,1.7,18.61,7.08,36.86,17.82,52.32,10.24,14.74,24.45,26.1,40.03,34.78,9.14,5.09,18.96,8.88,28.93,11.96,9.8,3.03,19.85,5.21,30.06,6.34,12.67,1.41,25.44,1.91,38.18,1.64,12.47-.26,24.93-1.28,37.35-2.36s24.09-2.26,36.17-3.03c12.71-.82,25.33-.78,38.04-.11l-1.41-.13c3.52.35,7.04.7,10.57,1.05l-1.41-.16c7.44,1.14,14.64,2.38,21.86,4.47,6.95,2.01,13.63,4.63,20.08,7.91,11.04,5.61,20.26,14.19,27.9,23.84,7.37,9.31,12.77,20.17,16.64,31.35,3.89,11.25,5.53,23.27,5.37,35.15-.19,13.68-3.44,27.12-7.53,40.1-4.59,14.59-10.55,28.73-15.86,43.07-3.17,8.54-6.18,17.32-8.41,26.16-1.84,7.29-3.24,14.65-4.36,22.09-.96,6.61-1.56,13.24-1.8,19.91-.47,6.72-.62,13.46-.44,20.2.25,11.34,1.02,22.64,2.21,33.92,3.77,35.58,10.45,72.33,28.89,103.53,8.96,15.15,20.56,28.21,34.26,39.24,13.71,11.04,29,19.76,45.21,26.58,16.13,6.78,32.97,11.66,50.19,14.72,22.4,3.98,45.05,5.3,67.78,4.95,22.9-.36,45.72-2.28,68.52-4.32,9.27-.83,18.54-1.74,27.83-2.36,10.3-.69,20.54-.81,30.86-.59l-1.41-.1,11.35.85-1.41-.13c4.88.42,9.69,1.2,14.44,2.33,4.73.87,9.36,2.12,13.9,3.76,4.54,1.87,8.89,4.12,13.07,6.7s8.22,5.45,11.83,8.77c4.33,3.98,8,8.32,11.52,13.03l-1.55-2.44c1.52,2.42,3.04,4.85,4.55,7.27l-1.41-2.58,3.93,7.62-1.25-2.72c1.08,2.65,2.17,5.31,3.25,7.96l-1.07-2.87,2.51,8.27-.86-3,1.71,8.55c-.37-2.54-.75-5.09-1.12-7.63.33,3.35.67,6.69,1,10.04l.35,3.24.74,1.56c1.03.93,1.96.31,2.47-.78.88-1.86.74-4.32.79-6.33.08-1.54.08-3.08,0-4.63.02-1.86-.12-3.71-.41-5.55-1.04-3.74-2.06-7.36-3.62-10.92s-3.41-6.96-5.53-10.05c-3.9-5.68-8.46-10.78-13.65-15.32s-11.19-8.61-17.41-12.02c-9.71-5.31-20.2-8.46-31.06-10.4-18.85-3.36-38.09-3.14-57.14-1.94-31.59,1.99-63.12,5.01-94.8,4.44-30.33-.54-61.09-4.02-89.69-14.57-24.69-9.11-48.05-22.99-66.19-42.25-7.74-8.22-14.3-17.39-19.84-27.21-5.68-10.08-10.01-20.7-13.55-31.7-4.02-12.49-6.61-25.54-8.52-38.5-.95-6.44-1.58-12.89-2.17-19.37-.79-8.72-1.52-17.44-1.95-26.19-1.51-30.68,1.09-61.7,8.83-91.45,5.3-20.37,11.87-40.39,15.99-61.05,3.94-19.72,5.01-40.46-.51-60-5.26-18.62-14.83-36.43-28.55-50.22-6.04-6.07-12.6-11.42-19.92-15.89-8.58-5.23-17.96-9.06-27.62-11.8-18.25-5.16-37.48-6.39-56.35-6.22-28.31.25-56.47,3.77-84.78,3.64-6.06-.03-12.11-.22-18.16-.6l-12.17-1.11-12.99-1.53c-10.78-2.02-21.3-5.67-31.3-10.14-11.19-5.01-21.65-11.86-30.63-20.19-8.48-7.86-15.91-17.35-20.68-27.95-4.18-9.3-6.78-19.02-8.11-29.12-.64-4.85-.89-10.03-.78-14.95.14-6.57,1.18-13.08,1.89-19.6,3.4-31.26,14.97-60.9,30.72-87.96,7.55-12.98,16.1-25.34,25.11-37.33,4.53-6.02,9.28-11.94,14.13-17.71,2.45-2.83,4.9-5.67,7.35-8.5,4.84-5,9.71-9.97,14.61-14.91,3.11-3.15-6.17-2.9-6.3-2.91-3.95.03-7.9.21-11.84.56-2.18-.08-4.21.38-6.1,1.38Z"/>
    <path class="cls-2" d="M56.34,215.94c-10.14,11.22-20.07,22.53-29.24,34.58-9.41,12.38-18.17,25.28-25.9,38.78-13.61,23.77-24.15,49.58-29.03,76.62-4.08,22.6-4.93,47.16,1.43,69.48,3.23,11.36,7.95,21.87,14.66,31.61,5.26,7.63,11.95,14.56,19.17,20.36,18.52,14.87,40.51,24.49,63.68,29.43,26.35,5.62,53.64,5.01,80.35,2.98,16.18-1.23,32.32-3.09,48.52-4.07,12.73-.77,25.34-.77,38.07-.08l-1.57-.14c3.58.36,7.15.72,10.73,1.08l-1.58-.17c5.94.73,11.82,1.82,17.63,3.27,4.26,1.01,8.41,2.33,12.46,3.97,7.85,2.95,15.29,6.62,22.01,11.67,12.37,9.3,22.08,21.75,28.79,35.65,6.27,12.98,9.77,27.09,10.52,41.47.4,7.62-.4,15.34-1.51,22.87-1.74,11.83-5.83,23.18-9.79,34.39l.56-1.53c-7.7,20.04-16.51,39.82-21.97,60.64-7.62,29.03-7.72,59.7-4.98,89.4,1.15,12.45,2.84,24.84,4.99,37.16,2.35,13.5,5.4,27.09,9.89,40.05,3.42,9.87,7.38,19.52,12.44,28.68,5.99,10.87,13.29,20.74,21.88,29.68,34.02,35.43,82.62,52.34,130.5,57.77,32.22,3.65,64.72,2.03,96.95-.59,12.55-1.02,25.07-2.27,37.61-3.32,6.98-.62,13.97-1.09,20.96-1.38,6.81-.29,13.62-.29,20.43.01l-1.57-.1c3.83.29,7.67.57,11.5.86l-1.57-.13c9.58,1.32,19.19,2.76,28.31,6.12,6.4,2.36,12.47,6.08,17.97,10.06,4.78,3.46,9.1,7.34,13,11.78,1.97,2.12,3.75,4.38,5.34,6.8,2.14,3.14,3.96,6.45,5.48,9.93l-1.17-3.05c1.05,2.77,2.09,5.55,3.14,8.32l-.9-3.15c.77,2.86,1.54,5.72,2.31,8.58l-.61-3.22c.47,2.93.95,5.86,1.42,8.8l-.3-3.26c.16,2.98.33,5.97.49,8.95,0,1.15.51,1.91,1.52,2.29,1.07-.12,1.75-.74,2.03-1.85.69-2.54,1.17-5.12,1.42-7.75.38-2.61.54-5.23.48-7.86-.89-3.14-1.75-6.18-2.96-9.21-1.57-3.92-3.47-7.58-5.75-11.14-3.36-5.24-7.35-9.95-11.87-14.23-10.58-10.01-23.42-17.03-37.17-21.63s-29.04-5.97-43.68-6.46c-12.02-.41-24.11.28-36.11,1.02-16.29,1-32.57,2.12-48.88,2.79-28.96,1.2-57.93.68-86.6-3.93-10.85-1.74-21.5-4.11-31.97-7.45-12.16-3.87-24.04-8.8-35.28-14.83-17.72-9.51-34.05-21.89-47.12-37.23-6.09-7.15-11.34-14.86-15.83-23.1-6.14-11.27-10.69-23.2-14.19-35.53-6.31-22.2-9.51-45.32-11.37-68.3-2.34-28.83-1.75-58.45,5.5-86.6,5.12-19.87,12.83-38.96,18.62-58.63,1.8-6.1,3.38-12.23,4.65-18.47.84-4.12,1.47-8.21,2.06-12.38.89-6.29.98-12.63.84-18.97-.43-19.82-6.93-39.36-17.5-56.04-8.81-13.92-20.55-25.99-34.56-34.72-14.79-9.22-31.93-14.27-49.08-16.74-17.6-2.54-35.36-2.39-53.09-1.98-15.37.36-30.71,1.63-46.07,2.18-13.88.5-27.73.44-41.59-.56l-11.91-1.17c-4.18-.53-8.36-1.06-12.54-1.59-5.07-1-10.14-2.45-15.06-4.03-9.82-3.16-19.38-7.32-28.3-12.5-7.55-4.38-14.63-9.55-21.06-15.45-3.58-3.29-6.89-6.77-9.96-10.54-1.59-1.8-3.03-3.72-4.32-5.75-2.37-3.25-4.45-6.67-6.25-10.27l.58,1.01c-2.25-4.36-4.13-8.88-5.62-13.56-.67-2.36-1.33-4.72-2-7.09-1.82-7.08-2.68-14.39-3.08-21.67-.53-9.67.11-19.43,1.18-29.05,1.43-12.89,4.6-25.52,8.67-37.8,7.09-21.41,17.42-41.44,29.68-60.33,6.2-9.56,12.86-18.77,19.89-27.73,3.47-4.5,7.06-8.91,10.76-13.24,4.61-5.4,9.49-10.54,14.63-15.43.6-.62.71-1.31.31-2.08-.84-.99-1.94-1.53-3.29-1.6-2.19-.49-4.41-.82-6.66-1-1.32-.33-2.52-.14-3.62.56Z"/>
    <path class="cls-2" d="M63.59,198.62c-5.84,5.11-11.18,10.7-16.01,16.78-4.99,5.89-9.83,11.89-14.53,18.01-9.51,12.43-18.36,25.37-26.19,38.92-8.08,13.98-15.01,28.55-20.56,43.71-9.21,25.17-14.18,52.66-12.27,79.49.82,11.57,3.04,23.19,7.01,34.11,3.63,9.98,8.75,19.09,15.36,27.38,14.42,18.08,34.55,30.56,56.15,38.35,24.12,8.7,49.81,11.09,75.31,10.58,29.82-.59,59.32-5.57,89.1-6.72,12.54-.48,25.13-.33,37.58,1.34,5.98.78,11.88,1.93,17.72,3.46,5.69,1.49,11.23,3.43,16.62,5.8l-1.14-.51c7.48,3.67,14.71,7.34,21.02,12.89,4.6,4.04,8.77,8.44,12.54,13.26,8.21,10.51,14.56,22.78,18.1,35.67s4.93,26.22,3.4,39.57c-.79,6.86-2.04,13.58-3.78,20.25-2.12,8.14-5.21,16.21-8.32,24.01-5.43,13.61-11.3,27.04-16.2,40.86-3.05,8.58-5.81,17.58-7.58,26.52-2.16,10.91-3.43,21.95-4.01,33.05-1.49,28.55,1.2,57.49,6.33,85.58,2.52,13.76,5.61,27.6,10.27,40.8,2.92,8.28,6.27,16.33,10.31,24.14,4.13,7.98,8.9,15.51,14.33,22.67,3.21,4.21,6.71,8.14,10.51,11.81,3.64,3.87,7.53,7.47,11.68,10.8,6.94,5.58,14.21,10.63,21.88,15.17,16.74,9.89,35.02,17.41,53.85,22.3,19.21,4.99,38.82,7.68,58.61,9,13.86.92,27.79.7,41.66.21s27.46-1.58,41.13-2.79c19.44-1.72,38.88-4.05,58.39-4.92,10-.45,20.45-.43,30.4.8,3.25.47,6.5.95,9.75,1.42,6.39,1.15,12.63,2.84,18.73,5.07l-1.18-.48c10.94,5.18,21.35,11.65,29.41,20.85,3.91,4.47,7.54,9.28,10.14,14.64l2.39,5.35c1.42,3.64,2.42,7.38,3.03,11.24l-.21-1.55.77,7.37-.1-1.52-.02,7.42c0,1.6,2.65,1.62,3.47.87.64-1,1.07-2.09,1.31-3.27.35-1.15.48-2.31.39-3.5-.28-6.57-.96-12.76-3.05-19.08-2.03-6.11-5.11-12.05-8.77-17.34-8.88-12.83-21.57-22.77-35.53-29.57-8.44-4.11-17.5-6.63-26.77-8.12-10.12-1.63-20.32-2.33-30.57-2.3-12.04.04-24.02,1.12-36,2.25-14.81,1.4-29.59,2.99-44.42,4.22-31.19,2.6-62.4,3.57-93.52-.52-23.13-3.04-45.92-9.02-67.04-19.08-21.16-10.08-41.27-24.37-55.42-43.27-6.24-8.33-11.61-17.2-16.01-26.65-5.8-12.45-9.63-25.45-13.07-38.7l.21.96-2.41-10.94.19.96c-.7-3.68-1.41-7.36-2.11-11.03l.17.97c-.57-3.61-1.15-7.23-1.72-10.84l.14.97c-.64-4.8-1.28-9.6-1.92-14.39l.11.97c-.5-4.82-1.01-9.64-1.51-14.47l.08.98-1.04-14.5.06.98c-.17-4.83-.33-9.66-.5-14.49l.03.98.11-13.45c.13-6.66.63-13.3,1.49-19.9.92-8.12,2.16-16.2,4.06-24.15,3.18-13.33,7.76-26.2,12.61-38.99,5.21-13.72,11.11-27.32,15.14-41.46,3.48-12.2,5.81-24.71,5.85-37.44.06-23.5-7.63-46.77-21.28-65.86-6.99-9.78-15.49-18.25-25.38-25.1-4.43-3.07-8.25-4.83-12.87-7.01s-8.22-3.8-13.55-5.48c-27.84-8.78-57.23-8.35-86.01-5.65-17.58,1.65-35.08,4.01-52.69,5.25-16.94,1.19-33.99,1.16-50.88-.72-6.84-.76-13.62-2.12-20.29-3.8-6.82-1.72-13.62-3.8-20.1-6.56-11.93-5.09-23.08-11.58-32.82-20.21s-17.5-18.89-22.73-30.72c-2.28-5.16-4.01-10.59-5.46-16.03-2.17-8.15-2.94-16.51-3.6-24.89v.99c-.14-6.93.02-13.86.5-20.78.61-7.95,1.71-15.83,3.3-23.64l-.23.98c.98-4.16,1.95-8.32,2.93-12.49l-.27.98c1.2-4.09,2.4-8.17,3.6-12.26l-.32.97,4.23-12.03-.36.97,4.81-11.8-.39.96c4.92-10.65,9.99-21.1,16.03-31.17,5.01-8.35,10.33-16.48,15.97-24.41,5.6-7.88,11.43-15.59,17.56-23.06,2.46-2.95,4.91-5.89,7.37-8.84,4.76-6.21,10.26-11.67,16.51-16.39,1.27-1.11,1.01-2.94-.62-3.52-1.43-.13-2.86-.04-4.27.27-1.43.19-2.8.6-4.11,1.21Z"/>
    <path class="cls-2" d="M53.18,212.89c-10.22,11.19-20.19,22.5-29.39,34.55-8.26,10.83-15.96,22.04-22.98,33.71-15.15,25.18-26.95,52.51-32.32,81.52-2.69,14.57-3.91,29.57-2.89,44.36,1.17,16.89,4.99,34.52,13.75,49.22,6.12,10.27,13.69,19.3,22.83,27.05,15.95,13.53,35.44,22.74,55.54,28.22,24.86,6.78,50.81,7.36,76.4,6.11,16.39-.8,32.72-2.66,49.07-3.97,13.56-1.09,27.01-1.62,40.61-1.47l-1.51-.08c3.61.19,7.23.38,10.84.57l-1.51-.09c7.59.75,15,1.6,22.46,3.21,7.15,1.55,14.1,3.66,20.89,6.41,3.99,1.6,7.8,3.54,11.44,5.81,3.36,1.78,6.49,3.92,9.38,6.4,3.63,3.03,7.04,6.3,10.25,9.77,8.81,9.55,15.44,21.28,19.94,33.41,4.17,11.23,6.45,23,6.56,34.99.13,13.54-2.4,26.81-6.34,39.72-4.45,14.58-10.37,28.61-15.79,42.85-6.45,16.98-12.06,34.35-14.4,52.43-2.88,22.31-2.85,44.95-.7,67.33,1.85,19.22,4.44,38.58,9.1,57.35,4.17,16.79,9.68,33.32,18.04,48.53,4.26,7.75,9.24,15.05,14.86,21.87,5.55,6.74,11.66,12.86,18.24,18.59,13.2,11.51,28.71,20.45,44.57,27.72,15.9,7.28,32.86,12.22,49.96,15.73,5.69,1.14,11.4,2.06,17.16,2.76,6.92,1.06,13.88,1.81,20.88,2.26,11.59.76,23.17,1,34.78.82,22.89-.36,45.71-2.25,68.51-4.29,9.27-.83,18.54-1.74,27.83-2.36,10.29-.68,20.54-.8,30.85-.57l-1.5-.06c9.78.71,19.6,1.48,29.11,4.06,3.06.92,6.11,1.84,9.17,2.76,2.74,1.08,5.39,2.34,7.95,3.77,4.33,2.29,8.58,4.88,12.43,7.93,4.61,3.66,8.64,7.73,12.55,12.14l-1.93-2.55,5.37,7.14-1.78-2.72c1.59,2.52,3.19,5.03,4.78,7.55l-1.61-2.89c1.38,2.64,2.75,5.29,4.13,7.93l-1.41-3.05c1.13,2.76,2.27,5.52,3.4,8.28l-1.18-3.2c.87,2.87,1.74,5.73,2.61,8.6l-.91-3.34c.59,2.96,1.17,5.92,1.76,8.88l-1.1-8.41c.44,4.69.89,9.38,1.33,14.06.08,1.21.66,1.98,1.74,2.31,1.09-.28,1.71-1.03,1.84-2.23.44-2.83.65-5.69.65-8.56.12-2.87.02-5.73-.3-8.58-1.24-3.84-2.43-7.57-4.2-11.21-1.69-3.47-3.76-6.99-6.05-10.07-4.14-5.57-8.91-10.56-14.27-14.95-6.27-5.13-13.1-9.35-20.45-12.74-2.75-1.27-5.54-2.43-8.39-3.5-6.41-2.4-13.15-3.85-19.89-4.98-18.91-3.18-38.07-2.75-57.16-1.72-15.89.86-31.75,2.18-47.64,2.93-18.01.84-36.03,1.21-54.05.45-8.98-.38-17.97-1.22-26.9-2.29l-13.36-1.97-13.59-2.49c-12.71-2.89-25.4-7.05-37.29-12.42-10.38-4.69-20.33-10.1-29.72-16.54-11.58-7.95-22.58-17.41-31.42-28.39-6.91-8.58-12.81-17.79-17.67-27.69-4.95-10.11-8.69-20.63-11.73-31.45-3.49-12.39-5.79-25.24-7.38-38-2.25-18.09-3.69-36.34-3.78-54.56-.07-15.06.96-30.03,3.07-44.95,1.93-13.64,5.42-26.88,9.3-40.07,3.1-10.58,6.37-21.11,9.2-31.76,3.43-12.89,5.97-25.81,7.06-39.11,2.45-30.05-7.69-60.32-27.15-83.26-5.54-6.54-11.75-12.34-18.6-17.47-8.53-6.39-18.35-11.15-28.41-14.6-17.77-6.09-36.61-7.91-55.27-8.35-27.46-.65-54.84,2.47-82.28,2.81-14.17.17-28.17-.62-42.24-2.23-4.25-.57-8.5-1.13-12.75-1.7l-7.77-1.99c-6.47-1.78-12.79-4.17-18.92-6.9-20.96-9.31-39.7-24.01-51.01-44.24-5.28-9.45-8.9-19.86-10.53-30.58-.54-3.57-.92-7.15-1.15-10.76-.36-5.72-.11-11.37.28-17.07.5-7.31,1.05-14.55,2.24-21.78,1.47-8.94,3.66-17.74,6.35-26.39,4.89-15.71,11.5-30.93,19.54-45.28,7.32-13.07,15.53-25.56,24.37-37.65,4.44-6.07,9.13-12.03,13.92-17.84,6.8-8.26,14.18-15.91,21.65-23.57,2.66-2.73-3.86-3.49-4.85-3.65-3.28-.46-6.58-.76-9.89-.9-1.84-.34-3.58-.13-5.24.62Z"/>
    <path class="cls-2" d="M58.79,195.68c-5.73,5.23-11.02,10.87-15.86,16.93-3.76,4.4-7.41,8.89-10.95,13.46-8.46,10.76-16.46,21.87-23.75,33.47-12.68,20.19-23.11,41.71-30.22,64.5-7.75,24.82-11.08,51.85-7.33,77.69,1.5,10.32,4.07,20.39,8.16,30,3.03,7.11,6.62,13.94,11.35,20.11,5.65,7.38,12.08,14.05,19.33,19.88,15.71,12.62,34.38,21.2,53.73,26.51,22.47,6.18,46.11,7.72,69.33,6.9,12.5-.44,24.95-1.58,37.39-2.8,15.22-1.48,30.38-3.06,45.65-3.97l-.91.03c21.53-.59,43.37.16,63.85,7.55,7.93,2.86,16.11,6.82,22.95,11.79,7.79,5.66,13.83,12.84,19.55,20.48l-.53-.81c1.46,2.27,2.91,4.53,4.37,6.8l-.49-.82c1.3,2.36,2.6,4.71,3.9,7.07l-.44-.83c2.02,4.32,4.03,8.62,5.61,13.12,1.97,5.63,3.41,11.41,4.4,17.29,1.59,9.41,1.88,18.94.7,28.41-.84,6.73-1.98,13.45-3.86,19.97-1.55,5.38-3.34,10.69-5.29,15.94-4.12,11.1-8.9,21.95-13.31,32.93-5.08,12.66-9.72,25.47-12.83,38.77-3.92,16.74-5.28,33.97-5.26,51.13.03,20.54,1.94,41.16,5.19,61.44,2.47,15.41,5.73,30.75,10.46,45.62,7.09,22.3,17.95,43.45,33.87,60.75,20.68,22.48,48.15,38.07,76.82,47.93,32.9,11.31,67.97,15.05,102.63,14.67,38-.41,75.6-6.15,113.49-8.36l-.92.05c10.17-.22,20.26-.22,30.39.82s21.7,3.34,31.3,7.99c5.38,2.61,10.34,5.88,15.02,9.59,5.45,4.32,9.9,9.24,14.19,14.69l-.55-.81c1.23,1.88,2.47,3.75,3.7,5.63l-.51-.82c2.27,4.22,4.33,8.36,5.72,12.98,2,6.65,2.24,12.44,1.94,19.64-.06,1.43,1.8,1.94,2.93,1.76,1.54-.23,1.67-2.04,1.71-3.3.13-4.11.16-7.95-.34-12.03-.85-6.94-3.4-13.59-6.73-19.68-4.11-7.51-9.42-14.04-15.77-19.8-5.32-4.82-11.31-9.26-17.7-12.58-7.95-4.14-16.64-6.78-25.46-8.34-17.19-3.05-34.62-2.96-51.97-1.65-24.53,1.85-48.93,5.31-73.48,7.02-13.62.95-27.36,1.42-41.01,1.19-13.89-.24-27.66-1.39-41.41-3.26-20.66-2.81-40.79-8.11-60.07-16.05-11.36-4.68-22.17-10.59-32.35-17.45-4.42-2.84-8.65-5.96-12.68-9.34-5.4-4.43-10.46-9.23-15.18-14.38l.55.64c-2.42-2.86-4.85-5.73-7.27-8.59l.52.67c-2.25-3.13-4.51-6.26-6.76-9.39l.49.69c-2.97-4.38-5.61-8.94-7.93-13.68-2.5-4.58-4.7-9.31-6.6-14.18-3.17-8.03-5.83-16.21-8.07-24.55-4.87-18.18-7.9-36.78-9.96-55.47-1.25-11.28-2.06-22.58-2.36-33.92-.21-6.75-.09-13.49.35-20.22.21-6.67.78-13.31,1.72-19.93,1.32-8.96,3.09-17.79,5.55-26.5,2.07-7.33,4.49-14.55,7.12-21.7,4.99-13.52,10.8-26.72,15.76-40.25,5.23-14.26,9.03-29.16,9.62-44.39.82-21.17-5.04-41.93-15.72-60.12-5.18-8.82-11.89-16.77-19.48-23.61-5.15-4.64-11.15-8.23-17.29-11.38-6.8-3.49-13.86-6.15-21.19-8.29-8.83-2.57-18.5-4.05-27.65-4.72-7.9-.57-15.8-.71-23.72-.46-14.83.47-29.58,2.03-44.32,3.73-9.9,1.14-19.79,2.21-29.73,2.98-12.31.95-24.98,1.52-37.32.81-8.48-.49-16.98-1.22-25.37-2.52-7.24-1.13-14.35-2.71-21.4-4.71-14.37-4.07-28.09-10.52-40.49-18.8-3.76-2.49-7.3-5.27-10.61-8.32-3.46-2.86-6.66-5.99-9.6-9.4l-5.59-6.96c-3.49-4.79-6.48-9.87-8.97-15.25l.34.78-3.64-8.82.29.8c-.96-3-1.92-6.01-2.88-9.01l.25.82c-1.99-8.33-3.71-16.58-4.33-25.15-.63-8.89-.41-17.73.43-26.6,2.1-22.04,8.04-43.9,17.04-64.14,8-17.99,17.82-34.95,28.88-51.22,6.53-9.6,13.66-18.96,21.03-27.93,2.46-2.95,4.92-5.9,7.39-8.85,4.79-6.22,10.25-11.77,16.38-16.67,1.16-1.05.47-3.02-.88-3.47-1.23-.07-2.44.07-3.63.43-1.22.25-2.35.7-3.4,1.35Z"/>
    <path class="cls-2" d="M48.08,203.08c-10.25,11.24-20.22,22.63-29.44,34.73S.4,263.13-7.38,276.64c-13.73,23.87-24.36,49.76-29.42,76.91-2.73,14.69-3.96,29.81-2.99,44.74.74,11.44,2.63,23.09,6.54,33.9,3.06,8.47,6.93,16.55,12.04,24,5.26,7.66,11.57,14.32,18.49,20.48,11.5,10.23,25.46,17.86,39.75,23.4,26.3,10.19,54.78,12.64,82.77,11.69,28.01-.95,55.75-5.45,83.74-6.56,12.5-.49,25.08-.27,37.49,1.46,5.91.8,11.75,1.98,17.51,3.55,5.59,1.52,11.03,3.48,16.3,5.88l-.86-.42c2.82,1.44,5.64,2.88,8.47,4.32l-.85-.45c3.59,1.88,6.91,4.14,9.96,6.78,2.83,2.15,5.44,4.53,7.85,7.16,4.82,5.17,9.2,10.76,12.8,16.86,2.87,4.85,5.39,9.86,7.52,15.08,1.36,3.15,2.52,6.38,3.47,9.68,1.21,13.57,2.42,27.13,3.63,40.7-.58,7.97-2.64,16.25-4.87,23.9-2.5,8.61-5.63,17.08-8.88,25.43-5.36,13.77-10.9,27.45-15.29,41.57-12.75,41-10.64,85.09-4.48,127.06,1.5,10.21,3.35,20.5,5.87,30.51,2.5,9.94,5.24,19.83,9.04,29.36,7.32,18.38,17.23,35.23,30.8,49.7,22.36,23.86,51.71,39.72,82.78,49.22,45.63,13.95,94.06,13,141.12,9.11,11.34-.94,22.67-2.01,34.01-3.08,10.52-1,21.05-2.05,31.62-2.43,9.99-.37,20.35-.39,30.29.9,3.22.49,6.43.98,9.65,1.47,6.29,1.18,12.43,2.91,18.42,5.18l-.88-.37c3.57,1.7,7.05,3.42,10.39,5.56,4.14,2.64,8.02,5.63,11.64,8.96,2.87,2.64,5.5,5.45,7.92,8.5,3.4,3.89,5.69,8.46,6.87,13.69,4.53,6.66,6.45,13.96,5.78,21.91.03,1.68.14,3.95,2.35,3.9s2.19-2.32,2.18-4c-.03-4.73-.31-9.22-1.4-13.87-.74-3.17-1.7-6.25-3-9.24-3.85-8.88-9.55-16.67-16.42-23.46-7.36-7.28-16.37-13.16-25.93-17.12-4.53-1.75-9.18-3.09-13.94-4.04-4.75-1.21-9.58-2.06-14.47-2.53-11.81-1.36-23.7-1.23-35.54-.59-13.25.72-26.43,2.17-39.64,3.37s-27.19,2.47-40.83,3.25c-13.79.8-27.66,1.23-41.48.88-15.68-.4-31.21-1.91-46.68-4.5-22.88-3.83-45.07-10.94-65.55-21.94-9.53-5.12-18.46-11.13-26.91-17.86-5.48-4.46-10.64-9.27-15.45-14.44-4.99-5.37-9.54-11.09-13.65-17.15l.63.86c-2.1-3.34-4.21-6.67-6.31-10.01l.58.92c-3.31-6.2-6.59-12.38-9.3-18.88-3.32-7.97-5.97-16.21-8.23-24.54-4.14-15.28-6.64-30.81-8.62-46.5l.15,1.22c-.53-4.91-1.05-9.82-1.58-14.73l.1,1.24c-.9-11.7-1.69-23.36-1.77-35.1-.12-4.49-.06-8.98.18-13.47.13-6.68.55-13.35,1.28-19.99l-.15,1.3c.61-4.79,1.22-9.59,1.83-14.38l-.18,1.3c1.04-7.42,2.5-14.75,4.39-21.99,1.51-5.88,3.18-11.71,5-17.5,3.47-11.17,7.39-22.2,10.98-33.33,6.33-19.63,11.97-39.79,10.77-60.63-.93-16.23-5.72-32.27-13.56-46.49-8.44-15.31-20.48-29.33-36.13-37.55-7.82-4.11-15.8-7.38-24.36-9.69-11.78-3.18-23.98-4.59-36.16-5.02-25.71-.92-51.33,2.8-76.88,4.94-16.61,1.39-33.31,2.35-49.98,1.33-12.84-.78-25.83-2.34-38.26-5.74-12.09-3.31-23.86-8.21-34.68-14.55-5.43-3.14-10.56-6.72-15.39-10.73-4.93-4.09-9.46-8.59-13.59-13.48l.7.78-6.09-7.93.63.88-5.27-8.42.54.98c-1.47-2.95-2.95-5.9-4.42-8.85l.45,1.06c-1.19-3.06-2.37-6.13-3.56-9.19l.35,1.13c-.9-3.12-1.8-6.24-2.71-9.35l.25,1.19c-1.79-8.72-3.33-17.18-3.6-26.1-.18-4.01-.06-8,.36-11.98.41-5.24.87-10.48,1.38-15.71,2.81-21.18,8.77-41.53,17.43-61.06,8.53-19.24,19.3-37.5,31.55-54.6,6.69-9.33,13.66-18.48,21.03-27.29,7.04-8.41,14.49-16.36,22.13-24.23.48-.78.37-1.48-.32-2.08-1.31-.69-2.7-.84-4.19-.47-2.61.24-5.19.63-7.75,1.18-1.53.08-2.82.65-3.86,1.69Z"/>
  </g>
  <g>
    <path class="cls-1" d="M125.15,1182.77c-5.65-25.44-11.22-51.41-11.47-77.59-.08-8.98.6-17.74,2.19-26.57.91-5.15,2.12-10.23,3.63-15.24,1.49-4.95,3.31-9.78,5.44-14.49l-.84,1.72c1.42-2.86,2.85-5.72,4.27-8.58l-.92,1.68,4.84-8.21-1.01,1.63,5.41-7.8-1.1,1.57c3.05-4.03,6.42-7.77,10.13-11.21,2.02-1.73,4.04-3.46,6.06-5.18,7.17-5.76,15.48-10.05,23.93-13.56,17.09-7.1,35.09-10.32,53.33-12.85l-1.97.27c3.43-.37,6.87-.74,10.3-1.11l-1.99.17c22.45-1.81,44.96-2.52,67.43-4.12,26.02-1.85,52.07-5.61,76.4-15.44,43.58-17.61,79.88-52.38,101.46-93.91,8.36-16.08,15.07-33.59,16.62-51.8.93-11.01-.25-22-3.62-32.52-.89-2.79-2.51-5.59-3.89-8.16s-3.04-5.22-4.78-7.72c-4.01-5.75-9.06-10.93-14.64-15.15-4.84-3.66-9.95-6.58-15.61-8.78-2.83-1.1-5.67-1.91-8.65-2.55-5.14-1.11-10.28-1.14-15.47-.63-32.19,3.19-52.04,34.5-61.07,62.66-4.67,14.56-7.37,30.31-6.21,45.64.53,7.05,2.01,14.02,4.33,20.69,1.55,4.46,3.82,8.9,6.41,12.88s5.91,8.12,9.51,11.45c5.47,5.06,12.11,9.09,18.92,12.05,8.02,3.49,16.6,5.59,25.28,6.45,7.35.73,14.58.66,21.91-.22,6.56-.78,13.03-1.88,19.33-3.92,7.97-2.58,16.01-5.99,23.04-10.6,4.49-2.95,9.14-6.04,13.13-9.69,3.61-3.3,7-6.68,10.24-10.34,12.89-14.56,21.89-31.9,30.56-49.17,5-9.95,9.88-19.97,15.6-29.53,6.77-11.3,14.75-21.71,23.81-31.26,18.59-19.59,41.18-35.26,65.78-46.37,12.94-5.84,26.62-10.61,40.48-13.72,5.22-1.17,10.46-2.16,15.74-2.98,8.85-1.37,17.62-1.99,26.57-2.45,1.04-.35,1.29-1,.77-1.96-1.35-1.5-3.01-2.55-4.99-3.14-3.4-1.51-6.86-2.87-10.38-4.09-1.85-.92-3.78-1.29-5.79-1.11-11.05,1.54-21.97,3.25-32.75,6.22-8.95,2.47-17.73,5.38-26.36,8.82-18.93,7.56-37.15,17.45-53.48,29.69-15.02,11.26-28.64,24.01-40.79,38.33-3.71,4.32-7.15,8.83-10.32,13.55-3.51,4.75-6.64,9.74-9.39,14.97-3.37,5.7-6.66,11.44-9.89,17.21-6.52,11.65-13.03,23.34-21.03,34.06-3.92,5.25-8.18,10.16-12.84,14.76-5.32,5.25-11.64,10.24-18.31,13.68-10.19,5.26-21.2,8.68-32.72,8.92-2.94-.11-5.87-.29-8.8-.52-2.73-.12-5.42-.49-8.09-1.1-5.61-1.21-10.73-3.22-16-5.48l1.14.51c-1.86-1.07-3.72-2.13-5.58-3.2l1.08.64c-1.74-1.16-3.49-2.31-5.23-3.47l1.01.76-4.83-4.19.91.88-4.41-4.49.82.97-3.84-5.19.71,1.06c-1.45-3.2-2.92-6.38-4.42-9.56l.44,1.2c-.64-2.04-1.27-4.09-1.91-6.13l.32,1.24-1.45-6.26.22,1.26c-.25-2.17-.51-4.33-.76-6.5l.12,1.28-.35-6.61.03,1.28.24-6.74-.06,1.28.6-6.81-.13,1.28c.37-2.28.74-4.56,1.11-6.84l-.21,1.26,1.39-6.99-.27,1.25,1.81-6.93-.34,1.23c.72-2.31,1.44-4.62,2.16-6.93l-.4,1.21c.84-2.26,1.67-4.52,2.51-6.78l-.46,1.19c1.81-2.73,3.41-5.59,4.78-8.57l-.65,1.08c3.46-5.66,6.9-11.51,11.47-16.38,3.04-3.24,6.27-6.22,9.96-8.7s7.8-4.53,12.23-5.54c2.89-.59,5.8-.81,8.74-.68,2.61.29,5.18.83,7.69,1.61l-1.12-.46c2.91,1.06,5.71,2.37,8.39,3.92l-1.02-.65,4.41,3.03-.96-.74,4.22,3.42-.89-.81,3.89,3.89-.82-.88,3.62,4.22-.75-.94,3.23,4.6-.67-1c.97,1.62,1.94,3.24,2.92,4.87l-.59-1.04,2.45,5.16-.51-1.09,2.11,5.4-.43-1.12,1.24,4.44c.74,3.26,1.12,6.56,1.14,9.9.23,5.53-.11,11.11-1.18,16.56-1.93,9.87-5.19,19.27-9.96,28.13-3.7,6.88-7.13,13.84-11.4,20.4-3.68,5.65-7.58,11.19-11.81,16.46-9.52,11.85-20.49,22.48-32.52,31.74-13.33,10.26-27.88,18.74-43.47,25.07-14.9,6.05-30.59,10.05-46.41,12.82-33.56,5.88-67.79,6.49-101.32,12.64-34.72,6.36-70.94,19.22-93.92,47.49-15.81,19.45-23.4,43.81-26.23,68.4-1.93,16.8-1.15,33.85,1.12,50.57,1.03,7.57,2.29,15.11,3.67,22.62,1.97,10.79,3.99,21.58,5.96,32.38.74,4.06,5.47-2.46,5.71-2.77,2.09-2.83,4.06-5.76,5.89-8.77,1.24-1.53,1.95-3.25,2.15-5.16Z"/>
    <path class="cls-1" d="M127.95,1174.15c-3.73-16.51-7.18-33.12-9.38-49.92-1.2-9.19-2.05-18.44-2.13-27.71-.07-7.6.45-15.1,1.6-22.61,1.76-11.5,4.79-22.84,9.63-33.45,2.1-4.6,4.59-9.06,7.31-13.32,4.12-6.47,9.21-11.83,14.65-17.17l-1.58,1.32,7.71-6.41-1.64,1.19c2.72-1.88,5.44-3.76,8.15-5.65l-1.69,1.05,8.54-4.95-1.73.92,8.88-4.31-1.76.79,9.17-3.72-1.78.66c3.14-1.06,6.28-2.12,9.42-3.18l-1.79.54c3.21-.9,6.42-1.8,9.63-2.69l-1.79.42c11.43-2.63,22.81-4.83,34.49-6.07,10.14-1.07,20.3-1.59,30.47-2.22,27.4-1.68,54.86-2.03,81.97-6.86,7.37-1.31,14.85-3.11,22.04-5.26,6.98-2.09,14.06-4.58,20.68-7.6,11.42-5.2,22.24-11.44,32.47-18.71,13.69-9.74,26.04-21.08,37.05-33.75,13.2-15.18,24.06-32.52,32.19-50.89,8.51-19.25,13.92-40.74,10.47-61.82-.66-4.01-1.53-8.03-2.86-11.89-1.26-3.66-3.36-7.63-5.39-10.99-3.7-6.14-8.35-11.63-13.63-16.45-5.28-4.82-11.21-8.66-17.73-11.56-8.53-3.8-18.05-5.01-27.27-3.89-8.35,1.01-16.26,4.01-23.31,8.6-7.09,4.62-13.21,10.66-18.35,17.35-3.44,4.47-6.45,9.03-9.23,13.91-2.31,4.07-4.3,8.24-6.1,12.55-2.17,5.18-4.17,10.43-5.61,15.86-2.18,8.22-3.74,16.53-4.51,25.01-.42,4.63-.48,9.57-.2,14.24.28,4.61.87,9.59,2,14.03.88,3.48,1.99,6.85,3.31,10.18,1.82,4.59,4.14,8.78,6.94,12.85,1.05,1.53,1.78,2.67,2.87,3.96,3.38,4,3.93,4.72,7.4,7.62,7.09,5.91,15.12,10.32,23.85,13.34,9.39,3.25,19.48,4.47,29.37,4.52,4.69.02,9.5-.54,14.14-1.19,5.47-.76,11.22-1.87,16.45-3.66,4.26-1.46,8.39-3.08,12.46-5,6.35-3,12.09-6.6,17.81-10.67,7.68-5.47,14.38-12.48,20.25-19.82,7.6-9.52,13.72-20.1,19.4-30.83,10.47-19.76,19.15-40.41,32.54-58.48,18.36-24.77,43.01-44.65,70.43-58.63,12.75-6.5,26.14-11.63,39.87-15.64,6.8-1.98,13.87-3.55,20.86-4.8,10.58-1.88,21.2-2.66,31.92-3.17.96-.25,1.31-.86,1.06-1.82-.81-1.51-2.01-2.63-3.61-3.38-2.59-1.7-5.26-3.27-8.01-4.69-1.43-1.03-3-1.53-4.71-1.49-7.61.55-15.17,1.49-22.68,2.82-3.74.76-7.47,1.52-11.21,2.27-11.19,2.47-22.12,6.05-32.82,10.14-23.21,8.87-44.98,21.94-64.14,37.69-17.72,14.57-33.82,31.72-45.59,51.5-4.34,7.29-8.53,14.63-12.46,22.15-4.38,8.38-8.67,16.79-13.15,25.12l.59-1.04c-4.01,6.98-7.99,14.05-12.84,20.49-1.58,2-3.15,4.01-4.73,6.01-3.4,4.08-7.1,7.85-11.1,11.34l.9-.74-6.48,5.06.95-.68-6.92,4.52.99-.61-7.31,3.96,1.03-.54-7.65,3.35,1.06-.46c-4.38,1.72-8.89,2.98-13.52,3.79-4.55.66-9.11,1.14-13.69,1.44l1.14-.08-7.26.03h1.14c-2.44-.19-4.88-.39-7.32-.59l1.14.1c-2.42-.41-4.84-.82-7.27-1.23l1.13.19c-4.08-.89-8.03-2.17-11.85-3.83-3.87-1.7-7.51-3.8-10.93-6.3-3.49-2.61-6.63-5.59-9.42-8.95-1.93-3.34-3.76-6.74-5.49-10.19-6.53-14.58-5.83-31-2.55-46.28.63-3.24,1.45-6.43,2.43-9.59,1.32-4.36,2.84-8.65,4.57-12.87,2.06-2.85,3.95-5.8,5.7-8.85,2.01-3.21,4.29-6.22,6.83-9.03,4.59-5.16,10.02-9.77,16.26-12.83,2.78-1.24,5.62-2.32,8.52-3.23,3.29-.64,6.61-1.08,9.95-1.31l-1.26.06,5.82.41-1.26-.11,4.66.81-1.24-.27c2.61.86,5.17,1.84,7.69,2.94l-1.15-.55c1.37.81,2.75,1.63,4.12,2.44l-1.08-.68,3.97,2.57-1-.78c2.16,1.79,4.28,3.64,6.34,5.55l-.83-.96c2.28,2.66,4.7,5.22,6.61,8.16,1.78,2.73,3.41,5.34,4.78,8.32,1.16,2.5,2.17,4.98,2.94,7.63,1.7,5.91,1.64,12.21,1.56,18.27l.12-1.23-.75,7.47.19-1.21-1.31,7.49.26-1.2c-.61,2.48-1.21,4.96-1.82,7.45l.32-1.18c-.76,2.43-1.52,4.85-2.27,7.28l.38-1.16-2.67,6.84.45-1.13c-2.28,5.15-4.66,10.26-7.14,15.32l.57-1.06c-1.76,3.24-3.53,6.48-5.29,9.72l.62-1.03-5.81,9.44.66-1-6.31,9.14.7-.97c-2.26,2.94-4.52,5.88-6.78,8.81l.74-.93c-2.41,2.82-4.82,5.64-7.23,8.46l.78-.9c-2.56,2.7-5.11,5.39-7.67,8.09l.82-.86c-4.7,4.71-9.64,9.17-14.82,13.36-3.86,3.19-7.88,6.15-12.05,8.9-9.58,6.56-19.74,12.45-30.52,16.82-20.29,8.22-41.68,12.49-63.36,14.93-43.26,4.86-88.15,3.48-129.54,18.85-17.23,6.4-33.11,15.77-46.24,28.72-7.39,7.28-13.35,15.93-18.2,25.05-4.75,8.92-8.49,18.38-10.95,28.2-4.41,17.59-6.12,35.9-5.23,54,.57,11.55,2.06,23.01,3.88,34.43,1.28,7.53,2.67,15.05,4.16,22.55,1.07,7.01,2.29,13.99,3.65,20.95.8,4.35,6.2-2.97,6.55-3.38,2.69-3.31,5.26-6.71,7.69-10.21,1.55-1.75,2.59-3.73,3.12-5.96Z"/>
    <path class="cls-1" d="M129.95,1181.48c-3.26-14.69-6.38-29.45-8.59-44.34s-3.65-29.61-2.66-44.37c.7-10.4,2.57-20.84,5.6-30.82,1.49-4.95,3.3-9.79,5.44-14.5,2.11-4.65,4.55-9.11,7.34-13.39l-1.33,1.96c1.91-2.71,3.82-5.42,5.73-8.13l-1.45,1.88,6.34-7.64-1.57,1.78c2.32-2.36,4.64-4.73,6.96-7.09l-1.69,1.68,7.83-6.78-1.8,1.55c2.13-1.54,4.27-3.07,6.4-4.61,3.28-2.2,6.7-4.14,10.26-5.83,6.7-3.38,13.53-5.85,20.62-8.37l-2.25.78,10.05-2.97-2.3.62c3.42-.83,6.84-1.66,10.27-2.48l-2.34.47c10.34-2.02,20.62-3.77,31.11-4.85,8.73-.9,17.48-1.38,26.24-1.95,25.53-1.68,51.15-2.05,76.45-6.17,20.09-3.27,39.72-8.99,57.86-18.31,14.8-7.6,28.51-17.24,40.93-28.29,17.7-15.75,32.77-34.49,44.12-55.31,7.14-13.1,12.91-27.04,16.22-41.62,2.58-11.36,3.29-23.2,1.38-34.71l-.65-3.92-2.2-7.82c-1.06-2.77-2.51-5.47-3.94-8.06-3.89-7.07-8.88-13.3-14.8-18.75-9.43-8.69-21.67-14.87-34.58-15.86-7.79-.6-15.55.84-22.82,3.57-7.89,2.96-14.93,7.9-20.95,13.77-11.04,10.74-18.67,24.46-24.05,38.77-3.67,9.77-6.39,19.99-7.65,30.37-1.85,15.32-1.17,30.77,4.79,45.18,2.8,6.77,6.78,12.93,11.75,18.31,6.87,7.43,15.49,12.67,24.86,16.36,14.99,5.91,31.54,6.99,47.39,4.61,19.57-2.94,38.05-11.57,52.81-24.77,16.76-14.98,27.58-34.93,37.61-54.72,5.08-10.02,9.99-20.14,15.62-29.87,6.35-10.97,13.72-21.17,22.09-30.69,9.52-10.83,20.68-20.53,32.39-28.93s24.15-15.54,37.18-21.43c11.38-5.15,23.22-9.26,35.3-12.4,6.91-1.79,13.86-3.23,20.91-4.33,8.85-1.37,17.61-2.01,26.56-2.47,1.22-.21,1.51-.84.89-1.91-1.64-1.77-3.62-3.09-5.92-3.95-4.03-2.04-8.12-3.94-12.28-5.7-2.15-1.2-4.42-1.86-6.84-1.97-7.59.98-15.11,2.35-22.57,4.09-7.44,1.74-14.77,3.84-22,6.3-10.79,3.67-21.42,8.16-31.58,13.33-23.72,12.05-45.49,28.04-64.14,47.01-7.99,8.13-15.38,16.83-22.21,25.96-4.66,6.29-8.87,12.88-12.63,19.74-2.71,4.42-5.37,8.86-7.98,13.34-3.91,6.64-7.77,13.31-11.92,19.81-2.67,4.22-5.49,8.34-8.46,12.36-3.13,4.24-6.5,8.28-10.09,12.13l.87-.95-5.95,5.96.94-.88-6.39,5.59,1.01-.8c-2.31,1.72-4.61,3.43-6.92,5.15l1.07-.71c-2.19,1.3-4.38,2.6-6.57,3.9l1.13-.62c-2.29,1.11-4.57,2.23-6.86,3.34l1.18-.52c-2.36.92-4.73,1.84-7.09,2.76l1.21-.42c-2.42.72-4.83,1.43-7.25,2.15l1.24-.31-7.27,1.45,1.27-.19c-2.35.22-4.69.43-7.04.65l1.28-.06c-5.56-.02-11.03.15-16.55-.61-4.09-.56-7.99-1.49-11.95-2.7s-7.9-2.87-11.24-4.95l-4.13-2.84c-2.84-1.99-5.33-4.36-7.47-7.09l.66,1.06c-1.81-3.05-3.58-6.13-5.31-9.23-1.44-3.23-2.57-6.57-3.39-10.01l.23,1.22-1.12-6.57.14,1.24c-.21-2.25-.42-4.5-.63-6.75l.07,1.24-.05-6.88v1.24c.12-2.33.25-4.66.38-7l-.08,1.24c.51-3.95.99-7.91,1.78-11.81,1.03-5.11,2.48-10.13,4.16-15.06.37-1.75,1.06-3.34,2.09-4.79.84-1.31,1.58-2.68,2.23-4.1,2.15-4.28,4.7-8.16,7.37-12.15l-.7,1.01c1.33-1.68,2.67-3.37,4-5.05l-.79.94,4.21-4.59-.87.86,4.67-4.15-.96.76,4.77-3.56-1.04.65,5.23-2.93-1.11.52,5.29-2.36-1.17.38,5.7-1.54-1.21.23c1.96-.32,3.93-.63,5.89-.95l-1.23.09h6.22c-.41-.02-.83-.03-1.24-.05l5.09.75-1.23-.19c3.21,1.01,6.18,1.99,9.05,3.73s5.43,3.71,7.84,6.04c4.87,4.72,8.41,10.7,10.96,16.94,7.25,17.7,3.03,38.4-4.59,55.22-1.3,2.74-2.74,5.41-4.3,8.01-2.14,3.65-4.2,7.34-6.19,11.08-3.34,5.56-6.92,10.97-10.74,16.21-9.54,13.1-21.14,24.68-33.68,34.89-12.56,10.23-26.7,18.55-41.45,25.17-9.09,4.08-19.03,7.33-28.67,9.79-8.91,2.27-17.92,4.06-27,5.5-35.38,5.6-71.42,6.34-106.35,14.8-28.84,6.99-57.15,19.36-77.59,41.5-19.32,20.92-28.73,48.43-31.38,76.42-.65,6.85-1.09,13.74-1.09,20.63,0,9.53.92,19.09,2.07,28.54,1.16,9.49,2.74,18.9,4.5,28.29,2.02,10.78,3.88,21.57,5.82,32.36.83,4.63,6.26-4.38,6.15-4.21,2.31-3.65,4.48-7.39,6.52-11.2,1.35-1.94,2.16-4.07,2.44-6.37Z"/>
    <path class="cls-1" d="M138.22,1184.5c-5.37-25.5-11.23-51.2-11.42-77.4-.06-8.8.61-17.42,2.2-26.07.92-5.01,2.13-9.96,3.64-14.83,1.49-4.8,3.29-9.49,5.41-14.05l-.9,1.76c1.43-2.8,2.86-5.59,4.29-8.39l-1.02,1.76,4.89-8.05-1.16,1.74,5.5-7.67-1.31,1.71,6.13-7.23-1.46,1.66c2.26-2.25,4.52-4.49,6.77-6.74l-1.63,1.6c2.56-2.15,5.11-4.3,7.67-6.45l-1.8,1.51c3-2.35,6.16-4.43,9.49-6.26,3.98-2.44,8.13-4.57,12.44-6.39l-2.3,1.11c3.18-1.29,6.36-2.58,9.53-3.87l-2.44.94c3.3-1.11,6.6-2.21,9.9-3.32l-2.57.75c5.94-1.8,11.95-3.32,18.03-4.55,5.31-1.07,10.66-1.98,16.03-2.71,10.92-1.51,21.88-2.26,32.87-2.92,29.55-1.77,59.46-1.75,88.65-7.23,14.73-2.77,29.2-6.91,42.9-13.03,13.14-5.87,25.75-13.36,37.17-22.14,20.51-15.78,38.23-34.86,51.92-56.87,12.65-20.34,22.96-43.52,24.95-67.66.89-10.77.17-22.18-3.35-32.47-2.76-8.07-7.19-15.86-12.53-22.5-9.71-12.06-23.53-21.45-38.86-24.35s-30.86,1.03-43.5,9.66c-8.84,6.03-16.28,13.86-22.21,22.76-7.87,11.81-13.67,24.87-17.12,38.65-2.39,9.56-3.96,19.49-4.31,29.34-.17,4.85-.03,9.69.43,14.52.51,4.81,1.4,9.55,2.67,14.21,1.55,4.85,3.15,9.03,5.36,13.6,3.34,6.91,8.28,12.64,13.64,18.03,5.72,5.75,13.48,10.08,20.91,13.16s14.99,4.99,22.66,5.98c9.79,1.26,19.44.74,29.17-.67,8.6-1.25,16.99-3.55,25.01-6.91,10.74-4.5,20.68-10.78,29.38-18.51,9.44-8.39,17.23-18.4,23.97-29.03,6.51-10.28,11.99-21.18,17.38-32.08,4.98-10.08,10.01-20.07,15.58-29.85l-.73,1.21c2.31-3.64,4.61-7.28,6.92-10.91l-.77,1.19c4.41-5.96,8.85-11.82,13.74-17.41,5.93-6.77,12.58-12.96,19.46-18.76,12.18-10.27,25.61-19.33,39.88-26.45,12.64-6.31,25.8-11.6,39.4-15.45,8.49-2.4,17.12-4.22,25.84-5.55,8.77-1.34,17.45-1.94,26.32-2.37,1.08.21,1.9-.12,2.44-1.01.16-1.03-.25-1.81-1.21-2.35-2.15-1.19-4.4-2.18-6.73-2.97-2.29-.9-4.64-1.6-7.06-2.08-9.17,1.08-18.13,2.31-27.14,4.3-8.9,1.97-17.68,4.42-26.28,7.45-17.06,6.02-33.47,14.09-48.66,23.92-15.13,9.79-29.46,21.45-41.68,34.72-6.28,6.81-12.15,13.92-17.52,21.47-4.1,5.75-6.17,9.18-10.11,15.91-13.37,22.79-24.62,47.27-43.16,66.5-4.82,4.99-9.98,9.63-15.59,13.72-4.85,3.53-10.35,6.36-15.82,8.79-5.38,2.39-10.94,4.41-16.68,5.74-6.38,1.48-12.96,1.99-19.45,2.74l1.14-.06c-8.3.24-16.47.36-24.69-1.14-6.1-1.12-12.07-2.98-17.72-5.51-7.95-3.57-14.69-9-19.99-15.9-8.53-11.12-11.96-25.3-12.46-39.09-.29-8.1.42-16.17,1.71-24.17.68-4.39,1.58-8.74,2.7-13.04,2.85-13.57,11.02-24.31,24.48-32.21,5.64-16.61,15.72-26.09,30.26-28.43,4.28-.68,8.58-.91,12.91-.68,4.18.53,8.26,1.45,12.26,2.76,4.04,1.69,7.92,3.7,11.63,6.03l-.74-.56c3.87,2.76,7.52,5.78,10.94,9.07l-.68-.71,4.91,5.68-.62-.79,4.54,6.11-.57-.87c1.18,2.1,2.35,4.2,3.53,6.29l-.48-.96,3.06,6.64-.39-1.04c.76,2.29,1.52,4.58,2.28,6.87l-.28-1.11,1.73,7.1-.16-1.18,1.17,9.22-.03-1.23c.11,5.62.27,11.19-.38,16.79-.58,5.01-1.61,10.03-2.92,14.9-1.3,4.83-2.95,9.61-4.81,14.25-2.42,6.02-5.81,11.65-8.88,17.34-13.38,24.74-31.9,46.38-54.17,63.55-12.17,9.38-25.36,17.47-39.38,23.77-12.85,5.78-26.49,9.97-40.23,13-30.77,6.78-62.37,7.45-93.52,11.51-11.22,1.46-22.38,3.04-33.43,5.5-10.85,2.41-21.52,5.51-31.84,9.65-9.79,3.92-19.16,8.75-27.73,14.92-9.26,6.66-17.36,14.82-23.69,24.34-11.21,16.84-16.86,36.99-18.71,56.99-3,32.42,5.25,64.27,11.08,95.87.29,1.58,2.06,2.27,3.34,1.28.81-1.07,1.43-2.24,1.85-3.51.53-1.23.86-2.52.97-3.85Z"/>
    <path class="cls-1" d="M136.8,1179.99c-2.78-12.9-5.5-25.81-7.65-38.82-.98-5.55-1.77-11.12-2.37-16.72-.83-7.36-1.29-14.74-1.37-22.14l-.03,1.81.28-12.79-.09,1.82c1.26-12.94,3.31-25.63,7.85-37.89,2.2-5.95,4.94-11.66,8.17-17.11s6.77-10.56,11.05-15.07c3.53-3.72,7.32-7.17,11.35-10.34,5.09-4,10.86-7.23,16.68-10.03s12.05-5.25,18.33-7.21c8.41-2.63,17-4.36,25.63-6.06l-1.97.37c3.38-.53,6.76-1.05,10.14-1.58l-1.99.24c8.94-1.07,17.87-2.04,26.86-2.6,9.92-.62,19.86-1.13,29.79-1.6,25.71-1.22,51.63-2.34,76.77-8.35,21.41-5.12,41.68-13.98,59.96-26.25,21.22-14.24,39.82-32.64,54.46-53.59,11.31-16.19,20.75-34.23,26.3-53.24,2.18-7.44,3.76-15.18,4.37-22.92.4-5.16.48-10.67-.13-15.78l-1.23-7.97c-.71-2.66-1.42-5.32-2.13-7.98-2.06-5.7-5.18-11.24-8.61-16.22s-7.6-9.74-12.18-13.81c-10.79-9.61-25.04-16.16-39.7-15.83l-3.31.19c-2.41-.03-4.77.3-7.09.99-3.73.79-7.53,1.76-11.06,3.25s-6.86,3.55-10.05,5.61c-3.27,2.12-6.25,4.49-9.1,7.15-11.94,11.14-20.04,25.78-25.53,41.01-1.55,4.29-2.99,8.56-4.04,13-.89,3.74-1.71,7.51-2.34,11.31-1.2,7.16-1.93,14.46-1.85,21.73.12,12.15,2.48,24.56,8.02,35.45,4.66,9.17,11.48,17.18,19.88,23.11,13.77,9.74,30.67,14.22,47.4,14.45,17.54.25,35.39-4.05,50.88-12.29,7.58-4.03,14.73-9.08,21.08-14.84,6.84-6.2,12.54-13.34,17.99-20.74,3.49-4.73,6.56-9.96,9.49-15.05,5.93-10.28,11.01-21.02,16.34-31.62,4.6-9.13,9.34-18.12,14.86-26.73,7.01-10.94,15.26-21.06,24.51-30.2,17.87-17.67,39.14-31.55,61.97-41.94,12.87-5.85,26.6-10.31,40.38-13.43,5.19-1.18,10.43-2.09,15.69-2.88,8.82-1.31,17.55-1.89,26.47-2.29,1.06-.24,1.38-.86.97-1.87-1.16-1.62-2.68-2.82-4.56-3.6-3.18-1.83-6.43-3.52-9.75-5.07-1.72-1.09-3.58-1.65-5.57-1.66-7.62.81-15.18,2.01-22.67,3.6-7.46,1.59-14.83,3.55-22.09,5.88-14.46,4.64-28.45,10.71-41.74,18.04-23.09,12.75-44.07,29.36-61.75,48.93-5.06,5.6-9.84,11.43-14.33,17.5-4.66,6.26-8.85,12.83-12.56,19.7-4.02,6.76-7.93,13.57-11.87,20.38-5.19,8.99-10.46,17.96-16.48,26.42-2.88,4.09-5.95,8.03-9.21,11.82-3.5,4.05-7.23,7.88-11.19,11.48l.88-.83-6.78,5.69.94-.75c-2.14,1.48-4.28,2.97-6.41,4.45l1-.66-6.73,3.96,1.06-.57c-2.34,1.15-4.67,2.31-7.01,3.46l1.1-.48-7.23,2.92,1.13-.38c-2.45.77-4.91,1.55-7.36,2.32l1.15-.27c-11.64,2.59-23.62,4.68-35.58,3.42-5.98-.63-11.98-1.68-17.6-3.94-1.87-.83-3.74-1.66-5.6-2.49-3.98-2.05-7.67-4.52-11.08-7.42l.78.8c-2.98-2.98-5.68-6.21-8.09-9.67l.57.95c-1.26-2.13-2.52-4.25-3.79-6.38l.5.99-3.01-6.79.43,1.02c-1.54-3.97-2.64-8.06-3.31-12.27-.74-4.28-1.1-8.59-1.09-12.93-.06-7.99,1-15.86,2.5-23.7.66-3.72,1.47-7.42,2.45-11.07,1.37-3.5,2.71-7.02,4.02-10.54,2.95-7.24,6.63-14.15,11.36-20.38,4.86-6.39,10.42-12.19,17.37-16.36,3.88-2.22,7.95-3.97,12.23-5.25,4.47-1.13,9.02-1.69,13.63-1.7,12.64.99,24.47,7.29,32.44,17.16,7.48,9.26,12.26,20.35,13.65,32.2,1.83,15.57-1.83,31.88-8.33,46-1.78,3.77-3.76,7.44-5.93,11l-4.76,8.74c-6.5,11.45-14.46,22.17-23.22,31.97-15.26,17.08-33.56,31.6-53.79,42.36-21.73,11.56-45.54,17.73-69.79,21.23-26.15,3.78-52.61,4.75-78.77,8.5-34.78,4.98-70.53,14.78-96.76,39.47-7.54,7.09-13.8,15.37-18.91,24.35-4.27,7.5-7.37,15.5-10.03,23.68-4.93,15.2-6.4,31.5-6.66,47.39-.24,14.95,1.82,30.08,4.28,44.79,1.29,7.49,2.7,14.96,4.23,22.41,1.27,7.12,2.55,14.24,3.83,21.36.35.94,1,1.22,1.93.85,1.42-1.01,2.42-2.37,2.99-4.08,1.42-2.84,2.7-5.74,3.83-8.7.87-1.57,1.2-3.23.99-4.96Z"/>
    <path class="cls-1" d="M123.21,1170.11c-2.94-14.82-6.26-29.59-8.42-44.55-1.1-7.39-1.88-14.81-2.33-22.26-.44-7.36-.44-14.71,0-22.07l-.13,1.14,1.05-8.89-.14,1.13c1.52-9.12,3.4-17.95,6.59-26.67,2.66-7.3,6.02-14.24,10.24-20.78,4.86-7.52,10.73-14.31,17.66-20.01,8.3-6.82,18-12.14,28.1-15.75,16.43-5.88,33.64-8.82,50.98-10.44,8.2-.76,16.42-1.24,24.65-1.51,13.85-.46,27.7-.97,41.54-1.62,24.08-1.13,48.35-3.45,71.49-10.56,17.93-5.51,34.57-14.04,50.08-24.53,10.72-7.25,20.62-15.84,29.72-25.02,9.17-9.26,17.72-19.33,24.96-30.18,12.56-18.83,22.9-39.42,27.35-61.75,1.55-7.77,2.21-15.7,2.01-23.63-.14-5.29-.97-10.97-2.25-16.15-.65-2.64-1.66-6.07-2.71-8.56-2.85-6.81-6.99-13.12-11.73-18.74-13.77-16.32-34.29-27.39-56.11-24.58-29.27,3.77-49.6,29.26-60.06,55.06-5.91,14.57-9.54,30.23-10.19,45.96-.36,8.57.15,17.26,2.12,25.64.86,3.66,2.09,7.23,3.46,10.72,2.36,6.01,5.62,12.03,9.7,17.06,1.51,1.86,3.35,4.09,5.05,5.78,3.09,3.06,6.82,5.63,10.44,8.02s7.02,4.19,10.81,5.92c6.22,2.83,12.78,4.48,19.48,5.65,20.48,3.6,42.39.47,61.35-8.01,10.91-4.88,21.05-11.6,29.81-19.73,9.4-8.73,17.35-19.19,23.88-30.2,11.95-20.13,20.57-41.98,32.04-62.37l-.46.78c2.07-3.19,4.13-6.39,6.2-9.58,3.16-4.63,6.6-9.03,10.32-13.2,4.78-5.59,9.85-10.82,15.28-15.78,13.22-12.1,28.04-22.24,43.94-30.48,14.1-7.3,28.97-13.09,44.34-17.1,6.8-1.78,13.72-3.16,20.65-4.31,10.46-1.73,20.92-2.18,31.49-2.45,1.08-.03,2.11-2.16,1.84-3.07-.35-1.19-2.43-2.17-3.57-2.13-7.19.03-14.37.43-21.52,1.2-3.56.48-7.13.95-10.69,1.43-10.69,1.61-21.19,4.3-31.51,7.49-20.76,6.4-40.34,16.38-58.29,28.54s-34.87,28.46-47.88,46.76c-9.42,13.25-15.6,28.25-22.4,42.91-7.62,16.42-15.57,32.77-27.06,46.89-11.29,13.89-25.35,24.56-41.95,31.3-14.84,6.02-31.02,8.47-46.96,7.02-7.71-.71-15.25-2.34-22.41-5.3-3.54-1.34-6.93-3-10.18-4.97-4.75-3.23-9.17-6.86-13.25-10.89l.61.69c-1.7-2.27-3.4-4.55-5.11-6.82l.51.8-4.38-7.61.42.88-3.6-8,.35.94-2.36-7.88.25,1c-.55-2.72-1.11-5.43-1.66-8.15l.17,1.05c-.27-2.7-.55-5.39-.82-8.09l.07,1.08c-.07-2.75-.14-5.5-.21-8.25l-.02,1.11.45-8.15-.11,1.12.98-8.21-.19,1.13c.79-5.09,1.86-10.12,3.19-15.09,1.29-4.95,2.79-9.83,4.5-14.65l-.48,1.15c3-5.76,5.82-11.75,9.32-17.23s7.44-10.59,11.97-14.93c4.35-4.16,8.96-7.76,14.2-10.76l4.75-2.64c3.76-1.6,7.61-2.94,11.55-4.04l-1.09.27c2.26-.37,4.51-.73,6.77-1.1l-1.12.13c1.94-.17,3.88-.33,5.81-.5h-1.12c3.47.03,6.92.32,10.35.85l-1.09-.27c3.43.75,6.8,1.69,10.11,2.83,3.01,1.21,5.93,2.61,8.76,4.21,5.95,3.46,11.32,7.98,15.88,13.13,2.43,2.74,4.6,5.67,6.5,8.8,3.28,5.75,5.43,11.88,6.44,18.38,1.67,9.73,1.22,19.71-.47,29.4-1.82,10.43-4.89,20.58-9.19,30.25-5.93,13.33-13.61,25.97-22.36,37.63-8.75,11.66-18.74,22.4-29.75,31.95-5.48,4.76-11.2,9.2-17.16,13.33-5.91,4.1-12.03,7.85-18.37,11.24l.75-.38c-3.43,1.71-6.87,3.42-10.3,5.14l.76-.36c-6.7,3.11-13.59,5.74-20.67,7.88-3.67,1.01-7.34,2.02-11,3.03-10.79,2.75-22.06,4.4-33.11,5.59-21.69,2.34-43.61,2.71-65.39,3.58-31.97,1.29-65.53,3.88-94.48,18.79-6.61,3.41-12.71,7.5-18.45,12.22-6.42,5.28-11.83,11.64-16.64,18.39-4.75,6.66-8.63,14.39-11.64,21.98s-5.37,15.92-6.95,24.1c-2.57,13.32-3.27,26.67-2.35,40.24.64,9.51,1.8,18.95,3.35,28.36.88,5.67,1.91,11.31,3.09,16.92,1.61,7.15,2.86,14.37,3.75,21.64.2.8.69,1.29,1.49,1.49,1.13.04,2.08-.39,2.85-1.3,1.44-1.22,2.77-2.55,3.99-4,.91-.77,1.34-1.72,1.3-2.85Z"/>
    <path class="cls-1" d="M121.46,1179.29c-4.09-20.25-8.55-40.48-10.32-61.1-.78-9.09-1.39-18.54-.59-27.64.69-7.84,2.1-15.49,3.77-23.18l-.36,1.37,2.48-8.9-.4,1.35c1.69-4.91,3.28-9.77,5.54-14.48,1.66-3.46,3.47-6.81,5.47-10.09,4.58-7.51,10.17-14.59,16.87-20.34,6.01-5.16,12.58-9.61,19.67-13.17,9.45-4.74,19.64-8.03,29.91-10.5,18.71-4.49,37.85-6.04,56.99-7.14,22.07-1.27,44.24-1.79,66.24-4.14,25.68-2.75,51.6-8.5,74.59-20.67s42.96-28.08,59.74-47.44c8.48-9.79,15.98-20.38,22.5-31.57,5.89-10.12,11.24-20.81,15.02-31.91,5.9-17.32,9.05-36.16,5.1-54.28-1.08-4.95-2.73-9.61-4.99-14.14-1.8-3.61-3.83-6.85-6.16-10.15-6.07-8.64-14.31-16.18-23.58-21.26-13.11-7.2-29.28-9.46-43.58-4.52-3.58,1.23-6.93,2.72-10.21,4.58s-6.34,3.91-9.3,6.23c-3.78,2.96-7.42,6.81-10.53,10.53-3.13,3.74-6,7.84-8.53,12.01-6.96,11.44-12.17,24.55-15.25,37.61-1.67,7.09-2.88,14.25-3.48,21.52-.39,4.67-.41,9.59-.1,14.29.25,2.36.51,4.72.76,7.08l1.35,6.98c2.05,7.39,4.67,14.52,8.92,20.95,1.23,1.87,2.62,3.82,4.03,5.56s2.95,3.68,4.53,5.19c1.79,1.71,3.82,3.48,5.82,4.94,2.03,1.47,4.12,3.09,6.3,4.31,6.71,3.78,13.75,6.78,21.18,8.82,9.8,2.7,20.06,3.59,30.19,2.91,11.08-.74,22.1-3.01,32.41-7.17,4.05-1.64,7.95-3.61,11.76-5.74,6.31-3.53,12.44-7.61,17.82-12.48,9.35-8.47,17.43-18.34,24.05-29.07,5.6-9.08,10.49-18.54,15.18-28.11,4.99-10.19,9.81-20.47,15.41-30.35,2.57-4.54,5.29-9.03,8.18-13.37,6.16-9.24,13.76-17.34,21.4-25.33l-.94.92c2.96-2.77,5.92-5.54,8.88-8.32l-.96.89c5.39-4.77,11.01-9.23,16.87-13.4,5.82-4.14,11.84-7.98,18.05-11.51,9.32-5.2,18.91-9.86,28.86-13.73,9.87-3.84,20.11-6.99,30.44-9.34,6.89-1.57,13.85-2.8,20.86-3.67,7.01-.88,14.04-1.39,21.11-1.54,2.09-.1,2.75-1.83,1.31-3.33-1.58-1.03-3.27-1.86-5.05-2.5-1.74-.75-3.54-1.29-5.4-1.62-7.22.61-14.41,1.22-21.57,2.37-7.14,1.15-14.27,2.66-21.27,4.5-15.86,4.17-31.22,10.12-45.82,17.56-13.09,6.67-25.48,14.55-37.04,23.64-7.49,5.88-14.35,12.23-21.13,18.89-4.13,4.06-7.91,8.54-11.58,13.01-3.68,4.3-7.08,8.8-10.22,13.51l-6.19,10.32c-5.46,9.44-10.29,19.21-15.24,28.92-11.01,21.59-23.4,43.56-43.78,57.66-8.77,6.07-18.49,10.5-28.84,13.08-9.35,2.32-19.01,2.6-28.57,1.6-8.77-.92-17.15-3.52-24.87-7.78-4.63-2.55-8.97-5.59-12.79-9.27l-4.23-4.52-3.77-5.13-1.87-4.78-2.28-5.35c-1.27-3.58-2.19-7.5-2.74-11.26-1.12-7.67-.82-15.68.3-23.33,1.34-9.13,3.82-18.12,7.11-26.73.4-1.72,1.15-3.26,2.26-4.61.9-1.2,1.67-2.49,2.3-3.85,2.14-4.02,4.65-7.77,7.14-11.58l-.7,1c4.57-5.86,9.16-11.89,15.11-16.42,2.47-1.88,4.86-3.77,7.63-5.19,3.8-1.94,7.57-3.5,11.83-4.19,5.7-.93,11.42-.61,16.96,1.08,3.63,1.11,7,2.74,10.22,4.72,3.43,2.11,6.34,4.63,9.34,7.32l-.78-.82,4.08,4.39-.71-.87,3.8,4.83-.65-.92c1.12,1.71,2.24,3.41,3.36,5.12l-.58-.96,2.98,5.55-.52-1,2.02,4.71c1.14,3.43,1.89,6.94,2.23,10.53.63,4.74.75,9.4.44,14.17-.68,10.66-3.18,21.28-7.23,31.18-11.5,28.15-29.52,53.57-52.39,73.62-11.88,10.41-25.06,19.34-39.12,26.53s-29.73,12.59-45.51,16.12c-31.86,7.13-64.72,7.52-97.1,10.54-23.83,2.22-47.77,5.72-70.19,14.47-11.79,4.6-22.75,10.69-32.57,18.69-9.55,7.79-17.31,17.89-23.2,28.65-8.21,15.01-12.83,31.55-14.99,48.47-1.01,7.89-1.55,15.57-1.3,23.56s.78,15.2,1.66,22.75,2.13,15.12,3.47,22.62c1.11,5.56,2.18,11.12,3.2,16.7,1.07,5.32,1.91,10.68,2.52,16.07.18.89.72,1.33,1.63,1.33,1.41-.34,2.53-1.14,3.37-2.4,1.74-1.88,3.36-3.86,4.86-5.94,1.06-1.07,1.62-2.33,1.68-3.78Z"/>
    <path class="cls-1" d="M130.65,1185.1c-2.09-6.99-3.75-14.08-4.98-21.27-1.53-7.4-2.85-14.84-3.97-22.31-1.87-12.79-2.93-25.61-2.59-38.54.25-9.52,1.54-18.92,3.89-28.16,1.24-4.92,2.79-9.75,4.65-14.47,1.83-4.65,3.98-9.14,6.46-13.48l-.8,1.29c1.57-2.52,3.15-5.03,4.72-7.55l-.88,1.27,5.27-7.14-.97,1.24c1.95-2.23,3.89-4.46,5.84-6.69l-1.07,1.21c3.59-3.46,7.16-6.89,11.18-9.85,5.07-3.73,10.57-6.81,16.26-9.46,11.22-5.23,22.97-8.33,34.99-11.1l-2.09.44c11.38-2.13,22.71-3.83,34.26-4.82,12.53-1.08,25.12-1.65,37.68-2.28,26.12-1.31,52.49-2.52,78.03-8.63,14.43-3.45,28.38-8.45,41.57-15.26,12.94-6.68,25.09-14.89,36.26-24.22,20.02-16.72,36.56-37.04,49.39-59.71,11.33-20.03,19.96-43.17,19.92-66.46.01-5.54-.53-11.03-1.62-16.46-.87-5.07-2.48-9.88-4.84-14.43-3.83-7.99-8.96-15.24-15.26-21.47-12.4-12.24-29.2-20.13-46.86-19.1-11.82.69-22.69,5.29-32.03,12.36-15.12,11.44-25.36,28.89-31.54,46.6-1.35,3.82-2.61,7.68-3.79,11.56-1.28,4.84-2.34,9.73-3.19,14.67-.88,5.12-1.56,10.36-1.8,15.56-.62,13.25.97,26.45,6.31,38.69,3.53,8.09,8.52,15.4,15.05,21.41,7.65,7.03,17.07,12.11,26.94,15.24,14.25,4.52,29.33,5.35,44.09,3.32,23.62-3.23,45.21-14.31,61.75-31.48,17.25-17.89,27.97-40.55,38.83-62.58l-.51,1.03c3.76-7.43,7.48-14.95,11.8-22.09,4.89-8.09,10.27-15.71,16.36-22.94,12.64-14.99,27.68-28.19,44.31-38.62,14.96-9.39,30.8-16.93,47.5-22.68,9.83-3.39,20.31-6.08,30.56-7.81s20.83-2.63,31.39-3.14c2.33-.11,2.49-2.24.9-3.46-1.84-.87-3.76-1.53-5.75-1.98-1.96-.57-3.96-.92-5.99-1.06-10.63,1.11-21.02,2.45-31.45,4.85-10.26,2.36-20.59,5.45-30.39,9.31-18.2,7.17-35.39,16.35-51.25,27.82-16.03,11.59-30.85,25.36-42.81,41.17-6.28,8.3-11.77,17.06-16.82,26.17-4.3,7.76-8.38,15.63-12.55,23.46l.55-1.02c-8.17,14.74-16.64,29.22-28.31,41.52-10.67,11.25-23.57,20.72-38.47,25.53-6.14,1.98-12.39,3.46-18.82,4.04-5.49.5-11.04.29-16.54-.1-5.89-.42-11.96-1.68-17.57-3.47l-5.37-1.8c-3.83-1.65-7.58-3.47-11.25-5.46l1.01.58-5.66-3.81.93.7-5.53-4.27.85.8-4.98-4.96.75.88c-3.36-4.62-6.78-9.03-9.11-14.29l-2.17-5.28c-1.2-3.68-2.11-7.42-2.76-11.23l.14,1.13-.82-6.99.07,1.14c-.13-2.39-.26-4.79-.39-7.18v1.13c.04-2.41.07-4.81.11-7.22l-.06,1.13.46-7.47-.1,1.12.87-7.42-.15,1.11c.39-2.69.79-5.39,1.18-8.08l-.17,1.11c2.29-12.03,5.55-24.1,10.96-35.15,2.89-5.91,6.46-11.84,10.83-16.79,9.19-10.4,24.96-19.32,39.68-18.26,11.72.84,23.25,5.69,32,13.61,3.82,3.46,7.32,7.28,10.25,11.52,1.83,2.51,3.47,5.15,4.91,7.91,1.94,3.96,3.59,8.04,4.94,12.24l-.2-.99,1.74,9.04-.1-1.03.74,8.99v-1.05c-.06,2.97-.11,5.94-.16,8.91l.08-1.07-.93,8.81.16-1.07c-.54,2.9-1.07,5.79-1.61,8.69l.24-1.08-2.2,8.58.31-1.08-2.72,8.45.38-1.07-3.25,8.1.46-1.06c-4.41,9.03-8.74,18.16-14.14,26.66-3.92,6.16-8.11,12.14-12.58,17.92-12.13,15.69-27.03,29.38-43.26,40.7-14.45,10.08-30.12,18.3-46.79,24.06-8.78,3.03-17.71,5.56-26.78,7.54-10.88,2.37-21.89,3.88-32.92,5.31l1.49-.17c-35.11,3.74-70.74,4.71-105.24,12.85-21.04,4.97-42.02,13.01-58.48,27.36-15.56,13.56-25.37,32.35-30.45,52.19-1.62,6.34-2.75,12.74-3.55,19.22-1.2,9.8-1.05,19.89-.4,29.72.74,11.18,2.34,22.43,4.37,33.44l2.17,11.19c1.24,7.05,2.84,14.02,4.8,20.9.34,1.31,1.78,2.38,3.15,1.7.81-.71,1.45-1.56,1.91-2.54.56-.93.92-1.93,1.08-3Z"/>
    <path class="cls-1" d="M135.09,1171.86c-5.52-25.54-11.22-51.47-11.35-77.73-.04-8.94.69-17.65,2.34-26.42.95-5.1,2.2-10.13,3.75-15.08,1.53-4.89,3.38-9.66,5.56-14.3l-.86,1.7c1.45-2.82,2.89-5.63,4.34-8.45l-.95,1.64c1.64-2.69,3.28-5.37,4.91-8.06l-1.04,1.56,5.5-7.61-1.14,1.48c2.03-2.37,4.05-4.74,6.08-7.11l-1.23,1.38c2.22-2.19,4.44-4.38,6.67-6.56l-1.31,1.27c2.5-2.08,5-4.16,7.49-6.24l-1.38,1.15,6.49-4.47c3.33-2.13,6.8-4,10.41-5.6,6.57-3.13,13.26-5.4,20.19-7.68l-1.56.51,9.41-2.56-1.56.4,9.57-2.12-1.55.3c11.51-2.06,22.97-3.7,34.64-4.55,10.93-.79,21.9-1.29,32.85-1.76,14.54-.62,29.07-1.14,43.57-2.45,16.69-1.51,33.56-3.93,49.59-8.97,12.2-3.83,23.81-8.74,34.97-15.02s21.41-13.51,31.18-21.66c8.36-6.97,16.28-14.89,23.34-23.19,4.88-5.75,9.54-11.69,13.81-17.91,8.26-12.04,15.16-24.88,20.8-38.34,1.91-4.56,3.66-9.71,5-14.48,2.1-7.49,3.75-15.22,4.3-23,.69-9.61,0-19.22-2.69-28.5-.83-2.87-1.38-4.7-2.61-7.39-1.74-3.8-3.75-7.38-6.1-10.83-2.92-4.28-6.2-8.3-9.92-11.92-8.61-8.37-19.15-14.45-30.86-17.24-8.68-2.06-18.16-1.79-26.73.58-4.82,1.34-9.62,3.38-13.9,5.92l-6.42,4.1c-3.11,2.34-6.02,4.9-8.74,7.67-13.12,12.74-21.13,29.6-26.83,46.74-.94,2.83-1.52,5.48-2.2,8.59-1.08,4.97-2.1,10-2.7,15.05-1.18,9.84-1.28,19.67.17,29.49.72,4.85,2,9.73,3.69,14.34s3.94,9.41,6.76,13.59c2.82,4.18,6.07,8.75,9.83,12.07,3.07,2.71,6.45,5.08,9.9,7.27,12.18,7.77,27.07,11.96,41.53,12.3,8.03.19,15.97-.39,23.86-1.93,8.42-1.64,16.87-3.85,24.61-7.66,2.59-1.28,5.27-2.45,7.77-3.91,3.61-2.11,7.08-4.27,10.47-6.71,6.25-4.49,12.09-9.55,17.23-15.29,8.06-9.01,14.58-18.99,20.57-29.46,11.91-20.81,20.34-43.49,34.02-63.3,9.37-13.58,20.85-25.65,33.49-36.21,12.34-10.31,25.9-19.36,40.34-26.48,12.83-6.32,26.12-11.44,39.88-15.36,6.8-1.94,13.88-3.46,20.86-4.65,10.59-1.8,21.21-2.48,31.93-2.91.86-.25,1.26-.83,1.21-1.72-.41-1.35-1.25-2.39-2.52-3.11-1.93-1.55-3.95-2.98-6.07-4.28-1.11-.96-2.37-1.4-3.78-1.33-7.69.34-15.33,1.07-22.94,2.2-5.71.81-11.36,1.92-16.95,3.32-11.27,2.61-22.21,6.06-32.94,10.35-23.18,9.27-44.85,22.2-63.85,38.42-8.68,7.4-16.89,15.56-24.3,24.23-5,5.8-9.6,11.89-13.82,18.27l-6.12,10.35c-9.34,16.06-16.95,33.03-25.67,49.42l.57-1c-4.06,7.07-8.11,14.26-13.11,20.73-1.68,2.07-3.36,4.14-5.04,6.21-3.41,3.97-7.11,7.63-11.12,10.99l.88-.68-6.73,5.18.92-.62-7.18,4.68.96-.55-7.59,4.14.99-.49-7.95,3.54,1.02-.42-8.05,2.78,1.04-.33c-4.72,1.18-9.46,2.51-14.27,3.28-17.79-3.6-35.58-7.2-53.36-10.8-2.02-1.59-4.04-3.18-6.07-4.76-3.25-3.1-6.12-6.99-8.51-10.78-3.17-5.04-5.37-10.44-7.02-16.15-2.61-9.04-3.18-18.45-2.63-27.82.66-11.28,3.43-22.24,6.42-33.09l-.32.98c2.2-5.14,4.37-10.27,6.91-15.25,2.16-4.25,4.71-8.2,7.48-12.08,1.99-3.03,4.31-5.8,6.97-8.29l5.27-5.02,5.75-4.02,6.14-3.51c4.79-2.38,10.61-3.71,15.92-4.21s10.09-.46,14.98,1.09c7.01,2.23,13.41,5.81,18.79,10.84,9.9,9.26,17.05,22.04,19.25,35.46,1.56,9.53,1.01,19.22-.94,28.67-2.46,11.95-7.51,22.81-12.58,33.83l.51-1.05c-1.72,3.28-3.44,6.55-5.15,9.83l.56-1.02c-1.89,3.19-3.77,6.37-5.66,9.56l.61-.99c-2.05,3.09-4.1,6.18-6.15,9.27l.66-.96-6.62,8.96.7-.92-7.07,8.63.74-.88c-2.5,2.76-5,5.52-7.5,8.28l.78-.85-7.92,7.9.81-.81c-4.87,4.62-9.96,8.97-15.28,13.06-3.97,3.11-8.09,5.98-12.38,8.62-8.45,5.43-17.2,10.12-26.51,13.92-22.24,9.09-45.95,12.8-69.76,14.74-21.79,1.78-43.66,2.36-65.44,4.35-19.85,1.81-39.66,5.21-58.39,12.19-18.43,6.87-36.1,17.48-48.63,32.93-10.8,13.31-18.21,28.7-22.49,45.27-4.44,17.16-5.67,35.09-4.89,52.75.5,11.42,2.1,22.78,3.92,34.05,1.29,7.51,2.68,15,4.18,22.48,1.16,7.05,2.38,14.09,3.68,21.12.74,4.12,5.43-2.9,5.5-3,1.9-2.89,3.67-5.87,5.3-8.92,1.14-1.57,1.74-3.3,1.82-5.19Z"/>
    <path class="cls-1" d="M123.76,1184.33c-.41-3.94-.95-7.86-1.64-11.75-1.59-7.4-3.07-14.83-4.45-22.27l.19,1.11c-2.42-14.73-4.54-29.44-4.6-44.4-.05-11.47,1.24-22.8,4.04-33.93,2.48-9.87,6.13-19.5,11.19-28.36,2.47-4.34,5.27-8.45,8.41-12.33,3.12-3.85,6.56-7.4,10.32-10.63l-1.43,1.14,7.57-5.99-1.51,1.06c2.66-1.76,5.32-3.51,7.98-5.27l-1.6.97c2.79-1.54,5.58-3.07,8.37-4.61l-1.68.87,8.72-4.01-1.77.77,9.03-3.47-1.85.66,9.31-2.98-1.93.55c3.19-.84,6.38-1.69,9.56-2.53l-2,.44c11.23-2.44,22.41-4.47,33.85-5.71,11.69-1.26,23.45-1.86,35.18-2.52,12.56-.71,25.13-1.18,37.68-2.07,9.65-.69,19.24-1.71,28.84-2.95,29.29-3.78,57.87-13.7,82.37-30.34,21.43-14.56,40.2-32.67,55.11-53.9,8.57-12.2,15.9-25.35,21.56-39.15,2.95-7.2,5.43-14.63,7.14-22.23,2.34-10.4,3.42-21.15,2.32-31.79-.57-5.58-1.73-11.03-3.49-16.35-1.57-3.98-3.43-7.81-5.57-11.51-7.53-12.61-18.99-23.28-32.56-29.04-9.38-3.98-19.22-5.3-29.28-4.01-34.26,4.41-54.42,38.14-62.96,68.6-7.74,27.6-8.85,60.06,10.62,83.28,9.71,11.58,23.5,18.76,37.97,22.47,20.5,5.25,43.01,3.48,62.59-4.42,8.12-3.27,15.7-7.62,22.82-12.68,10.13-7.2,18.69-16.66,25.94-26.69,14.05-19.44,23.24-41.89,34.33-63.02l-.58,1.02c4.18-7.36,8.44-14.56,13.49-21.36,5.47-7.36,11.42-14.32,17.93-20.78,12.56-12.47,27.05-23.46,42.51-32.11,13.86-7.75,28.39-14.1,43.58-18.78,8.39-2.59,16.91-4.72,25.56-6.26,10.4-1.85,20.84-2.63,31.38-3.14,2.21-.11,2.48-2.17,1-3.44-1.71-.89-3.5-1.57-5.37-2.05-1.84-.6-3.71-.98-5.63-1.14-7.08.5-14.12,1.36-21.12,2.56-5.26.86-10.46,1.97-15.61,3.33-10.39,2.57-20.49,5.85-30.41,9.85-21.6,8.72-41.89,20.66-59.79,35.59-8.36,6.98-16.28,14.68-23.43,22.89-3.71,4.18-7.16,8.55-10.36,13.12-3.58,4.64-6.76,9.55-9.54,14.72-8.03,13.7-14.84,28.06-22.72,41.84-4.43,7.75-9.21,15.23-14.74,22.25-6.44,8.18-13.88,16.13-22.55,22.01-6.7,4.54-13.94,8.47-21.63,11.06-7.5,2.52-15.2,4.37-23.15,4.59-12.81.35-25.81-2.07-37.34-7.7-5.27-2.57-10.02-6.05-14.37-9.95-2.9-2.52-5.44-5.37-7.6-8.56-1.54-3.37-3.2-6.69-4.99-9.95l.54,1.08c-1.48-3.74-2.71-7.56-3.68-11.47l.32,1.17c-.79-4-1.35-8.03-1.67-12.1l.13,1.2c-.17-4.19-.15-8.37.07-12.56l-.04,1.2c.37-4.33.88-8.64,1.53-12.93l-.17,1.18,1.37-7.1-.23,1.17,1.67-7.42-.28,1.16c.67-2.42,1.34-4.85,2.01-7.27l-.32,1.14c2.02-4.77,3.73-9.65,5.81-14.39,2.57-5.87,5.46-11.62,9.1-16.91s8.05-10.57,13.41-14.62c3.22-2.46,6.73-4.39,10.52-5.81,3.66-1.45,7.45-2.34,11.37-2.68l-1.1.03,6.32-.17-1.1-.07,6.32.67-1.08-.16,6.17,1.34-1.06-.25c4.3,1.53,8.26,3.07,12.13,5.48s7.51,5.24,10.75,8.53,6.13,7.11,8.62,11.14,4.77,8.52,6.04,13.03c3.44,12.16,3.24,25.49.55,37.79-1.08,4.93-2.42,9.82-4.02,14.6-1.14,3.43-2.53,6.76-4.16,9.98-2.04,4.31-4.13,8.59-6.28,12.85-7.77,14.35-17.1,27.71-28.07,39.81-12.09,13.34-25.84,24.94-41.04,34.59-7.47,4.74-15.22,9.05-23.28,12.72s-16.37,6.59-24.84,9.11c-17.44,5.2-35.4,8.1-53.48,9.98-30.71,3.19-61.71,4.05-92.1,9.87-13.14,2.52-26.29,6.1-38.63,11.33-12.07,5.11-23.89,12.06-33.2,21.41-9.1,9.13-16.55,19.97-21.53,31.89-5.14,12.28-8.47,25.28-9.9,38.52-3.18,29.31,2.74,58.54,8.62,87.12l-.19-1.1c.31,4.01.61,8.02.92,12.03.06.78.08,1.51.8,2.01,1.05.71,2.07.1,2.84-.67,1.18-1.18,2.11-2.56,2.99-3.98.82-1.33,1.58-2.47,1.37-4.06Z"/>
    <path class="cls-1" d="M131.97,1168.4c-5.44-25.57-11.2-51.47-11.31-77.75-.03-8.94.71-17.64,2.39-26.41.96-5.1,2.23-10.13,3.79-15.08,1.55-4.9,3.42-9.67,5.62-14.32l-.69,1.36,4.22-8.12-.75,1.3c1.59-2.58,3.18-5.16,4.77-7.73l-.81,1.24,5.32-7.3-.86,1.17c3.38-3.86,6.58-7.63,10.51-10.99,3.07-2.62,6.24-5.02,9.61-7.24,7.86-5.17,16.34-8.97,25.21-12.03s18.55-5.08,27.98-6.59c12.43-1.99,25.02-3.07,37.6-3.56,11.79-.46,23.58-.89,35.37-1.3,12.75-.44,25.56-.92,38.25-2.31,13.37-1.47,26.57-3.59,39.55-7.17,14.24-3.92,27.67-9.52,40.47-16.91,22.22-12.83,41.68-30,57.65-50.04,15.78-19.8,28.56-42.57,35.52-67.01,4.32-15.18,5.69-31.56,2.37-47.07-2.8-13.1-10.09-24.61-19.42-34.08-4.56-4.63-10.05-8.94-15.85-11.9-2.47-1.26-4.85-2.42-7.45-3.43-3.96-1.53-7.95-2.6-12.16-3.24-3.23-.49-6.44-.74-9.71-.75-6.07-.02-12.1,1.38-17.79,3.38-17.18,6.04-30.91,19.75-40.03,35.21-3.09,5.24-5.8,10.49-8.11,16.11-1.77,4.3-3.58,8.83-4.85,13.29-1.43,5.03-2.54,10.19-3.51,15.33-1.44,7.55-2.36,15.44-2.08,23.14.17,4.73.56,9.2,1.25,13.88.74,5.08,2.17,10.49,4.09,15.22,1.45,3.59,3.07,6.96,5.05,10.28,1.92,3.47,4.18,6.7,6.77,9.71,1.86,1.97,3.72,3.94,5.59,5.9,3.02,2.74,6.54,5.07,9.99,7.23,4.67,2.93,9.52,5.23,14.68,7.17,4.2,1.58,8.29,2.88,12.76,3.68,5.18.93,10.24,1.71,15.5,1.94s10.53.02,15.78-.51c13.85-1.4,27.9-5.46,39.98-12.46,10.44-6.05,19.8-13.66,27.8-22.71,8.29-9.38,15-20.07,20.92-31.06,11.4-21.17,19.98-43.74,33.45-63.78,4.08-6.06,8.95-11.95,13.88-17.39,6.11-6.73,12.76-12.93,19.76-18.71,4.17-3.44,8.45-6.72,12.86-9.85,8.81-6.27,18.23-11.37,27.79-16.36l-1.05.51,10.81-4.99-1.05.47c6.58-2.85,13.29-5.37,20.12-7.56,6.83-2.18,13.74-4.02,20.75-5.51,7-1.49,14.06-2.61,21.18-3.37,7.12-.76,14.25-1.14,21.41-1.15,1.44-.04,2.63-1.44,2.12-2.89-.66-.95-1.48-1.74-2.45-2.39-.9-.73-1.91-1.27-3.01-1.62-5.63-.04-11.24.22-16.83.77-3.75.21-7.47.61-11.18,1.2-9.33,1.25-18.52,3.1-27.63,5.45-14.64,3.78-28.67,9.46-42.28,15.99-14,6.71-27.11,15.35-39.33,24.9-4.48,3.5-8.76,7.23-12.82,11.2-4.21,3.81-8.18,7.85-11.92,12.13-2.43,2.9-4.85,5.79-7.28,8.69-3.7,4.49-6.97,9.27-9.82,14.33-7.24,12.02-13.03,24.66-18.59,37.52-9.04,20.87-18.2,41.59-34.98,57.91-4.8,4.66-10.04,8.96-15.76,12.46-2.22,1.28-4.44,2.56-6.65,3.85-37.08,15.7-67.68,13.69-91.81-6.03-3.19-2.21-5.97-4.89-8.32-8.02l-4.48-6.14c-1.25-2.15-2.51-4.31-3.76-6.46-2.07-4.39-3.74-8.93-4.99-13.61l.18.84-1.56-7.84.13.86c-.33-2.66-.66-5.32-.98-7.98l.08.87c-.09-2.68-.19-5.35-.28-8.03l.03.87.19-7.2c.3-3.61.79-7.19,1.46-10.74,1.09-6.37,2.49-13.05,4.61-19.14,1.48-4.25,3.24-8.42,5.09-12.53,3.28-7.28,7.47-13.47,12.03-20.01l-.61.82,5.67-6.31-.74.76,6.19-5.92-.87.68c4.19-2.96,8.37-6.17,13.05-8.35,3.95-1.84,8.49-3.23,12.78-4.01l6.3-.75,6.62.07c4.18.42,8.2,1.69,12.11,3.18,5.77,2.19,10.84,5.61,15.61,9.47,5.65,4.57,9.99,10.23,14.23,16.08l-.63-.95c1.86,2.98,3.58,6.04,5.15,9.19l-.44-1.05,2.25,5.45-.35-1.08,2.07,7.65-.25-1.1c.43,2.58.86,5.17,1.29,7.75l-.16-1.12c.31,4.51.61,8.97.37,13.5-.31,5.73-1.24,11.41-2.49,17.01-2.33,10.41-6.14,20.3-10.67,29.94-12.58,26.72-31.26,50.66-54.28,69.21-12.14,9.78-25.51,18.08-39.83,24.24-13.64,5.87-28.02,9.63-42.65,12.04-31.48,5.19-63.62,4.25-95.38,5.98-25.25,1.37-51.35,4.7-74.59,15.23-5.46,2.47-10.86,5.39-15.84,8.73l-7.3,5.38c-2.27,2.04-4.54,4.08-6.81,6.12-4.2,4.35-8,8.85-11.59,13.71-2.67,3.62-4.89,7.63-6.97,11.6-2.65,5.06-4.88,10.23-6.77,15.62-4.24,12.07-6.57,24.59-7.74,37.31-1.29,14.16-.3,28.4,1.36,42.5,1.11,9.48,2.86,18.9,4.67,28.26,1.71,8.88,3.25,17.79,4.9,26.68.65,3.52,4.65-.93,5.23-1.57,1.85-2.16,3.58-4.42,5.18-6.77,1.12-1.2,1.72-2.6,1.82-4.18Z"/>
    <path class="cls-1" d="M121,1172.88c-1.72-9.31-3.66-18.57-5.44-27.87s-3.1-18.55-4.27-27.92l.1.99c-1.11-13.69-1.92-27.27.1-40.92,1.35-9.1,3.57-17.95,6.78-26.57s7.2-16.67,12.56-24.08c2.94-4.06,6.19-7.84,9.77-11.35,3.67-3.56,7.63-6.78,11.86-9.64l-.83.53,7.48-4.57-.84.47c2.6-1.31,5.19-2.62,7.79-3.93l-.85.42c4.75-2.16,9.62-4,14.6-5.53,5.06-1.55,10.18-2.87,15.36-3.93,13.59-2.85,27.44-4.3,41.29-5.11,27.02-1.59,54.18-1.19,81.13-4.07,14.95-1.6,29.83-4.2,44.22-8.62,14.04-4.32,27.62-10.4,40.11-18.15s24.63-17.23,35.69-27.57c10.88-10.17,20.53-21.91,28.88-34.22,8.39-12.38,15.78-25.77,21.11-39.77,7.52-19.73,11.94-42.2,6.83-63.07-4.74-19.34-19.65-35.93-37.17-44.93-11.49-5.9-24.79-8.01-37.5-5.55-15.25,2.96-28.33,12.23-38.04,24.11-12.06,14.77-20.11,32.42-24.49,50.93-4.48,18.94-5.78,39.39.65,58.05,3.29,9.56,8.68,18.79,15.8,26.01,5.77,5.86,13.16,10.65,20.56,14.12,9.99,4.69,20.72,7.3,31.73,7.9s21.8-.64,32.29-3.3c23.96-6.07,44.8-20.77,59.88-40.16,15.09-19.4,24.56-42.46,35.34-64.35l-.39.76c4.32-8.24,8.65-16.36,14.1-23.94,4.32-6,8.96-11.75,13.89-17.25,3.63-4.04,7.48-7.85,11.56-11.43,3.9-3.7,7.99-7.17,12.28-10.42,7.09-5.37,14.44-10.31,22.13-14.78,15.28-8.89,31.56-15.8,48.56-20.67,8.45-2.42,17.03-4.38,25.72-5.72,10.45-1.62,20.92-2.15,31.48-2.41,1.05-.03,1.87-2.42,1.56-3.22-.46-1.21-2.47-1.79-3.6-1.75-8.96.28-17.83.75-26.73,1.95s-17.7,2.83-26.33,5.19c-15.64,4.28-30.73,10.05-45.13,17.53-14.43,7.5-28.08,16.54-40.39,27.2-6.93,6-13.36,12.51-19.32,19.46-6.08,7.08-11.81,14.6-16.54,22.66-11.77,20.11-19.84,42.11-31.52,62.27-3.88,6.7-8.32,13.06-13.26,19.02-4.82,5.81-10.16,11.4-16.15,16.01-4.58,3.52-9.39,6.7-14.42,9.53-3.8,2.13-7.74,3.93-11.83,5.41-3.99,1.71-8.11,3.05-12.36,4.03l.83-.16c-5.52,1.04-11.01,2.17-16.62,2.68-6.3.57-12.53.38-18.81-.34-2.6-.12-5.13-.6-7.59-1.42-2.58-.56-5.09-1.32-7.55-2.27-2.65-.7-5.14-1.78-7.47-3.23-3.81-1.85-7.44-4-10.9-6.45l.75.62-7-6.13.71.74c-2.16-2.3-4.33-4.59-6.49-6.89l.66.85c-3.82-6.31-7.72-12.71-9.82-19.86-1.3-4.44-2.21-8.99-2.8-13.57-.85-6.56-.69-13.76.09-20.32.68-5.66,1.7-11.25,3.08-16.79.53-2.29,1.14-4.56,1.84-6.81.96-3.49,2.06-6.92,3.33-10.31l2.43-4.31c1.25-2.71,2.64-5.34,4.16-7.89,2.48-4.33,5.22-8.44,8.26-12.39,3.71-4.82,7.94-9.04,12.27-13.3l-.83.76c3.13-2.57,6.37-4.99,9.73-7.26,3.31-1.88,6.75-3.5,10.31-4.86,4.92-1.7,10.48-2.7,15.69-2.75,6.02-.05,11.8,1.09,17.42,3.18,20.72,7.71,36.61,27.07,38.2,51.87.5,7.74-.5,15.53-1.9,23.13-2.04,11.14-5.78,22.14-10.58,32.37-4.69,9.99-10.01,19.64-16.19,28.8-4.11,6.09-8.53,11.94-13.27,17.55-4.73,5.6-9.73,10.94-15.03,16.01l.61-.57c-2.91,2.65-5.82,5.29-8.72,7.94l.64-.55c-3.04,2.48-6.07,4.97-9.11,7.45l.66-.52c-5.73,4.44-11.68,8.56-17.86,12.34-6.11,3.74-12.42,7.1-18.92,10.1-10.25,4.56-20.82,8.2-31.73,10.87-25.13,6.14-51.07,7.28-76.81,8.33-18.08.74-36.19,1.24-54.18,3.19-16.37,1.77-32.95,4.79-48.38,10.71-9.23,3.54-17.9,8.17-25.76,14.18-14.11,10.79-24.52,25.37-31.19,41.76-3.64,8.94-6.18,18.22-7.83,27.72-.76,3.96-1.32,7.95-1.68,11.97-.5,7.53-.53,15.07-.11,22.6.41,7.75,1.31,15.91,2.41,23.58,1.11,7.54,2.43,15.05,3.97,22.52,1.83,7.27,3.06,14.64,3.69,22.1.27.72.77,1.21,1.5,1.48.91.18,1.69-.09,2.34-.82,1.45-1.07,4.17-3.34,3.79-5.41Z"/>
  </g>
</svg>